<?xml version="1.0" encoding="utf-8"?>
<svg xmlns="http://www.w3.org/2000/svg" xmlns:xlink="http://www.w3.org/1999/xlink" width="600" height="400" viewBox="0 0 2400 1600">
<defs>
  <clipPath id="clip060">
    <rect x="0" y="0" width="2400" height="1600"/>
  </clipPath>
</defs>
<path clip-path="url(#clip060)" d="M0 1600 L2400 1600 L2400 0 L0 0  Z" fill="#ffffff" fill-rule="evenodd" fill-opacity="1"/>
<defs>
  <clipPath id="clip061">
    <rect x="480" y="0" width="1681" height="1600"/>
  </clipPath>
</defs>
<path clip-path="url(#clip060)" d="M203.964 1423.18 L2150.46 1423.18 L2150.46 47.2441 L203.964 47.2441  Z" fill="#ffffff" fill-rule="evenodd" fill-opacity="1"/>
<defs>
  <clipPath id="clip062">
    <rect x="203" y="47" width="1947" height="1377"/>
  </clipPath>
</defs>
<polyline clip-path="url(#clip062)" style="stroke:#000000; stroke-linecap:round; stroke-linejoin:round; stroke-width:2; stroke-opacity:0.1; fill:none" points="229.905,1423.18 229.905,47.2441 "/>
<polyline clip-path="url(#clip062)" style="stroke:#000000; stroke-linecap:round; stroke-linejoin:round; stroke-width:2; stroke-opacity:0.1; fill:none" points="696.271,1423.18 696.271,47.2441 "/>
<polyline clip-path="url(#clip062)" style="stroke:#000000; stroke-linecap:round; stroke-linejoin:round; stroke-width:2; stroke-opacity:0.1; fill:none" points="1162.64,1423.18 1162.64,47.2441 "/>
<polyline clip-path="url(#clip062)" style="stroke:#000000; stroke-linecap:round; stroke-linejoin:round; stroke-width:2; stroke-opacity:0.1; fill:none" points="1629,1423.18 1629,47.2441 "/>
<polyline clip-path="url(#clip062)" style="stroke:#000000; stroke-linecap:round; stroke-linejoin:round; stroke-width:2; stroke-opacity:0.1; fill:none" points="2095.37,1423.18 2095.37,47.2441 "/>
<polyline clip-path="url(#clip060)" style="stroke:#000000; stroke-linecap:round; stroke-linejoin:round; stroke-width:4; stroke-opacity:1; fill:none" points="203.964,1423.18 2150.46,1423.18 "/>
<polyline clip-path="url(#clip060)" style="stroke:#000000; stroke-linecap:round; stroke-linejoin:round; stroke-width:4; stroke-opacity:1; fill:none" points="229.905,1423.18 229.905,1442.08 "/>
<polyline clip-path="url(#clip060)" style="stroke:#000000; stroke-linecap:round; stroke-linejoin:round; stroke-width:4; stroke-opacity:1; fill:none" points="696.271,1423.18 696.271,1442.08 "/>
<polyline clip-path="url(#clip060)" style="stroke:#000000; stroke-linecap:round; stroke-linejoin:round; stroke-width:4; stroke-opacity:1; fill:none" points="1162.64,1423.18 1162.64,1442.08 "/>
<polyline clip-path="url(#clip060)" style="stroke:#000000; stroke-linecap:round; stroke-linejoin:round; stroke-width:4; stroke-opacity:1; fill:none" points="1629,1423.18 1629,1442.08 "/>
<polyline clip-path="url(#clip060)" style="stroke:#000000; stroke-linecap:round; stroke-linejoin:round; stroke-width:4; stroke-opacity:1; fill:none" points="2095.37,1423.18 2095.37,1442.08 "/>
<path clip-path="url(#clip060)" d="M224.558 1491.24 L240.877 1491.24 L240.877 1495.18 L218.933 1495.18 L218.933 1491.24 Q221.595 1488.49 226.178 1483.86 Q230.785 1479.21 231.965 1477.87 Q234.211 1475.34 235.09 1473.61 Q235.993 1471.85 235.993 1470.16 Q235.993 1467.4 234.049 1465.67 Q232.127 1463.93 229.026 1463.93 Q226.826 1463.93 224.373 1464.69 Q221.942 1465.46 219.164 1467.01 L219.164 1462.29 Q221.989 1461.15 224.442 1460.57 Q226.896 1459.99 228.933 1459.99 Q234.303 1459.99 237.498 1462.68 Q240.692 1465.37 240.692 1469.86 Q240.692 1471.99 239.882 1473.91 Q239.095 1475.8 236.988 1478.4 Q236.41 1479.07 233.308 1482.29 Q230.206 1485.48 224.558 1491.24 Z" fill="#000000" fill-rule="nonzero" fill-opacity="1" /><path clip-path="url(#clip060)" d="M699.28 1464.69 L687.475 1483.14 L699.28 1483.14 L699.28 1464.69 M698.053 1460.62 L703.933 1460.62 L703.933 1483.14 L708.864 1483.14 L708.864 1487.03 L703.933 1487.03 L703.933 1495.18 L699.28 1495.18 L699.28 1487.03 L683.678 1487.03 L683.678 1482.52 L698.053 1460.62 Z" fill="#000000" fill-rule="nonzero" fill-opacity="1" /><path clip-path="url(#clip060)" d="M1163.04 1476.04 Q1159.89 1476.04 1158.04 1478.19 Q1156.21 1480.34 1156.21 1484.09 Q1156.21 1487.82 1158.04 1489.99 Q1159.89 1492.15 1163.04 1492.15 Q1166.19 1492.15 1168.02 1489.99 Q1169.87 1487.82 1169.87 1484.09 Q1169.87 1480.34 1168.02 1478.19 Q1166.19 1476.04 1163.04 1476.04 M1172.32 1461.38 L1172.32 1465.64 Q1170.57 1464.81 1168.76 1464.37 Q1166.98 1463.93 1165.22 1463.93 Q1160.59 1463.93 1158.13 1467.05 Q1155.7 1470.18 1155.36 1476.5 Q1156.72 1474.49 1158.78 1473.42 Q1160.84 1472.33 1163.32 1472.33 Q1168.53 1472.33 1171.54 1475.5 Q1174.57 1478.65 1174.57 1484.09 Q1174.57 1489.42 1171.42 1492.63 Q1168.27 1495.85 1163.04 1495.85 Q1157.05 1495.85 1153.88 1491.27 Q1150.7 1486.66 1150.7 1477.93 Q1150.7 1469.74 1154.59 1464.88 Q1158.48 1459.99 1165.03 1459.99 Q1166.79 1459.99 1168.57 1460.34 Q1170.38 1460.69 1172.32 1461.38 Z" fill="#000000" fill-rule="nonzero" fill-opacity="1" /><path clip-path="url(#clip060)" d="M1629 1478.77 Q1625.67 1478.77 1623.75 1480.55 Q1621.85 1482.33 1621.85 1485.46 Q1621.85 1488.58 1623.75 1490.37 Q1625.67 1492.15 1629 1492.15 Q1632.34 1492.15 1634.26 1490.37 Q1636.18 1488.56 1636.18 1485.46 Q1636.18 1482.33 1634.26 1480.55 Q1632.36 1478.77 1629 1478.77 M1624.33 1476.78 Q1621.32 1476.04 1619.63 1473.98 Q1617.96 1471.92 1617.96 1468.95 Q1617.96 1464.81 1620.9 1462.4 Q1623.86 1459.99 1629 1459.99 Q1634.16 1459.99 1637.1 1462.4 Q1640.04 1464.81 1640.04 1468.95 Q1640.04 1471.92 1638.35 1473.98 Q1636.69 1476.04 1633.7 1476.78 Q1637.08 1477.56 1638.96 1479.86 Q1640.85 1482.15 1640.85 1485.46 Q1640.85 1490.48 1637.78 1493.17 Q1634.72 1495.85 1629 1495.85 Q1623.29 1495.85 1620.21 1493.17 Q1617.15 1490.48 1617.15 1485.46 Q1617.15 1482.15 1619.05 1479.86 Q1620.95 1477.56 1624.33 1476.78 M1622.61 1469.39 Q1622.61 1472.08 1624.28 1473.58 Q1625.97 1475.09 1629 1475.09 Q1632.01 1475.09 1633.7 1473.58 Q1635.41 1472.08 1635.41 1469.39 Q1635.41 1466.71 1633.7 1465.2 Q1632.01 1463.7 1629 1463.7 Q1625.97 1463.7 1624.28 1465.2 Q1622.61 1466.71 1622.61 1469.39 Z" fill="#000000" fill-rule="nonzero" fill-opacity="1" /><path clip-path="url(#clip060)" d="M2070.06 1491.24 L2077.69 1491.24 L2077.69 1464.88 L2069.38 1466.55 L2069.38 1462.29 L2077.65 1460.62 L2082.32 1460.62 L2082.32 1491.24 L2089.96 1491.24 L2089.96 1495.18 L2070.06 1495.18 L2070.06 1491.24 Z" fill="#000000" fill-rule="nonzero" fill-opacity="1" /><path clip-path="url(#clip060)" d="M2109.41 1463.7 Q2105.8 1463.7 2103.97 1467.26 Q2102.16 1470.8 2102.16 1477.93 Q2102.16 1485.04 2103.97 1488.61 Q2105.8 1492.15 2109.41 1492.15 Q2113.04 1492.15 2114.85 1488.61 Q2116.68 1485.04 2116.68 1477.93 Q2116.68 1470.8 2114.85 1467.26 Q2113.04 1463.7 2109.41 1463.7 M2109.41 1459.99 Q2115.22 1459.99 2118.27 1464.6 Q2121.35 1469.18 2121.35 1477.93 Q2121.35 1486.66 2118.27 1491.27 Q2115.22 1495.85 2109.41 1495.85 Q2103.6 1495.85 2100.52 1491.27 Q2097.46 1486.66 2097.46 1477.93 Q2097.46 1469.18 2100.52 1464.6 Q2103.6 1459.99 2109.41 1459.99 Z" fill="#000000" fill-rule="nonzero" fill-opacity="1" /><path clip-path="url(#clip060)" d="M1153.95 1511.39 Q1153.95 1512 1153.82 1512.52 L1152.01 1523.98 Q1151.92 1524.85 1151.72 1525.18 Q1151.56 1525.5 1151.05 1525.5 Q1150.24 1525.5 1150.24 1524.66 Q1150.24 1524.18 1150.44 1523.4 Q1150.98 1519.77 1150.98 1518.12 Q1150.98 1517.03 1150.76 1516.22 Q1150.56 1515.39 1150.24 1514.81 Q1149.95 1514.23 1149.28 1513.84 Q1148.6 1513.45 1147.96 1513.23 Q1147.31 1513 1146.15 1512.91 Q1144.99 1512.78 1143.99 1512.74 Q1143 1512.71 1141.35 1512.71 Q1137.78 1512.71 1137.2 1512.84 Q1136.59 1513 1136.27 1513.49 Q1135.98 1513.94 1135.65 1515.29 L1126.89 1550.3 L1126.64 1551.68 Q1126.64 1552.45 1127.12 1552.71 Q1127.6 1552.97 1129.08 1553.13 Q1131.21 1553.29 1133.3 1553.29 Q1133.37 1553.29 1133.5 1553.29 Q1134.2 1553.29 1134.49 1553.32 Q1134.78 1553.32 1135.07 1553.39 Q1135.36 1553.45 1135.43 1553.61 Q1135.52 1553.74 1135.52 1554 Q1135.52 1554.61 1135.27 1554.93 Q1135.01 1555.22 1134.75 1555.29 Q1134.53 1555.32 1134.08 1555.32 Q1133.17 1555.32 1131.24 1555.26 Q1129.31 1555.19 1128.34 1555.19 L1122.87 1555.13 L1117.26 1555.19 Q1116.39 1555.19 1114.56 1555.26 Q1112.72 1555.32 1111.85 1555.32 Q1110.73 1555.32 1110.73 1554.52 Q1110.73 1553.61 1111.14 1553.45 Q1111.6 1553.29 1113.5 1553.29 Q1116.17 1553.29 1117.62 1553.16 Q1119.07 1553.03 1119.84 1552.58 Q1120.65 1552.13 1120.87 1551.68 Q1121.1 1551.2 1121.35 1550.1 L1130.21 1514.9 Q1130.47 1514.13 1130.47 1513.52 Q1130.47 1513.2 1130.37 1513.07 Q1130.31 1512.94 1129.89 1512.84 Q1129.47 1512.71 1128.6 1512.71 L1126.02 1512.71 Q1123.38 1512.71 1121.74 1512.84 Q1120.13 1512.94 1118.58 1513.42 Q1117.07 1513.9 1116.17 1514.58 Q1115.3 1515.26 1114.33 1516.64 Q1113.37 1518.03 1112.66 1519.7 Q1111.98 1521.38 1111.02 1524.11 Q1110.69 1525.01 1110.5 1525.27 Q1110.34 1525.5 1109.89 1525.5 Q1109.57 1525.5 1109.31 1525.3 Q1109.08 1525.08 1109.08 1524.79 Q1109.41 1523.73 1109.47 1523.6 L1113.43 1511.97 Q1113.75 1511.04 1114.04 1510.88 Q1114.37 1510.68 1115.56 1510.68 L1152.14 1510.68 Q1152.72 1510.68 1152.92 1510.68 Q1153.11 1510.68 1153.43 1510.75 Q1153.75 1510.81 1153.85 1510.97 Q1153.95 1511.13 1153.95 1511.39 Z" fill="#000000" fill-rule="nonzero" fill-opacity="1" /><path clip-path="url(#clip060)" d="M1181.69 1560.84 Q1181.08 1563.75 1180.29 1565.42 Q1179.03 1567.97 1176.89 1567.97 Q1175.27 1567.97 1174.12 1566.97 Q1172.97 1565.98 1172.7 1564.49 Q1169.74 1567.97 1166.68 1567.97 Q1163.97 1567.97 1162.26 1565.91 Q1160.55 1563.84 1160.55 1560.57 Q1160.55 1557.28 1162.17 1554.12 Q1163.81 1550.97 1166.41 1549.01 Q1169 1547.05 1171.66 1547.05 Q1174.48 1547.05 1175.92 1550 Q1176.03 1549.19 1176.55 1548.58 Q1177.07 1547.97 1177.86 1547.97 Q1178.47 1547.97 1178.83 1548.31 Q1179.19 1548.62 1179.19 1549.21 Q1179.19 1549.5 1178.87 1550.79 L1177.21 1557.24 L1176.19 1561.41 Q1175.81 1562.94 1175.7 1563.5 Q1175.6 1564.07 1175.6 1564.81 Q1175.6 1566.93 1176.98 1566.93 Q1177.66 1566.93 1178.2 1566.5 Q1178.74 1566.07 1179.17 1565.17 Q1179.6 1564.27 1179.87 1563.44 Q1180.14 1562.58 1180.5 1561.23 Q1180.61 1560.68 1180.7 1560.55 Q1180.81 1560.39 1181.13 1560.39 Q1181.69 1560.39 1181.69 1560.84 M1175.36 1552.12 Q1175.36 1551.92 1175.2 1551.35 Q1175.04 1550.79 1174.68 1550 Q1174.32 1549.21 1173.53 1548.65 Q1172.76 1548.06 1171.73 1548.06 Q1170.33 1548.06 1168.86 1549.25 Q1167.42 1550.45 1166.36 1552.48 Q1165.55 1554.1 1164.67 1557.51 Q1163.81 1560.91 1163.81 1562.6 Q1163.81 1563.64 1164.04 1564.56 Q1164.29 1565.46 1164.99 1566.21 Q1165.69 1566.93 1166.77 1566.93 Q1169.41 1566.93 1172 1563.66 Q1172.49 1563.1 1172.61 1562.87 Q1172.74 1562.62 1172.92 1561.95 L1175.22 1552.91 Q1175.36 1552.23 1175.36 1552.12 Z" fill="#000000" fill-rule="nonzero" fill-opacity="1" /><path clip-path="url(#clip060)" d="M1189.46 1546.61 Q1188.53 1545.55 1188.53 1544.16 Q1188.53 1542.78 1189.43 1541.75 Q1190.37 1540.68 1192.04 1540.68 Q1194.01 1540.68 1195.13 1542.58 Q1196.26 1544.45 1196.26 1547.61 Q1196.26 1551.02 1194.88 1554.18 Q1193.49 1557.37 1192.14 1558.88 Q1190.79 1560.39 1190.24 1560.39 Q1189.59 1560.39 1189.59 1559.69 Q1189.59 1559.43 1190.04 1558.94 Q1194.78 1553.86 1194.81 1547.61 Q1194.81 1546.61 1194.68 1546.61 L1194.52 1546.74 Q1193.39 1547.67 1192.04 1547.67 Q1190.4 1547.67 1189.46 1546.61 Z" fill="#000000" fill-rule="nonzero" fill-opacity="1" /><path clip-path="url(#clip060)" d="M1242.49 1540.04 Q1242.74 1540.33 1242.74 1540.62 Q1242.74 1540.91 1242.1 1541.75 Q1241.49 1542.58 1240.17 1543.71 Q1238.85 1544.84 1237.14 1545.9 Q1235.43 1546.96 1232.92 1547.67 Q1230.41 1548.41 1227.77 1548.41 Q1222.84 1548.41 1219.94 1545.16 Q1217.08 1541.91 1217.08 1537.24 Q1217.08 1532.7 1219.62 1528.35 Q1222.16 1523.97 1226.29 1521.26 Q1230.41 1518.53 1234.76 1518.53 Q1238.2 1518.53 1240.36 1520.14 Q1242.52 1521.75 1242.52 1524.19 Q1242.52 1526.09 1241.42 1527.25 Q1240.33 1528.41 1238.85 1528.41 Q1237.82 1528.41 1237.11 1527.83 Q1236.4 1527.22 1236.4 1526.09 Q1236.4 1524.65 1237.59 1523.52 Q1238.04 1523.07 1238.56 1522.87 Q1239.1 1522.65 1239.43 1522.65 Q1239.75 1522.62 1240.49 1522.62 Q1239.81 1521.36 1238.2 1520.68 Q1236.62 1519.98 1234.82 1519.98 Q1232.15 1519.98 1229.6 1521.84 Q1227.06 1523.68 1225.51 1526.58 Q1223.97 1529.41 1222.97 1533.44 Q1221.97 1537.43 1221.97 1539.75 Q1221.97 1542.94 1223.45 1544.93 Q1224.93 1546.93 1227.9 1546.93 Q1228.48 1546.93 1229.09 1546.9 Q1229.73 1546.87 1231.34 1546.51 Q1232.99 1546.16 1234.43 1545.55 Q1235.88 1544.93 1237.72 1543.61 Q1239.59 1542.26 1241.07 1540.43 Q1241.58 1539.75 1241.94 1539.75 Q1242.23 1539.75 1242.49 1540.04 Z" fill="#000000" fill-rule="nonzero" fill-opacity="1" /><polyline clip-path="url(#clip060)" style="stroke:#000000; stroke-linecap:round; stroke-linejoin:round; stroke-width:4; stroke-opacity:1; fill:none" points="203.964,1423.18 203.964,47.2441 "/>
<polyline clip-path="url(#clip060)" style="stroke:#000000; stroke-linecap:round; stroke-linejoin:round; stroke-width:4; stroke-opacity:1; fill:none" points="203.964,1302.33 185.066,1302.33 "/>
<polyline clip-path="url(#clip060)" style="stroke:#000000; stroke-linecap:round; stroke-linejoin:round; stroke-width:4; stroke-opacity:1; fill:none" points="203.964,998.294 185.066,998.294 "/>
<polyline clip-path="url(#clip060)" style="stroke:#000000; stroke-linecap:round; stroke-linejoin:round; stroke-width:4; stroke-opacity:1; fill:none" points="203.964,694.258 185.066,694.258 "/>
<polyline clip-path="url(#clip060)" style="stroke:#000000; stroke-linecap:round; stroke-linejoin:round; stroke-width:4; stroke-opacity:1; fill:none" points="203.964,390.222 185.066,390.222 "/>
<polyline clip-path="url(#clip060)" style="stroke:#000000; stroke-linecap:round; stroke-linejoin:round; stroke-width:4; stroke-opacity:1; fill:none" points="203.964,86.1857 185.066,86.1857 "/>
<path clip-path="url(#clip060)" d="M98.6676 1315.67 L106.306 1315.67 L106.306 1289.31 L97.9963 1290.98 L97.9963 1286.72 L106.26 1285.05 L110.936 1285.05 L110.936 1315.67 L118.575 1315.67 L118.575 1319.61 L98.6676 1319.61 L98.6676 1315.67 Z" fill="#000000" fill-rule="nonzero" fill-opacity="1" /><path clip-path="url(#clip060)" d="M138.019 1288.13 Q134.408 1288.13 132.579 1291.69 Q130.774 1295.24 130.774 1302.36 Q130.774 1309.47 132.579 1313.04 Q134.408 1316.58 138.019 1316.58 Q141.653 1316.58 143.459 1313.04 Q145.288 1309.47 145.288 1302.36 Q145.288 1295.24 143.459 1291.69 Q141.653 1288.13 138.019 1288.13 M138.019 1284.42 Q143.829 1284.42 146.885 1289.03 Q149.964 1293.61 149.964 1302.36 Q149.964 1311.09 146.885 1315.7 Q143.829 1320.28 138.019 1320.28 Q132.209 1320.28 129.13 1315.7 Q126.075 1311.09 126.075 1302.36 Q126.075 1293.61 129.13 1289.03 Q132.209 1284.42 138.019 1284.42 Z" fill="#000000" fill-rule="nonzero" fill-opacity="1" /><path clip-path="url(#clip060)" d="M99.6629 1011.64 L107.302 1011.64 L107.302 985.273 L98.9916 986.94 L98.9916 982.68 L107.255 981.014 L111.931 981.014 L111.931 1011.64 L119.57 1011.64 L119.57 1015.57 L99.6629 1015.57 L99.6629 1011.64 Z" fill="#000000" fill-rule="nonzero" fill-opacity="1" /><path clip-path="url(#clip060)" d="M129.061 981.014 L147.417 981.014 L147.417 984.949 L133.343 984.949 L133.343 993.421 Q134.362 993.074 135.38 992.912 Q136.399 992.727 137.417 992.727 Q143.204 992.727 146.584 995.898 Q149.964 999.069 149.964 1004.49 Q149.964 1010.06 146.491 1013.17 Q143.019 1016.25 136.7 1016.25 Q134.524 1016.25 132.255 1015.87 Q130.01 1015.5 127.603 1014.76 L127.603 1010.06 Q129.686 1011.2 131.908 1011.75 Q134.13 1012.31 136.607 1012.31 Q140.612 1012.31 142.95 1010.2 Q145.288 1008.1 145.288 1004.49 Q145.288 1000.87 142.95 998.768 Q140.612 996.662 136.607 996.662 Q134.732 996.662 132.857 997.079 Q131.005 997.495 129.061 998.375 L129.061 981.014 Z" fill="#000000" fill-rule="nonzero" fill-opacity="1" /><path clip-path="url(#clip060)" d="M101.885 707.603 L118.204 707.603 L118.204 711.538 L96.2602 711.538 L96.2602 707.603 Q98.9222 704.848 103.505 700.218 Q108.112 695.566 109.292 694.223 Q111.538 691.7 112.417 689.964 Q113.32 688.205 113.32 686.515 Q113.32 683.76 111.376 682.024 Q109.455 680.288 106.353 680.288 Q104.154 680.288 101.7 681.052 Q99.2694 681.816 96.4916 683.367 L96.4916 678.644 Q99.3157 677.51 101.769 676.931 Q104.223 676.353 106.26 676.353 Q111.63 676.353 114.825 679.038 Q118.019 681.723 118.019 686.214 Q118.019 688.343 117.209 690.265 Q116.422 692.163 114.316 694.755 Q113.737 695.427 110.635 698.644 Q107.533 701.839 101.885 707.603 Z" fill="#000000" fill-rule="nonzero" fill-opacity="1" /><path clip-path="url(#clip060)" d="M138.019 680.056 Q134.408 680.056 132.579 683.621 Q130.774 687.163 130.774 694.293 Q130.774 701.399 132.579 704.964 Q134.408 708.505 138.019 708.505 Q141.653 708.505 143.459 704.964 Q145.288 701.399 145.288 694.293 Q145.288 687.163 143.459 683.621 Q141.653 680.056 138.019 680.056 M138.019 676.353 Q143.829 676.353 146.885 680.959 Q149.964 685.543 149.964 694.293 Q149.964 703.019 146.885 707.626 Q143.829 712.209 138.019 712.209 Q132.209 712.209 129.13 707.626 Q126.075 703.019 126.075 694.293 Q126.075 685.543 129.13 680.959 Q132.209 676.353 138.019 676.353 Z" fill="#000000" fill-rule="nonzero" fill-opacity="1" /><path clip-path="url(#clip060)" d="M102.88 403.567 L119.2 403.567 L119.2 407.502 L97.2555 407.502 L97.2555 403.567 Q99.9175 400.812 104.501 396.182 Q109.107 391.53 110.288 390.187 Q112.533 387.664 113.413 385.928 Q114.316 384.169 114.316 382.479 Q114.316 379.724 112.371 377.988 Q110.45 376.252 107.348 376.252 Q105.149 376.252 102.695 377.016 Q100.265 377.78 97.487 379.331 L97.487 374.608 Q100.311 373.474 102.765 372.895 Q105.218 372.317 107.255 372.317 Q112.626 372.317 115.82 375.002 Q119.015 377.687 119.015 382.178 Q119.015 384.307 118.204 386.229 Q117.417 388.127 115.311 390.719 Q114.732 391.391 111.63 394.608 Q108.529 397.803 102.88 403.567 Z" fill="#000000" fill-rule="nonzero" fill-opacity="1" /><path clip-path="url(#clip060)" d="M129.061 372.942 L147.417 372.942 L147.417 376.877 L133.343 376.877 L133.343 385.349 Q134.362 385.002 135.38 384.84 Q136.399 384.655 137.417 384.655 Q143.204 384.655 146.584 387.826 Q149.964 390.997 149.964 396.414 Q149.964 401.992 146.491 405.094 Q143.019 408.173 136.7 408.173 Q134.524 408.173 132.255 407.803 Q130.01 407.432 127.603 406.692 L127.603 401.992 Q129.686 403.127 131.908 403.682 Q134.13 404.238 136.607 404.238 Q140.612 404.238 142.95 402.131 Q145.288 400.025 145.288 396.414 Q145.288 392.803 142.95 390.696 Q140.612 388.59 136.607 388.59 Q134.732 388.59 132.857 389.006 Q131.005 389.423 129.061 390.303 L129.061 372.942 Z" fill="#000000" fill-rule="nonzero" fill-opacity="1" /><path clip-path="url(#clip060)" d="M112.024 84.8315 Q115.38 85.5491 117.255 87.8176 Q119.154 90.0861 119.154 93.4194 Q119.154 98.5351 115.635 101.336 Q112.117 104.137 105.635 104.137 Q103.459 104.137 101.144 103.697 Q98.8527 103.28 96.399 102.424 L96.399 97.9101 Q98.3435 99.0444 100.658 99.6231 Q102.973 100.202 105.496 100.202 Q109.894 100.202 112.186 98.4657 Q114.501 96.7296 114.501 93.4194 Q114.501 90.3639 112.348 88.6509 Q110.218 86.9148 106.399 86.9148 L102.371 86.9148 L102.371 83.0723 L106.584 83.0723 Q110.033 83.0723 111.862 81.7065 Q113.691 80.3176 113.691 77.7251 Q113.691 75.063 111.792 73.651 Q109.917 72.2158 106.399 72.2158 Q104.478 72.2158 102.279 72.6325 Q100.08 73.0492 97.4407 73.9288 L97.4407 69.7621 Q100.103 69.0214 102.418 68.651 Q104.755 68.2807 106.816 68.2807 Q112.14 68.2807 115.242 70.7112 Q118.343 73.1186 118.343 77.239 Q118.343 80.1093 116.7 82.1 Q115.056 84.0676 112.024 84.8315 Z" fill="#000000" fill-rule="nonzero" fill-opacity="1" /><path clip-path="url(#clip060)" d="M138.019 71.9844 Q134.408 71.9844 132.579 75.5492 Q130.774 79.0908 130.774 86.2204 Q130.774 93.3268 132.579 96.8916 Q134.408 100.433 138.019 100.433 Q141.653 100.433 143.459 96.8916 Q145.288 93.3268 145.288 86.2204 Q145.288 79.0908 143.459 75.5492 Q141.653 71.9844 138.019 71.9844 M138.019 68.2807 Q143.829 68.2807 146.885 72.8871 Q149.964 77.4704 149.964 86.2204 Q149.964 94.9472 146.885 99.5537 Q143.829 104.137 138.019 104.137 Q132.209 104.137 129.13 99.5537 Q126.075 94.9472 126.075 86.2204 Q126.075 77.4704 129.13 72.8871 Q132.209 68.2807 138.019 68.2807 Z" fill="#000000" fill-rule="nonzero" fill-opacity="1" /><path clip-path="url(#clip060)" d="M36.1996 771.925 Q37.1013 771.925 37.3268 772.343 Q37.52 772.762 37.52 773.921 L37.52 780.105 L56.9723 785 Q58.6792 785.387 60.1285 785.387 Q61.7388 785.387 62.4473 784.904 Q63.1559 784.388 63.1559 783.325 Q63.1559 781.232 61.2557 778.978 Q59.3556 776.691 54.7179 774.759 Q54.106 774.501 53.9772 774.372 Q53.8162 774.211 53.8162 773.793 Q53.8162 772.987 54.4603 772.987 Q54.6857 772.987 55.7163 773.438 Q56.7469 773.857 58.2606 774.791 Q59.7742 775.693 61.1913 776.884 Q62.6084 778.044 63.6389 779.815 Q64.6373 781.586 64.6373 783.487 Q64.6373 786.16 62.9304 787.867 Q61.2235 789.541 58.5504 789.541 Q57.6809 789.541 54.9112 788.865 Q52.1092 788.189 37.52 784.517 L37.52 790.346 Q37.52 791.152 37.4878 791.474 Q37.4556 791.763 37.2946 791.989 Q37.1013 792.182 36.7148 792.182 Q36.1029 792.182 35.8453 791.924 Q35.5554 791.667 35.5232 791.345 Q35.4588 790.99 35.4588 790.185 L35.4588 784.002 L24.9919 781.425 Q23.9613 781.168 23.3816 780.524 Q22.7697 779.847 22.7053 779.461 Q22.6087 779.074 22.6087 778.784 Q22.6087 777.915 23.0918 777.4 Q23.5427 776.884 24.38 776.884 Q24.8309 776.884 35.4588 779.59 L35.4588 773.793 Q35.4588 773.052 35.491 772.762 Q35.5232 772.44 35.6843 772.182 Q35.8453 771.925 36.1996 771.925 Z" fill="#000000" fill-rule="nonzero" fill-opacity="1" /><path clip-path="url(#clip060)" d="M76.4369 765.08 L75.3773 765.08 L75.3773 764.696 Q75.3773 762.667 74.9941 762.081 Q74.5883 761.473 73.2582 761.473 L59.7317 761.473 Q58.4016 761.518 57.9958 762.126 Q57.59 762.712 57.59 764.741 L57.59 765.08 L56.5756 765.08 L56.5756 741.859 L57.59 741.859 L57.59 742.175 Q57.59 744.249 57.9958 744.835 Q58.3791 745.399 59.7317 745.444 L73.2582 745.444 Q74.5883 745.399 74.9941 744.835 Q75.3773 744.249 75.3773 742.22 L75.3773 741.859 L76.4369 741.859 Q76.3016 744.542 76.3016 747.202 L76.3016 747.382 Q76.3016 749.547 76.4369 752.229 L75.3773 752.229 L75.3773 751.959 Q75.3773 749.659 74.9039 749.163 Q74.4079 748.645 72.6495 748.645 Q72.4691 748.645 72.0634 748.667 Q71.635 748.69 71.4547 748.69 L59.6866 748.69 Q58.3114 748.69 57.9507 749.096 Q57.59 749.479 57.59 750.99 L57.59 756.49 Q57.59 757.55 57.9733 757.888 Q58.334 758.204 59.3485 758.249 L73.2582 758.249 Q74.5883 758.204 74.9941 757.618 Q75.3773 757.031 75.3773 755.002 L75.3773 754.687 L76.4369 754.687 Q76.3016 757.37 76.3016 760.052 L76.3016 760.233 Q76.3016 762.397 76.4369 765.08 Z" fill="#000000" fill-rule="nonzero" fill-opacity="1" /><path clip-path="url(#clip060)" d="M62.8338 734.115 Q61.771 735.049 60.3862 735.049 Q59.0013 735.049 57.9707 734.147 Q56.9079 733.213 56.9079 731.539 Q56.9079 729.574 58.8081 728.447 Q60.676 727.32 63.8322 727.32 Q67.246 727.32 70.4022 728.704 Q73.5906 730.089 75.1042 731.442 Q76.6179 732.795 76.6179 733.342 Q76.6179 733.986 75.9094 733.986 Q75.6517 733.986 75.1686 733.535 Q70.0801 728.801 63.8322 728.769 Q62.8338 728.769 62.8338 728.898 L62.9626 729.059 Q63.8966 730.186 63.8966 731.539 Q63.8966 733.181 62.8338 734.115 Z" fill="#000000" fill-rule="nonzero" fill-opacity="1" /><path clip-path="url(#clip060)" d="M56.2638 681.093 Q56.5537 680.836 56.8435 680.836 Q57.1334 680.836 57.9707 681.48 Q58.8081 682.092 59.9353 683.412 Q61.0625 684.733 62.1253 686.44 Q63.1881 688.147 63.8966 690.659 Q64.6373 693.171 64.6373 695.812 Q64.6373 700.739 61.3845 703.638 Q58.1317 706.504 53.4619 706.504 Q48.9209 706.504 44.5731 703.96 Q40.1931 701.415 37.4878 697.293 Q34.7503 693.171 34.7503 688.823 Q34.7503 685.377 36.3606 683.219 Q37.9709 681.061 40.4185 681.061 Q42.3187 681.061 43.4781 682.156 Q44.6375 683.251 44.6375 684.733 Q44.6375 685.763 44.0578 686.472 Q43.4459 687.18 42.3187 687.18 Q40.8694 687.18 39.7422 685.989 Q39.2913 685.538 39.0981 685.023 Q38.8726 684.475 38.8726 684.153 Q38.8404 683.831 38.8404 683.09 Q37.5844 683.767 36.9081 685.377 Q36.1996 686.955 36.1996 688.758 Q36.1996 691.432 38.0675 693.976 Q39.9032 696.52 42.8018 698.066 Q45.6359 699.612 49.6616 700.61 Q53.6551 701.609 55.974 701.609 Q59.1623 701.609 61.1591 700.127 Q63.1559 698.646 63.1559 695.683 Q63.1559 695.103 63.1237 694.491 Q63.0914 693.847 62.7372 692.237 Q62.3829 690.594 61.771 689.145 Q61.1591 687.696 59.8387 685.86 Q58.486 683.992 56.6503 682.511 Q55.974 681.995 55.974 681.641 Q55.974 681.351 56.2638 681.093 Z" fill="#000000" fill-rule="nonzero" fill-opacity="1" /><polyline clip-path="url(#clip062)" style="stroke:#ff0000; stroke-linecap:round; stroke-linejoin:round; stroke-width:4; stroke-opacity:1; fill:none" points="259.053,90.387 271.377,99.2414 283.702,88.5016 296.026,86.9093 308.35,86.1857 320.674,86.1857 332.999,88.4706 345.323,104.524 357.647,93.3282 369.971,91.8754 382.296,86.1857 394.62,92.1544 406.944,92.4394 419.268,171.555 431.593,154.453 443.917,126.08 456.241,134.16 468.566,118.928 480.89,112.978 493.214,120.232 505.538,354.271 517.863,457.44 530.187,447.329 542.511,439.396 554.835,431.378 567.16,423.718 579.484,444.086 591.808,641.964 604.132,657.106 616.457,649.246 628.781,651.136 641.105,752.157 653.43,756.999 665.754,761.983 678.078,747.489 690.402,863.45 702.727,866.856 715.051,855.075 727.375,864.231 739.699,969.263 752.024,965.421 764.348,971.134 776.672,952.068 788.996,965.591 801.321,965.645 813.645,963.212 825.969,959.572 838.293,1070.9 850.618,1064.75 862.942,1057.32 875.266,1050.57 887.591,1066.36 899.915,1059.27 912.239,1052.95 924.563,1064.56 936.888,1046.9 949.212,1064.09 961.536,1050.44 973.86,1067.17 986.185,1169.18 998.509,1164.35 1010.83,1165.2 1023.16,1153.89 1035.48,1168.24 1047.81,1151.82 1060.13,1163.67 1072.45,1158.53 1084.78,1154.35 1097.1,1150.15 1109.43,1146.26 1121.75,1164.61 1134.08,1163.01 1146.4,1158.75 1158.72,1162.2 1171.05,1173.47 1183.37,1285.59 1195.7,1274.06 1208.02,1280.23 1220.35,1278.15 1232.67,1274.99 1244.99,1262.6 1257.32,1259.92 1269.64,1257.05 1281.97,1254.82 1294.29,1252.71 1306.62,1270.36 1318.94,1254.69 1331.26,1267.67 1343.59,1263.51 1355.91,1247.82 1368.24,1257.22 1380.56,1253.37 1392.89,1250.81 1405.21,1249.07 1417.53,1245.96 1429.86,1254.57 1442.18,1243.21 1454.51,1265.58 1466.83,1260.2 1479.16,1256.66 1491.48,1254.06 1503.8,1252.76 1516.13,1264.2 1528.45,1248.95 1540.78,1259.88 1553.1,1374.78 1565.43,1384.24 1577.75,1382.94 1590.07,1381.43 1602.4,1378.68 1614.72,1378.55 1627.05,1374.38 1639.37,1375.25 1651.69,1373.92 1664.02,1361.41 1676.34,1368.14 1688.67,1358.39 1700.99,1364.94 1713.32,1364.96 1725.64,1363.13 1737.96,1374.44 1750.29,1360.08 1762.61,1372.21 1774.94,1354.63 1787.26,1369.85 1799.59,1352.87 1811.91,1350.41 1824.23,1348.78 1836.56,1347.14 1848.88,1345.67 1861.21,1359.64 1873.53,1344.89 1885.86,1347.92 1898.18,1365.7 1910.5,1364.29 1922.83,1363.7 1935.15,1352.77 1947.48,1350.69 1959.8,1359.1 1972.13,1357.74 1984.45,1354.64 1996.77,1353.47 2009.1,1352.05 2021.42,1351.98 2033.75,1349.37 2046.07,1340.84 2058.4,1345.37 2070.72,1345.08 2083.04,1343.75 2095.37,1341.19 "/>
<path clip-path="url(#clip060)" d="M268.847 806.996 L505.027 806.996 L505.027 703.316 L268.847 703.316  Z" fill="#ffffff" fill-rule="evenodd" fill-opacity="1"/>
<polyline clip-path="url(#clip060)" style="stroke:#000000; stroke-linecap:round; stroke-linejoin:round; stroke-width:4; stroke-opacity:1; fill:none" points="268.847,806.996 505.027,806.996 505.027,703.316 268.847,703.316 268.847,806.996 "/>
<polyline clip-path="url(#clip060)" style="stroke:#ff0000; stroke-linecap:round; stroke-linejoin:round; stroke-width:4; stroke-opacity:1; fill:none" points="290.474,755.156 420.241,755.156 "/>
<path clip-path="url(#clip060)" d="M456.601 745.323 Q456.601 745.979 456.297 746.143 Q455.992 746.283 455.149 746.283 L450.652 746.283 L447.092 760.43 Q446.811 761.672 446.811 762.726 Q446.811 763.897 447.162 764.412 Q447.537 764.927 448.31 764.927 Q449.832 764.927 451.472 763.546 Q453.135 762.164 454.54 758.791 Q454.727 758.346 454.821 758.252 Q454.938 758.135 455.243 758.135 Q455.828 758.135 455.828 758.603 Q455.828 758.767 455.5 759.517 Q455.196 760.266 454.517 761.367 Q453.861 762.468 452.994 763.499 Q452.151 764.529 450.863 765.279 Q449.574 766.005 448.193 766.005 Q446.248 766.005 445.007 764.764 Q443.789 763.522 443.789 761.578 Q443.789 760.946 444.281 758.931 Q444.773 756.894 447.443 746.283 L443.204 746.283 Q442.618 746.283 442.384 746.26 Q442.173 746.236 442.009 746.119 Q441.868 745.979 441.868 745.698 Q441.868 745.253 442.056 745.065 Q442.243 744.854 442.477 744.831 Q442.735 744.784 443.321 744.784 L447.818 744.784 L449.692 737.172 Q449.879 736.422 450.347 736.001 Q450.839 735.556 451.12 735.509 Q451.401 735.439 451.612 735.439 Q452.245 735.439 452.619 735.79 Q452.994 736.118 452.994 736.727 Q452.994 737.055 451.027 744.784 L455.243 744.784 Q455.781 744.784 455.992 744.808 Q456.226 744.831 456.414 744.948 Q456.601 745.065 456.601 745.323 Z" fill="#000000" fill-rule="nonzero" fill-opacity="1" /><path clip-path="url(#clip060)" d="M461.567 774.581 L461.567 773.811 L461.845 773.811 Q463.321 773.811 463.747 773.532 Q464.19 773.237 464.19 772.269 L464.19 762.432 Q464.157 761.465 463.714 761.169 Q463.288 760.874 461.813 760.874 L461.567 760.874 L461.567 760.137 L478.454 760.137 L478.454 760.874 L478.225 760.874 Q476.716 760.874 476.29 761.169 Q475.88 761.448 475.847 762.432 L475.847 772.269 Q475.88 773.237 476.29 773.532 Q476.716 773.811 478.192 773.811 L478.454 773.811 L478.454 774.581 Q476.503 774.483 474.568 774.483 L474.437 774.483 Q472.863 774.483 470.912 774.581 L470.912 773.811 L471.109 773.811 Q472.781 773.811 473.142 773.466 Q473.519 773.106 473.519 771.827 Q473.519 771.696 473.503 771.4 Q473.486 771.089 473.486 770.958 L473.486 762.399 Q473.486 761.399 473.191 761.137 Q472.912 760.874 471.814 760.874 L467.813 760.874 Q467.043 760.874 466.797 761.153 Q466.567 761.415 466.534 762.153 L466.534 772.269 Q466.567 773.237 466.994 773.532 Q467.42 773.811 468.895 773.811 L469.125 773.811 L469.125 774.581 Q467.174 774.483 465.223 774.483 L465.092 774.483 Q463.518 774.483 461.567 774.581 Z" fill="#000000" fill-rule="nonzero" fill-opacity="1" /><polyline clip-path="url(#clip060)" style="stroke:#000000; stroke-linecap:round; stroke-linejoin:round; stroke-width:4; stroke-opacity:1; fill:none" points="2150.46,1423.18 2150.46,47.2441 "/>
<polyline clip-path="url(#clip060)" style="stroke:#000000; stroke-linecap:round; stroke-linejoin:round; stroke-width:4; stroke-opacity:1; fill:none" points="2150.46,1289.69 2169.36,1289.69 "/>
<polyline clip-path="url(#clip060)" style="stroke:#000000; stroke-linecap:round; stroke-linejoin:round; stroke-width:4; stroke-opacity:1; fill:none" points="2150.46,1043.07 2169.36,1043.07 "/>
<polyline clip-path="url(#clip060)" style="stroke:#000000; stroke-linecap:round; stroke-linejoin:round; stroke-width:4; stroke-opacity:1; fill:none" points="2150.46,796.437 2169.36,796.437 "/>
<polyline clip-path="url(#clip060)" style="stroke:#000000; stroke-linecap:round; stroke-linejoin:round; stroke-width:4; stroke-opacity:1; fill:none" points="2150.46,549.808 2169.36,549.808 "/>
<polyline clip-path="url(#clip060)" style="stroke:#000000; stroke-linecap:round; stroke-linejoin:round; stroke-width:4; stroke-opacity:1; fill:none" points="2150.46,303.18 2169.36,303.18 "/>
<polyline clip-path="url(#clip060)" style="stroke:#000000; stroke-linecap:round; stroke-linejoin:round; stroke-width:4; stroke-opacity:1; fill:none" points="2150.46,56.5513 2169.36,56.5513 "/>
<path clip-path="url(#clip060)" d="M2216.4 1275.49 Q2212.79 1275.49 2210.96 1279.06 Q2209.16 1282.6 2209.16 1289.73 Q2209.16 1296.84 2210.96 1300.4 Q2212.79 1303.94 2216.4 1303.94 Q2220.04 1303.94 2221.84 1300.4 Q2223.67 1296.84 2223.67 1289.73 Q2223.67 1282.6 2221.84 1279.06 Q2220.04 1275.49 2216.4 1275.49 M2216.4 1271.79 Q2222.21 1271.79 2225.27 1276.4 Q2228.35 1280.98 2228.35 1289.73 Q2228.35 1298.46 2225.27 1303.06 Q2222.21 1307.65 2216.4 1307.65 Q2210.59 1307.65 2207.51 1303.06 Q2204.46 1298.46 2204.46 1289.73 Q2204.46 1280.98 2207.51 1276.4 Q2210.59 1271.79 2216.4 1271.79 Z" fill="#000000" fill-rule="nonzero" fill-opacity="1" /><path clip-path="url(#clip060)" d="M2236.56 1301.09 L2241.45 1301.09 L2241.45 1306.97 L2236.56 1306.97 L2236.56 1301.09 Z" fill="#000000" fill-rule="nonzero" fill-opacity="1" /><path clip-path="url(#clip060)" d="M2252.44 1303.04 L2260.08 1303.04 L2260.08 1276.67 L2251.77 1278.34 L2251.77 1274.08 L2260.04 1272.41 L2264.71 1272.41 L2264.71 1303.04 L2272.35 1303.04 L2272.35 1306.97 L2252.44 1306.97 L2252.44 1303.04 Z" fill="#000000" fill-rule="nonzero" fill-opacity="1" /><path clip-path="url(#clip060)" d="M2291.8 1275.49 Q2288.18 1275.49 2286.36 1279.06 Q2284.55 1282.6 2284.55 1289.73 Q2284.55 1296.84 2286.36 1300.4 Q2288.18 1303.94 2291.8 1303.94 Q2295.43 1303.94 2297.24 1300.4 Q2299.06 1296.84 2299.06 1289.73 Q2299.06 1282.6 2297.24 1279.06 Q2295.43 1275.49 2291.8 1275.49 M2291.8 1271.79 Q2297.61 1271.79 2300.66 1276.4 Q2303.74 1280.98 2303.74 1289.73 Q2303.74 1298.46 2300.66 1303.06 Q2297.61 1307.65 2291.8 1307.65 Q2285.99 1307.65 2282.91 1303.06 Q2279.85 1298.46 2279.85 1289.73 Q2279.85 1280.98 2282.91 1276.4 Q2285.99 1271.79 2291.8 1271.79 Z" fill="#000000" fill-rule="nonzero" fill-opacity="1" /><path clip-path="url(#clip060)" d="M2216.4 1028.86 Q2212.79 1028.86 2210.96 1032.43 Q2209.16 1035.97 2209.16 1043.1 Q2209.16 1050.21 2210.96 1053.77 Q2212.79 1057.31 2216.4 1057.31 Q2220.04 1057.31 2221.84 1053.77 Q2223.67 1050.21 2223.67 1043.1 Q2223.67 1035.97 2221.84 1032.43 Q2220.04 1028.86 2216.4 1028.86 M2216.4 1025.16 Q2222.21 1025.16 2225.27 1029.77 Q2228.35 1034.35 2228.35 1043.1 Q2228.35 1051.83 2225.27 1056.43 Q2222.21 1061.02 2216.4 1061.02 Q2210.59 1061.02 2207.51 1056.43 Q2204.46 1051.83 2204.46 1043.1 Q2204.46 1034.35 2207.51 1029.77 Q2210.59 1025.16 2216.4 1025.16 Z" fill="#000000" fill-rule="nonzero" fill-opacity="1" /><path clip-path="url(#clip060)" d="M2236.56 1054.47 L2241.45 1054.47 L2241.45 1060.35 L2236.56 1060.35 L2236.56 1054.47 Z" fill="#000000" fill-rule="nonzero" fill-opacity="1" /><path clip-path="url(#clip060)" d="M2252.44 1056.41 L2260.08 1056.41 L2260.08 1030.04 L2251.77 1031.71 L2251.77 1027.45 L2260.04 1025.79 L2264.71 1025.79 L2264.71 1056.41 L2272.35 1056.41 L2272.35 1060.35 L2252.44 1060.35 L2252.44 1056.41 Z" fill="#000000" fill-rule="nonzero" fill-opacity="1" /><path clip-path="url(#clip060)" d="M2281.84 1025.79 L2300.2 1025.79 L2300.2 1029.72 L2286.12 1029.72 L2286.12 1038.19 Q2287.14 1037.85 2288.16 1037.68 Q2289.18 1037.5 2290.2 1037.5 Q2295.99 1037.5 2299.36 1040.67 Q2302.74 1043.84 2302.74 1049.26 Q2302.74 1054.84 2299.27 1057.94 Q2295.8 1061.02 2289.48 1061.02 Q2287.3 1061.02 2285.04 1060.65 Q2282.79 1060.28 2280.38 1059.54 L2280.38 1054.84 Q2282.47 1055.97 2284.69 1056.53 Q2286.91 1057.08 2289.39 1057.08 Q2293.39 1057.08 2295.73 1054.98 Q2298.07 1052.87 2298.07 1049.26 Q2298.07 1045.65 2295.73 1043.54 Q2293.39 1041.43 2289.39 1041.43 Q2287.51 1041.43 2285.64 1041.85 Q2283.79 1042.27 2281.84 1043.15 L2281.84 1025.79 Z" fill="#000000" fill-rule="nonzero" fill-opacity="1" /><path clip-path="url(#clip060)" d="M2216.4 782.236 Q2212.79 782.236 2210.96 785.8 Q2209.16 789.342 2209.16 796.472 Q2209.16 803.578 2210.96 807.143 Q2212.79 810.685 2216.4 810.685 Q2220.04 810.685 2221.84 807.143 Q2223.67 803.578 2223.67 796.472 Q2223.67 789.342 2221.84 785.8 Q2220.04 782.236 2216.4 782.236 M2216.4 778.532 Q2222.21 778.532 2225.27 783.138 Q2228.35 787.722 2228.35 796.472 Q2228.35 805.198 2225.27 809.805 Q2222.21 814.388 2216.4 814.388 Q2210.59 814.388 2207.51 809.805 Q2204.46 805.198 2204.46 796.472 Q2204.46 787.722 2207.51 783.138 Q2210.59 778.532 2216.4 778.532 Z" fill="#000000" fill-rule="nonzero" fill-opacity="1" /><path clip-path="url(#clip060)" d="M2236.56 807.837 L2241.45 807.837 L2241.45 813.717 L2236.56 813.717 L2236.56 807.837 Z" fill="#000000" fill-rule="nonzero" fill-opacity="1" /><path clip-path="url(#clip060)" d="M2255.66 809.782 L2271.98 809.782 L2271.98 813.717 L2250.04 813.717 L2250.04 809.782 Q2252.7 807.027 2257.28 802.398 Q2261.89 797.745 2263.07 796.402 Q2265.31 793.879 2266.19 792.143 Q2267.1 790.384 2267.1 788.694 Q2267.1 785.939 2265.15 784.203 Q2263.23 782.467 2260.13 782.467 Q2257.93 782.467 2255.48 783.231 Q2253.05 783.995 2250.27 785.546 L2250.27 780.824 Q2253.09 779.689 2255.55 779.111 Q2258 778.532 2260.04 778.532 Q2265.41 778.532 2268.6 781.217 Q2271.8 783.902 2271.8 788.393 Q2271.8 790.523 2270.99 792.444 Q2270.2 794.342 2268.09 796.935 Q2267.51 797.606 2264.41 800.823 Q2261.31 804.018 2255.66 809.782 Z" fill="#000000" fill-rule="nonzero" fill-opacity="1" /><path clip-path="url(#clip060)" d="M2291.8 782.236 Q2288.18 782.236 2286.36 785.8 Q2284.55 789.342 2284.55 796.472 Q2284.55 803.578 2286.36 807.143 Q2288.18 810.685 2291.8 810.685 Q2295.43 810.685 2297.24 807.143 Q2299.06 803.578 2299.06 796.472 Q2299.06 789.342 2297.24 785.8 Q2295.43 782.236 2291.8 782.236 M2291.8 778.532 Q2297.61 778.532 2300.66 783.138 Q2303.74 787.722 2303.74 796.472 Q2303.74 805.198 2300.66 809.805 Q2297.61 814.388 2291.8 814.388 Q2285.99 814.388 2282.91 809.805 Q2279.85 805.198 2279.85 796.472 Q2279.85 787.722 2282.91 783.138 Q2285.99 778.532 2291.8 778.532 Z" fill="#000000" fill-rule="nonzero" fill-opacity="1" /><path clip-path="url(#clip060)" d="M2216.4 535.607 Q2212.79 535.607 2210.96 539.172 Q2209.16 542.714 2209.16 549.843 Q2209.16 556.95 2210.96 560.514 Q2212.79 564.056 2216.4 564.056 Q2220.04 564.056 2221.84 560.514 Q2223.67 556.95 2223.67 549.843 Q2223.67 542.714 2221.84 539.172 Q2220.04 535.607 2216.4 535.607 M2216.4 531.903 Q2222.21 531.903 2225.27 536.51 Q2228.35 541.093 2228.35 549.843 Q2228.35 558.57 2225.27 563.176 Q2222.21 567.76 2216.4 567.76 Q2210.59 567.76 2207.51 563.176 Q2204.46 558.57 2204.46 549.843 Q2204.46 541.093 2207.51 536.51 Q2210.59 531.903 2216.4 531.903 Z" fill="#000000" fill-rule="nonzero" fill-opacity="1" /><path clip-path="url(#clip060)" d="M2236.56 561.209 L2241.45 561.209 L2241.45 567.088 L2236.56 567.088 L2236.56 561.209 Z" fill="#000000" fill-rule="nonzero" fill-opacity="1" /><path clip-path="url(#clip060)" d="M2255.66 563.153 L2271.98 563.153 L2271.98 567.088 L2250.04 567.088 L2250.04 563.153 Q2252.7 560.399 2257.28 555.769 Q2261.89 551.116 2263.07 549.774 Q2265.31 547.251 2266.19 545.514 Q2267.1 543.755 2267.1 542.065 Q2267.1 539.311 2265.15 537.575 Q2263.23 535.839 2260.13 535.839 Q2257.93 535.839 2255.48 536.602 Q2253.05 537.366 2250.27 538.917 L2250.27 534.195 Q2253.09 533.061 2255.55 532.482 Q2258 531.903 2260.04 531.903 Q2265.41 531.903 2268.6 534.589 Q2271.8 537.274 2271.8 541.764 Q2271.8 543.894 2270.99 545.815 Q2270.2 547.713 2268.09 550.306 Q2267.51 550.977 2264.41 554.195 Q2261.31 557.389 2255.66 563.153 Z" fill="#000000" fill-rule="nonzero" fill-opacity="1" /><path clip-path="url(#clip060)" d="M2281.84 532.528 L2300.2 532.528 L2300.2 536.464 L2286.12 536.464 L2286.12 544.936 Q2287.14 544.588 2288.16 544.426 Q2289.18 544.241 2290.2 544.241 Q2295.99 544.241 2299.36 547.413 Q2302.74 550.584 2302.74 556 Q2302.74 561.579 2299.27 564.681 Q2295.8 567.76 2289.48 567.76 Q2287.3 567.76 2285.04 567.389 Q2282.79 567.019 2280.38 566.278 L2280.38 561.579 Q2282.47 562.713 2284.69 563.269 Q2286.91 563.825 2289.39 563.825 Q2293.39 563.825 2295.73 561.718 Q2298.07 559.612 2298.07 556 Q2298.07 552.389 2295.73 550.283 Q2293.39 548.176 2289.39 548.176 Q2287.51 548.176 2285.64 548.593 Q2283.79 549.01 2281.84 549.889 L2281.84 532.528 Z" fill="#000000" fill-rule="nonzero" fill-opacity="1" /><path clip-path="url(#clip060)" d="M2216.4 288.979 Q2212.79 288.979 2210.96 292.543 Q2209.16 296.085 2209.16 303.215 Q2209.16 310.321 2210.96 313.886 Q2212.79 317.427 2216.4 317.427 Q2220.04 317.427 2221.84 313.886 Q2223.67 310.321 2223.67 303.215 Q2223.67 296.085 2221.84 292.543 Q2220.04 288.979 2216.4 288.979 M2216.4 285.275 Q2222.21 285.275 2225.27 289.881 Q2228.35 294.465 2228.35 303.215 Q2228.35 311.941 2225.27 316.548 Q2222.21 321.131 2216.4 321.131 Q2210.59 321.131 2207.51 316.548 Q2204.46 311.941 2204.46 303.215 Q2204.46 294.465 2207.51 289.881 Q2210.59 285.275 2216.4 285.275 Z" fill="#000000" fill-rule="nonzero" fill-opacity="1" /><path clip-path="url(#clip060)" d="M2236.56 314.58 L2241.45 314.58 L2241.45 320.46 L2236.56 320.46 L2236.56 314.58 Z" fill="#000000" fill-rule="nonzero" fill-opacity="1" /><path clip-path="url(#clip060)" d="M2265.8 301.826 Q2269.16 302.543 2271.03 304.812 Q2272.93 307.08 2272.93 310.414 Q2272.93 315.529 2269.41 318.33 Q2265.89 321.131 2259.41 321.131 Q2257.24 321.131 2254.92 320.691 Q2252.63 320.275 2250.18 319.418 L2250.18 314.904 Q2252.12 316.039 2254.43 316.617 Q2256.75 317.196 2259.27 317.196 Q2263.67 317.196 2265.96 315.46 Q2268.28 313.724 2268.28 310.414 Q2268.28 307.358 2266.12 305.645 Q2263.99 303.909 2260.18 303.909 L2256.15 303.909 L2256.15 300.066 L2260.36 300.066 Q2263.81 300.066 2265.64 298.701 Q2267.47 297.312 2267.47 294.719 Q2267.47 292.057 2265.57 290.645 Q2263.69 289.21 2260.18 289.21 Q2258.25 289.21 2256.05 289.627 Q2253.86 290.043 2251.22 290.923 L2251.22 286.756 Q2253.88 286.016 2256.19 285.645 Q2258.53 285.275 2260.59 285.275 Q2265.92 285.275 2269.02 287.705 Q2272.12 290.113 2272.12 294.233 Q2272.12 297.103 2270.48 299.094 Q2268.83 301.062 2265.8 301.826 Z" fill="#000000" fill-rule="nonzero" fill-opacity="1" /><path clip-path="url(#clip060)" d="M2291.8 288.979 Q2288.18 288.979 2286.36 292.543 Q2284.55 296.085 2284.55 303.215 Q2284.55 310.321 2286.36 313.886 Q2288.18 317.427 2291.8 317.427 Q2295.43 317.427 2297.24 313.886 Q2299.06 310.321 2299.06 303.215 Q2299.06 296.085 2297.24 292.543 Q2295.43 288.979 2291.8 288.979 M2291.8 285.275 Q2297.61 285.275 2300.66 289.881 Q2303.74 294.465 2303.74 303.215 Q2303.74 311.941 2300.66 316.548 Q2297.61 321.131 2291.8 321.131 Q2285.99 321.131 2282.91 316.548 Q2279.85 311.941 2279.85 303.215 Q2279.85 294.465 2282.91 289.881 Q2285.99 285.275 2291.8 285.275 Z" fill="#000000" fill-rule="nonzero" fill-opacity="1" /><path clip-path="url(#clip060)" d="M2216.4 42.3499 Q2212.79 42.3499 2210.96 45.9147 Q2209.16 49.4564 2209.16 56.586 Q2209.16 63.6924 2210.96 67.2572 Q2212.79 70.7989 2216.4 70.7989 Q2220.04 70.7989 2221.84 67.2572 Q2223.67 63.6924 2223.67 56.586 Q2223.67 49.4564 2221.84 45.9147 Q2220.04 42.3499 2216.4 42.3499 M2216.4 38.6463 Q2222.21 38.6463 2225.27 43.2527 Q2228.35 47.836 2228.35 56.586 Q2228.35 65.3128 2225.27 69.9192 Q2222.21 74.5025 2216.4 74.5025 Q2210.59 74.5025 2207.51 69.9192 Q2204.46 65.3128 2204.46 56.586 Q2204.46 47.836 2207.51 43.2527 Q2210.59 38.6463 2216.4 38.6463 Z" fill="#000000" fill-rule="nonzero" fill-opacity="1" /><path clip-path="url(#clip060)" d="M2236.56 67.9517 L2241.45 67.9517 L2241.45 73.8313 L2236.56 73.8313 L2236.56 67.9517 Z" fill="#000000" fill-rule="nonzero" fill-opacity="1" /><path clip-path="url(#clip060)" d="M2265.8 55.1971 Q2269.16 55.9147 2271.03 58.1832 Q2272.93 60.4517 2272.93 63.785 Q2272.93 68.9007 2269.41 71.7016 Q2265.89 74.5025 2259.41 74.5025 Q2257.24 74.5025 2254.92 74.0627 Q2252.63 73.6461 2250.18 72.7896 L2250.18 68.2757 Q2252.12 69.41 2254.43 69.9887 Q2256.75 70.5674 2259.27 70.5674 Q2263.67 70.5674 2265.96 68.8313 Q2268.28 67.0952 2268.28 63.785 Q2268.28 60.7295 2266.12 59.0165 Q2263.99 57.2804 2260.18 57.2804 L2256.15 57.2804 L2256.15 53.4378 L2260.36 53.4378 Q2263.81 53.4378 2265.64 52.0721 Q2267.47 50.6832 2267.47 48.0906 Q2267.47 45.4286 2265.57 44.0166 Q2263.69 42.5814 2260.18 42.5814 Q2258.25 42.5814 2256.05 42.9981 Q2253.86 43.4147 2251.22 44.2944 L2251.22 40.1277 Q2253.88 39.387 2256.19 39.0166 Q2258.53 38.6463 2260.59 38.6463 Q2265.92 38.6463 2269.02 41.0768 Q2272.12 43.4842 2272.12 47.6045 Q2272.12 50.4749 2270.48 52.4656 Q2268.83 54.4332 2265.8 55.1971 Z" fill="#000000" fill-rule="nonzero" fill-opacity="1" /><path clip-path="url(#clip060)" d="M2281.84 39.2713 L2300.2 39.2713 L2300.2 43.2064 L2286.12 43.2064 L2286.12 51.6786 Q2287.14 51.3314 2288.16 51.1693 Q2289.18 50.9842 2290.2 50.9842 Q2295.99 50.9842 2299.36 54.1554 Q2302.74 57.3267 2302.74 62.7433 Q2302.74 68.322 2299.27 71.4239 Q2295.8 74.5025 2289.48 74.5025 Q2287.3 74.5025 2285.04 74.1322 Q2282.79 73.7618 2280.38 73.0211 L2280.38 68.322 Q2282.47 69.4563 2284.69 70.0118 Q2286.91 70.5674 2289.39 70.5674 Q2293.39 70.5674 2295.73 68.4609 Q2298.07 66.3544 2298.07 62.7433 Q2298.07 59.1323 2295.73 57.0258 Q2293.39 54.9193 2289.39 54.9193 Q2287.51 54.9193 2285.64 55.336 Q2283.79 55.7526 2281.84 56.6323 L2281.84 39.2713 Z" fill="#000000" fill-rule="nonzero" fill-opacity="1" /><path clip-path="url(#clip060)" d="M2337.51 719.016 Q2341.34 719.016 2345.14 720.787 Q2348.94 722.559 2351.84 725.457 Q2354.71 728.323 2356.51 732.253 Q2358.31 736.149 2358.31 740.143 Q2358.31 740.852 2358.15 742.301 Q2370.04 744.555 2370.23 744.62 Q2370.91 744.909 2371.32 745.489 Q2371.74 746.037 2371.84 746.423 Q2371.94 746.81 2371.94 747.067 Q2371.94 747.711 2371.49 748.356 Q2371.07 748.967 2370.1 748.967 Q2369.87 748.967 2368.78 748.645 L2357.7 745.135 Q2356.48 750.449 2353.1 753.508 Q2349.68 756.568 2345.04 756.568 Q2342.08 756.568 2338.22 755.215 Q2334.35 753.863 2331.74 752.22 Q2329.13 750.578 2329.13 749.644 Q2329.13 748.839 2329.81 748.839 Q2330.07 748.839 2330.65 749.354 Q2333.64 751.963 2337.96 753.412 Q2342.24 754.829 2344.3 754.829 Q2347.91 754.829 2350.52 752.059 Q2353.1 749.257 2354.06 744.008 Q2343.95 740.884 2339.7 739.016 Q2331.26 735.248 2329.2 730.352 Q2328.43 728.549 2328.43 726.552 Q2328.43 722.945 2330.97 720.981 Q2333.48 719.016 2337.51 719.016 M2338.96 720.884 Q2337.25 720.884 2335.8 721.496 Q2334.35 722.076 2333.32 723.557 Q2332.26 725.038 2332.26 727.196 Q2332.26 731.512 2336.41 735.119 Q2340.57 738.726 2347.01 740.272 L2354.16 741.592 Q2354.42 741.592 2354.42 740.723 Q2354.48 740.207 2354.48 739.531 Q2354.48 735.86 2353.1 732.381 Q2351.71 728.871 2349.52 726.391 Q2347.33 723.911 2344.53 722.398 Q2341.73 720.884 2338.96 720.884 Z" fill="#000000" fill-rule="nonzero" fill-opacity="1" /><polyline clip-path="url(#clip062)" style="stroke:#0000ff; stroke-linecap:round; stroke-linejoin:round; stroke-width:4; stroke-opacity:1; fill:none" points="259.053,86.1857 271.377,109.283 283.702,132.675 296.026,153.144 308.35,173.974 320.674,194.277 332.999,216.677 345.323,232.562 357.647,254.064 369.971,268.556 382.296,285.648 394.62,302.878 406.944,319.918 419.268,334.922 431.593,349.419 443.917,365.178 456.241,379.137 468.566,388.582 480.89,402.086 493.214,414.846 505.538,429.887 517.863,440.757 530.187,452.625 542.511,463.275 554.835,474.104 567.16,484.806 579.484,494.393 591.808,505.339 604.132,518.597 616.457,524.744 628.781,534.515 641.105,543.53 653.43,552.642 665.754,561.568 678.078,570.301 690.402,580.419 702.727,587.342 715.051,595.648 727.375,603.771 739.699,611.389 752.024,619.333 764.348,626.454 776.672,637.301 788.996,643.818 801.321,647.952 813.645,656.447 825.969,664.138 838.293,669.826 850.618,676.959 862.942,683.408 875.266,690.082 887.591,696.312 899.915,702.451 912.239,708.908 924.563,712.709 936.888,717.547 949.212,723.056 961.536,730.634 973.86,735.908 986.185,740.548 998.509,745.685 1010.83,749.609 1023.16,756.02 1035.48,762.463 1047.81,764.598 1060.13,770.098 1072.45,774.87 1084.78,779.352 1097.1,783.797 1109.43,788.162 1121.75,792.885 1134.08,796.891 1146.4,801.193 1158.72,806.368 1171.05,809.679 1183.37,814.686 1195.7,817.968 1208.02,823.131 1220.35,827.506 1232.67,831.415 1244.99,833.569 1257.32,837.351 1269.64,841.09 1281.97,844.819 1294.29,848.55 1306.62,851.994 1318.94,858.062 1331.26,859.368 1343.59,862.647 1355.91,867.625 1368.24,869.364 1380.56,872.592 1392.89,875.899 1405.21,879.304 1417.53,882.467 1429.86,886.565 1442.18,889.407 1454.51,892.518 1466.83,895.001 1479.16,897.886 1491.48,900.877 1503.8,904.109 1516.13,906.457 1528.45,910.332 1540.78,911.911 1553.1,914.687 1565.43,918.885 1577.75,921.802 1590.07,924.608 1602.4,926.888 1614.72,930.15 1627.05,931.841 1639.37,935.434 1651.69,937.757 1664.02,937.968 1676.34,942.207 1688.67,942.887 1700.99,947.198 1713.32,949.727 1725.64,952.082 1737.96,952.377 1750.29,956.452 1762.61,957.077 1774.94,961.238 1787.26,961.706 1799.59,965.285 1811.91,967.652 1824.23,969.715 1836.56,971.765 1848.88,973.747 1861.21,974.558 1873.53,977.082 1885.86,978.352 1898.18,981.065 1910.5,982.979 1922.83,984.739 1935.15,987.318 1947.48,989.155 1959.8,990.439 1972.13,992.278 1984.45,994.364 1996.77,996.135 2009.1,997.912 2021.42,999.524 2033.75,1001.42 2046.07,1004.56 2058.4,1005.03 2070.72,1006.6 2083.04,1008.29 2095.37,1010.09 "/>
<polyline clip-path="url(#clip062)" style="stroke:#008000; stroke-linecap:round; stroke-linejoin:round; stroke-width:4; stroke-opacity:1; fill:none" points="259.053,288.082 271.377,357.291 283.702,611.665 296.026,903.098 308.35,1144.31 320.674,1301.43 332.999,1374.92 345.323,1384.24 357.647,1353.12 369.971,1303.52 382.296,1251.65 394.62,1207.44 406.944,1175.44 419.268,1156.27 431.593,1148.31 443.917,1148.89 456.241,1154.97 468.566,1163.87 480.89,1173.53 493.214,1182.47 505.538,1189.87 517.863,1195.34 530.187,1198.85 542.511,1200.62 554.835,1200.97 567.16,1200.29 579.484,1198.92 591.808,1197.2 604.132,1195.36 616.457,1193.61 628.781,1192.07 641.105,1190.8 653.43,1189.84 665.754,1189.19 678.078,1188.81 690.402,1188.66 702.727,1188.71 715.051,1188.89 727.375,1189.17 739.699,1189.51 752.024,1189.87 764.348,1190.23 776.672,1190.56 788.996,1190.85 801.321,1191.1 813.645,1191.3 825.969,1191.45 838.293,1191.56 850.618,1191.62 862.942,1191.64 875.266,1191.63 887.591,1191.6 899.915,1191.55 912.239,1191.49 924.563,1191.42 936.888,1191.34 949.212,1191.27 961.536,1191.2 973.86,1191.13 986.185,1191.07 998.509,1191.02 1010.83,1190.98 1023.16,1190.95 1035.48,1190.92 1047.81,1190.9 1060.13,1190.89 1072.45,1190.88 1084.78,1190.88 1097.1,1190.89 1109.43,1190.9 1121.75,1190.91 1134.08,1190.92 1146.4,1190.94 1158.72,1190.95 1171.05,1190.97 1183.37,1190.99 1195.7,1191 1208.02,1191.02 1220.35,1191.03 1232.67,1191.04 1244.99,1191.05 1257.32,1191.06 1269.64,1191.07 1281.97,1191.08 1294.29,1191.08 1306.62,1191.08 1318.94,1191.09 1331.26,1191.09 1343.59,1191.09 1355.91,1191.09 1368.24,1191.09 1380.56,1191.08 1392.89,1191.08 1405.21,1191.08 1417.53,1191.07 1429.86,1191.07 1442.18,1191.07 1454.51,1191.06 1466.83,1191.06 1479.16,1191.06 1491.48,1191.05 1503.8,1191.05 1516.13,1191.05 1528.45,1191.04 1540.78,1191.04 1553.1,1191.04 1565.43,1191.04 1577.75,1191.03 1590.07,1191.03 1602.4,1191.03 1614.72,1191.03 1627.05,1191.03 1639.37,1191.03 1651.69,1191.03 1664.02,1191.03 1676.34,1191.03 1688.67,1191.03 1700.99,1191.03 1713.32,1191.03 1725.64,1191.03 1737.96,1191.03 1750.29,1191.03 1762.61,1191.03 1774.94,1191.03 1787.26,1191.04 1799.59,1191.04 1811.91,1191.04 1824.23,1191.04 1836.56,1191.04 1848.88,1191.04 1861.21,1191.04 1873.53,1191.04 1885.86,1191.04 1898.18,1191.04 1910.5,1191.04 1922.83,1191.04 1935.15,1191.04 1947.48,1191.05 1959.8,1191.05 1972.13,1191.05 1984.45,1191.05 1996.77,1191.05 2009.1,1191.05 2021.42,1191.05 2033.75,1191.05 2046.07,1191.05 2058.4,1191.05 2070.72,1191.05 2083.04,1191.05 2095.37,1191.05 "/>
<path clip-path="url(#clip060)" d="M1788.27 832.916 L2085.57 832.916 L2085.57 677.396 L1788.27 677.396  Z" fill="#ffffff" fill-rule="evenodd" fill-opacity="1"/>
<polyline clip-path="url(#clip060)" style="stroke:#000000; stroke-linecap:round; stroke-linejoin:round; stroke-width:4; stroke-opacity:1; fill:none" points="1788.27,832.916 2085.57,832.916 2085.57,677.396 1788.27,677.396 1788.27,832.916 "/>
<polyline clip-path="url(#clip060)" style="stroke:#0000ff; stroke-linecap:round; stroke-linejoin:round; stroke-width:4; stroke-opacity:1; fill:none" points="1809.9,729.236 1939.67,729.236 "/>
<path clip-path="url(#clip060)" d="M1988.6 715.372 Q1988.6 718.159 1987.32 720.923 Q1986.03 723.687 1983.92 725.795 Q1981.83 727.88 1978.98 729.191 Q1976.14 730.503 1973.24 730.503 Q1972.72 730.503 1971.67 730.386 Q1970.03 739.029 1969.98 739.169 Q1969.77 739.661 1969.35 739.966 Q1968.95 740.27 1968.67 740.34 Q1968.39 740.411 1968.2 740.411 Q1967.73 740.411 1967.27 740.083 Q1966.82 739.778 1966.82 739.075 Q1966.82 738.912 1967.06 738.115 L1969.61 730.058 Q1965.74 729.168 1963.52 726.708 Q1961.29 724.226 1961.29 720.853 Q1961.29 718.698 1962.28 715.887 Q1963.26 713.077 1964.46 711.179 Q1965.65 709.282 1966.33 709.282 Q1966.91 709.282 1966.91 709.774 Q1966.91 709.961 1966.54 710.383 Q1964.64 712.561 1963.59 715.7 Q1962.56 718.815 1962.56 720.314 Q1962.56 722.937 1964.57 724.835 Q1966.61 726.708 1970.43 727.411 Q1972.7 720.056 1974.06 716.965 Q1976.8 710.828 1980.36 709.329 Q1981.67 708.767 1983.12 708.767 Q1985.75 708.767 1987.18 710.617 Q1988.6 712.444 1988.6 715.372 M1987.25 716.426 Q1987.25 715.185 1986.8 714.131 Q1986.38 713.077 1985.3 712.327 Q1984.22 711.554 1982.65 711.554 Q1979.52 711.554 1976.89 714.576 Q1974.27 717.597 1973.15 722.282 L1972.18 727.481 Q1972.18 727.669 1972.82 727.669 Q1973.19 727.716 1973.68 727.716 Q1976.35 727.716 1978.88 726.708 Q1981.44 725.701 1983.24 724.109 Q1985.04 722.516 1986.14 720.478 Q1987.25 718.44 1987.25 716.426 Z" fill="#000000" fill-rule="nonzero" fill-opacity="1" /><path clip-path="url(#clip060)" d="M2020.96 744.317 Q2020.96 744.449 2020.81 744.957 Q2020.66 745.465 2020.3 746.252 Q2019.96 747.039 2019.46 747.76 Q2018.99 748.466 2018.2 748.99 Q2017.43 749.498 2016.55 749.498 Q2015.37 749.498 2014.58 748.711 Q2013.79 747.924 2013.79 746.744 Q2013.79 746.105 2014.23 744.891 Q2016.32 739.349 2016.32 737.366 Q2016.32 735.021 2014.5 735.021 Q2013.46 735.021 2012.53 735.447 Q2011.59 735.874 2010.99 736.464 Q2010.38 737.054 2009.91 737.726 Q2009.43 738.399 2009.22 738.841 Q2009.02 739.284 2008.97 739.481 L2006.95 747.58 Q2006.79 748.269 2006.68 748.597 Q2006.56 748.925 2006.25 749.203 Q2005.94 749.498 2005.45 749.498 Q2005.04 749.498 2004.74 749.253 Q2004.46 749.007 2004.46 748.58 Q2004.46 748.515 2004.54 748.17 Q2004.63 747.826 2004.74 747.351 Q2004.86 746.875 2004.91 746.596 Q2005.5 744.367 2005.58 744.055 L2006.51 740.153 Q2007.02 738.218 2007.02 737.366 Q2007.02 735.021 2005.2 735.021 Q2004.3 735.021 2003.45 735.365 Q2002.61 735.693 2002.04 736.152 Q2001.46 736.611 2000.94 737.251 Q2000.43 737.874 2000.17 738.3 Q1999.92 738.71 1999.72 739.12 L1999.3 740.792 Q1999.2 741.251 1998.72 743.039 L1997.99 746.072 Q1997.46 748.334 1997.35 748.547 Q1997.18 749.007 1996.82 749.253 Q1996.46 749.498 1996.1 749.498 Q1995.69 749.498 1995.41 749.253 Q1995.13 749.007 1995.13 748.58 Q1995.13 748.515 1995.18 748.269 Q1995.23 748.023 1995.31 747.679 Q1995.4 747.334 1995.43 747.137 L1997.38 739.382 Q1997.74 737.972 1997.82 737.53 Q1997.92 737.07 1997.92 736.562 Q1997.92 735.021 1996.87 735.021 Q1996.02 735.021 1995.46 736.038 Q1994.9 737.054 1994.43 739.022 Q1994.28 739.563 1994.18 739.677 Q1994.1 739.792 1993.85 739.792 Q1993.44 739.776 1993.44 739.448 Q1993.44 739.366 1993.58 738.841 Q1993.71 738.317 1993.95 737.53 Q1994.22 736.726 1994.49 736.202 Q1994.66 735.857 1994.81 735.628 Q1994.95 735.398 1995.25 735.037 Q1995.54 734.677 1995.99 734.48 Q1996.43 734.283 1996.97 734.283 Q1998.17 734.283 1999.05 735.054 Q1999.95 735.824 2000.07 737.202 Q2002.25 734.283 2005.3 734.283 Q2007.02 734.283 2008.05 735.152 Q2009.02 735.988 2009.14 737.53 Q2011.4 734.283 2014.61 734.283 Q2016.46 734.283 2017.46 735.251 Q2018.46 736.202 2018.46 737.874 Q2018.46 738.743 2018.02 740.399 Q2017.58 742.038 2017.28 742.858 Q2016.99 743.678 2016.42 745.252 Q2015.81 746.76 2015.81 747.646 Q2015.81 748.22 2016.01 748.482 Q2016.2 748.744 2016.63 748.744 Q2017.28 748.744 2017.86 748.367 Q2018.43 747.974 2018.84 747.334 Q2019.27 746.678 2019.55 746.023 Q2019.83 745.35 2020.04 744.596 Q2020.17 744.186 2020.24 744.088 Q2020.32 743.989 2020.55 743.989 Q2020.96 743.989 2020.96 744.317 Z" fill="#000000" fill-rule="nonzero" fill-opacity="1" /><path clip-path="url(#clip060)" d="M2038.42 744.317 Q2037.98 746.432 2037.4 747.646 Q2036.48 749.498 2034.93 749.498 Q2033.75 749.498 2032.91 748.777 Q2032.07 748.056 2031.88 746.973 Q2029.73 749.498 2027.5 749.498 Q2025.53 749.498 2024.29 748.006 Q2023.04 746.498 2023.04 744.121 Q2023.04 741.727 2024.22 739.431 Q2025.42 737.136 2027.3 735.71 Q2029.19 734.283 2031.12 734.283 Q2033.17 734.283 2034.22 736.431 Q2034.3 735.841 2034.68 735.398 Q2035.06 734.955 2035.63 734.955 Q2036.07 734.955 2036.34 735.201 Q2036.6 735.431 2036.6 735.857 Q2036.6 736.07 2036.37 737.005 L2035.16 741.694 L2034.42 744.727 Q2034.14 745.842 2034.06 746.252 Q2033.99 746.662 2033.99 747.203 Q2033.99 748.744 2034.99 748.744 Q2035.48 748.744 2035.88 748.433 Q2036.27 748.121 2036.58 747.465 Q2036.89 746.81 2037.09 746.203 Q2037.29 745.58 2037.55 744.596 Q2037.63 744.203 2037.7 744.104 Q2037.78 743.989 2038.01 743.989 Q2038.42 743.989 2038.42 744.317 M2033.81 737.972 Q2033.81 737.825 2033.7 737.415 Q2033.58 737.005 2033.32 736.431 Q2033.06 735.857 2032.48 735.447 Q2031.93 735.021 2031.17 735.021 Q2030.15 735.021 2029.09 735.89 Q2028.04 736.759 2027.27 738.235 Q2026.68 739.415 2026.04 741.891 Q2025.42 744.367 2025.42 745.596 Q2025.42 746.35 2025.58 747.023 Q2025.76 747.679 2026.27 748.22 Q2026.78 748.744 2027.56 748.744 Q2029.48 748.744 2031.37 746.367 Q2031.73 745.957 2031.81 745.793 Q2031.91 745.613 2032.04 745.121 L2033.71 738.546 Q2033.81 738.054 2033.81 737.972 Z" fill="#000000" fill-rule="nonzero" fill-opacity="1" /><path clip-path="url(#clip060)" d="M2056.54 736.497 Q2056.54 737.415 2055.97 737.939 Q2055.39 738.448 2054.74 738.448 Q2054.11 738.448 2053.78 738.087 Q2053.46 737.726 2053.46 737.267 Q2053.46 736.644 2053.92 736.103 Q2054.37 735.562 2055.06 735.447 Q2054.39 735.021 2053.39 735.021 Q2052.74 735.021 2052.16 735.365 Q2051.6 735.71 2051.26 736.152 Q2050.93 736.595 2050.64 737.234 Q2050.36 737.857 2050.24 738.235 Q2050.14 738.595 2050.06 738.989 L2048.92 743.58 Q2048.36 745.76 2048.36 746.531 Q2048.36 747.482 2048.82 748.121 Q2049.28 748.744 2050.19 748.744 Q2050.55 748.744 2050.96 748.646 Q2051.37 748.531 2051.9 748.236 Q2052.44 747.924 2052.92 747.465 Q2053.41 746.99 2053.88 746.187 Q2054.36 745.383 2054.67 744.35 Q2054.77 743.989 2055.1 743.989 Q2055.51 743.989 2055.51 744.317 Q2055.51 744.596 2055.28 745.186 Q2055.06 745.76 2054.59 746.514 Q2054.13 747.252 2053.52 747.924 Q2052.92 748.58 2052.01 749.039 Q2051.11 749.498 2050.13 749.498 Q2048.72 749.498 2047.78 748.744 Q2046.85 747.99 2046.5 746.941 Q2046.42 747.088 2046.31 747.285 Q2046.19 747.482 2045.85 747.924 Q2045.52 748.351 2045.14 748.679 Q2044.77 748.99 2044.18 749.236 Q2043.6 749.498 2042.98 749.498 Q2042.19 749.498 2041.49 749.269 Q2040.8 749.039 2040.31 748.515 Q2039.82 747.99 2039.82 747.269 Q2039.82 746.465 2040.36 745.908 Q2040.91 745.334 2041.67 745.334 Q2042.14 745.334 2042.52 745.613 Q2042.91 745.891 2042.91 746.498 Q2042.91 747.17 2042.46 747.679 Q2042 748.187 2041.34 748.318 Q2042.01 748.744 2043.01 748.744 Q2044.09 748.744 2044.95 747.793 Q2045.8 746.842 2046.21 745.252 Q2047.23 741.432 2047.62 739.727 Q2048.01 738.005 2048.01 737.267 Q2048.01 736.579 2047.83 736.103 Q2047.65 735.628 2047.34 735.415 Q2047.05 735.185 2046.77 735.103 Q2046.5 735.021 2046.21 735.021 Q2045.72 735.021 2045.16 735.218 Q2044.62 735.415 2043.96 735.874 Q2043.32 736.316 2042.72 737.234 Q2042.11 738.153 2041.7 739.415 Q2041.62 739.792 2041.26 739.792 Q2040.86 739.776 2040.86 739.448 Q2040.86 739.169 2041.08 738.595 Q2041.31 738.005 2041.77 737.267 Q2042.24 736.529 2042.85 735.874 Q2043.47 735.201 2044.37 734.742 Q2045.29 734.283 2046.28 734.283 Q2046.72 734.283 2047.14 734.382 Q2047.59 734.464 2048.11 734.71 Q2048.65 734.955 2049.13 735.497 Q2049.6 736.038 2049.9 736.825 Q2050.1 736.447 2050.36 736.087 Q2050.64 735.726 2051.06 735.283 Q2051.51 734.824 2052.11 734.562 Q2052.74 734.283 2053.42 734.283 Q2054.1 734.283 2054.75 734.464 Q2055.41 734.628 2055.97 735.169 Q2056.54 735.693 2056.54 736.497 Z" fill="#000000" fill-rule="nonzero" fill-opacity="1" /><polyline clip-path="url(#clip060)" style="stroke:#008000; stroke-linecap:round; stroke-linejoin:round; stroke-width:4; stroke-opacity:1; fill:none" points="1809.9,781.076 1939.67,781.076 "/>
<path clip-path="url(#clip060)" d="M1988.6 767.212 Q1988.6 769.999 1987.32 772.763 Q1986.03 775.527 1983.92 777.635 Q1981.83 779.72 1978.98 781.031 Q1976.14 782.343 1973.24 782.343 Q1972.72 782.343 1971.67 782.226 Q1970.03 790.869 1969.98 791.009 Q1969.77 791.501 1969.35 791.806 Q1968.95 792.11 1968.67 792.18 Q1968.39 792.251 1968.2 792.251 Q1967.73 792.251 1967.27 791.923 Q1966.82 791.618 1966.82 790.915 Q1966.82 790.752 1967.06 789.955 L1969.61 781.898 Q1965.74 781.008 1963.52 778.548 Q1961.29 776.066 1961.29 772.693 Q1961.29 770.538 1962.28 767.727 Q1963.26 764.917 1964.46 763.019 Q1965.65 761.122 1966.33 761.122 Q1966.91 761.122 1966.91 761.614 Q1966.91 761.801 1966.54 762.223 Q1964.64 764.401 1963.59 767.54 Q1962.56 770.655 1962.56 772.154 Q1962.56 774.777 1964.57 776.675 Q1966.61 778.548 1970.43 779.251 Q1972.7 771.896 1974.06 768.805 Q1976.8 762.668 1980.36 761.169 Q1981.67 760.607 1983.12 760.607 Q1985.75 760.607 1987.18 762.457 Q1988.6 764.284 1988.6 767.212 M1987.25 768.266 Q1987.25 767.025 1986.8 765.971 Q1986.38 764.917 1985.3 764.167 Q1984.22 763.394 1982.65 763.394 Q1979.52 763.394 1976.89 766.416 Q1974.27 769.437 1973.15 774.122 L1972.18 779.321 Q1972.18 779.509 1972.82 779.509 Q1973.19 779.556 1973.68 779.556 Q1976.35 779.556 1978.88 778.548 Q1981.44 777.541 1983.24 775.949 Q1985.04 774.356 1986.14 772.318 Q1987.25 770.28 1987.25 768.266 Z" fill="#000000" fill-rule="nonzero" fill-opacity="1" /><path clip-path="url(#clip060)" d="M2023.22 793.714 Q2023.22 795.715 2022.43 797.453 Q2021.66 799.174 2020.15 800.256 Q2018.66 801.338 2016.78 801.338 Q2013.86 801.338 2011.07 799.01 Q2010.51 798.535 2010.12 798.092 Q2009.73 797.649 2008.05 795.616 Q2007.77 796.092 2007.48 796.534 Q2007.18 796.961 2006.35 797.928 Q2005.51 798.895 2004.64 799.568 Q2003.79 800.24 2002.46 800.797 Q2001.15 801.338 1999.79 801.338 Q1998.35 801.338 1997.12 800.683 Q1995.9 800.01 1995.1 798.945 Q1994.31 797.863 1993.87 796.518 Q1993.44 795.157 1993.44 793.747 Q1993.44 791.747 1994.22 790.025 Q1995 788.287 1996.49 787.205 Q1998 786.123 1999.89 786.123 Q2002.82 786.123 2005.59 788.435 Q2006.15 788.91 2006.54 789.353 Q2006.94 789.796 2008.61 791.829 Q2008.82 791.468 2009.05 791.14 Q2009.28 790.796 2009.86 790.042 Q2010.43 789.288 2011.1 788.681 Q2011.79 788.074 2012.66 787.451 Q2013.53 786.828 2014.63 786.484 Q2015.73 786.123 2016.87 786.123 Q2018.32 786.123 2019.53 786.795 Q2020.76 787.451 2021.55 788.533 Q2022.35 789.599 2022.78 790.96 Q2023.22 792.304 2023.22 793.714 M2022.48 793.714 Q2022.48 792.55 2022.14 791.419 Q2021.79 790.288 2021.14 789.337 Q2020.5 788.369 2019.45 787.779 Q2018.4 787.189 2017.12 787.189 Q2015.78 787.189 2014.53 787.763 Q2013.3 788.32 2012.33 789.271 Q2011.38 790.222 2010.73 791.108 Q2010.07 791.993 2009.5 793.009 Q2009.79 793.37 2011.05 795.042 Q2012.33 796.715 2012.87 797.305 Q2015.09 799.715 2017.32 799.715 Q2019.45 799.715 2020.96 797.977 Q2022.48 796.223 2022.48 793.714 M2007.17 794.452 Q2006.89 794.108 2005.59 792.436 Q2004.32 790.747 2003.77 790.157 Q2001.54 787.73 1999.35 787.73 Q1997.22 787.73 1995.69 789.484 Q1994.18 791.239 1994.18 793.747 Q1994.18 794.911 1994.53 796.043 Q1994.87 797.174 1995.51 798.125 Q1996.17 799.076 1997.22 799.666 Q1998.26 800.256 1999.54 800.256 Q2000.63 800.256 2001.66 799.863 Q2002.71 799.469 2003.5 798.879 Q2004.28 798.289 2005.02 797.469 Q2005.76 796.649 2006.23 795.944 Q2006.73 795.239 2007.17 794.452 Z" fill="#000000" fill-rule="nonzero" fill-opacity="1" /></svg>
