<?xml version="1.0" encoding="utf-8"?>
<svg xmlns="http://www.w3.org/2000/svg" xmlns:xlink="http://www.w3.org/1999/xlink" width="600" height="400" viewBox="0 0 2400 1600">
<defs>
  <clipPath id="clip540">
    <rect x="0" y="0" width="2400" height="1600"/>
  </clipPath>
</defs>
<path clip-path="url(#clip540)" d="M0 1600 L2400 1600 L2400 0 L0 0  Z" fill="#ffffff" fill-rule="evenodd" fill-opacity="1"/>
<defs>
  <clipPath id="clip541">
    <rect x="480" y="0" width="1681" height="1600"/>
  </clipPath>
</defs>
<path clip-path="url(#clip540)" d="M202.714 1423.18 L2120.3 1423.18 L2120.3 47.2441 L202.714 47.2441  Z" fill="#ffffff" fill-rule="evenodd" fill-opacity="1"/>
<defs>
  <clipPath id="clip542">
    <rect x="202" y="47" width="1919" height="1377"/>
  </clipPath>
</defs>
<polyline clip-path="url(#clip542)" style="stroke:#000000; stroke-linecap:round; stroke-linejoin:round; stroke-width:2; stroke-opacity:0.1; fill:none" points="256.985,1423.18 256.985,47.2441 "/>
<polyline clip-path="url(#clip542)" style="stroke:#000000; stroke-linecap:round; stroke-linejoin:round; stroke-width:2; stroke-opacity:0.1; fill:none" points="709.245,1423.18 709.245,47.2441 "/>
<polyline clip-path="url(#clip542)" style="stroke:#000000; stroke-linecap:round; stroke-linejoin:round; stroke-width:2; stroke-opacity:0.1; fill:none" points="1161.5,1423.18 1161.5,47.2441 "/>
<polyline clip-path="url(#clip542)" style="stroke:#000000; stroke-linecap:round; stroke-linejoin:round; stroke-width:2; stroke-opacity:0.1; fill:none" points="1613.76,1423.18 1613.76,47.2441 "/>
<polyline clip-path="url(#clip542)" style="stroke:#000000; stroke-linecap:round; stroke-linejoin:round; stroke-width:2; stroke-opacity:0.1; fill:none" points="2066.02,1423.18 2066.02,47.2441 "/>
<polyline clip-path="url(#clip540)" style="stroke:#000000; stroke-linecap:round; stroke-linejoin:round; stroke-width:4; stroke-opacity:1; fill:none" points="202.714,1423.18 2120.3,1423.18 "/>
<polyline clip-path="url(#clip540)" style="stroke:#000000; stroke-linecap:round; stroke-linejoin:round; stroke-width:4; stroke-opacity:1; fill:none" points="256.985,1423.18 256.985,1442.08 "/>
<polyline clip-path="url(#clip540)" style="stroke:#000000; stroke-linecap:round; stroke-linejoin:round; stroke-width:4; stroke-opacity:1; fill:none" points="709.245,1423.18 709.245,1442.08 "/>
<polyline clip-path="url(#clip540)" style="stroke:#000000; stroke-linecap:round; stroke-linejoin:round; stroke-width:4; stroke-opacity:1; fill:none" points="1161.5,1423.18 1161.5,1442.08 "/>
<polyline clip-path="url(#clip540)" style="stroke:#000000; stroke-linecap:round; stroke-linejoin:round; stroke-width:4; stroke-opacity:1; fill:none" points="1613.76,1423.18 1613.76,1442.08 "/>
<polyline clip-path="url(#clip540)" style="stroke:#000000; stroke-linecap:round; stroke-linejoin:round; stroke-width:4; stroke-opacity:1; fill:none" points="2066.02,1423.18 2066.02,1442.08 "/>
<path clip-path="url(#clip540)" d="M219.335 1463.7 Q215.723 1463.7 213.895 1467.26 Q212.089 1470.8 212.089 1477.93 Q212.089 1485.04 213.895 1488.61 Q215.723 1492.15 219.335 1492.15 Q222.969 1492.15 224.774 1488.61 Q226.603 1485.04 226.603 1477.93 Q226.603 1470.8 224.774 1467.26 Q222.969 1463.7 219.335 1463.7 M219.335 1459.99 Q225.145 1459.99 228.2 1464.6 Q231.279 1469.18 231.279 1477.93 Q231.279 1486.66 228.2 1491.27 Q225.145 1495.85 219.335 1495.85 Q213.524 1495.85 210.446 1491.27 Q207.39 1486.66 207.39 1477.93 Q207.39 1469.18 210.446 1464.6 Q213.524 1459.99 219.335 1459.99 Z" fill="#000000" fill-rule="nonzero" fill-opacity="1" /><path clip-path="url(#clip540)" d="M239.496 1489.3 L244.381 1489.3 L244.381 1495.18 L239.496 1495.18 L239.496 1489.3 Z" fill="#000000" fill-rule="nonzero" fill-opacity="1" /><path clip-path="url(#clip540)" d="M264.566 1463.7 Q260.955 1463.7 259.126 1467.26 Q257.32 1470.8 257.32 1477.93 Q257.32 1485.04 259.126 1488.61 Q260.955 1492.15 264.566 1492.15 Q268.2 1492.15 270.006 1488.61 Q271.834 1485.04 271.834 1477.93 Q271.834 1470.8 270.006 1467.26 Q268.2 1463.7 264.566 1463.7 M264.566 1459.99 Q270.376 1459.99 273.431 1464.6 Q276.51 1469.18 276.51 1477.93 Q276.51 1486.66 273.431 1491.27 Q270.376 1495.85 264.566 1495.85 Q258.756 1495.85 255.677 1491.27 Q252.621 1486.66 252.621 1477.93 Q252.621 1469.18 255.677 1464.6 Q258.756 1459.99 264.566 1459.99 Z" fill="#000000" fill-rule="nonzero" fill-opacity="1" /><path clip-path="url(#clip540)" d="M294.728 1478.77 Q291.394 1478.77 289.473 1480.55 Q287.575 1482.33 287.575 1485.46 Q287.575 1488.58 289.473 1490.37 Q291.394 1492.15 294.728 1492.15 Q298.061 1492.15 299.982 1490.37 Q301.904 1488.56 301.904 1485.46 Q301.904 1482.33 299.982 1480.55 Q298.084 1478.77 294.728 1478.77 M290.052 1476.78 Q287.042 1476.04 285.353 1473.98 Q283.686 1471.92 283.686 1468.95 Q283.686 1464.81 286.626 1462.4 Q289.589 1459.99 294.728 1459.99 Q299.89 1459.99 302.829 1462.4 Q305.769 1464.81 305.769 1468.95 Q305.769 1471.92 304.079 1473.98 Q302.413 1476.04 299.427 1476.78 Q302.806 1477.56 304.681 1479.86 Q306.579 1482.15 306.579 1485.46 Q306.579 1490.48 303.501 1493.17 Q300.445 1495.85 294.728 1495.85 Q289.01 1495.85 285.931 1493.17 Q282.876 1490.48 282.876 1485.46 Q282.876 1482.15 284.774 1479.86 Q286.672 1477.56 290.052 1476.78 M288.339 1469.39 Q288.339 1472.08 290.005 1473.58 Q291.695 1475.09 294.728 1475.09 Q297.737 1475.09 299.427 1473.58 Q301.14 1472.08 301.14 1469.39 Q301.14 1466.71 299.427 1465.2 Q297.737 1463.7 294.728 1463.7 Q291.695 1463.7 290.005 1465.2 Q288.339 1466.71 288.339 1469.39 Z" fill="#000000" fill-rule="nonzero" fill-opacity="1" /><path clip-path="url(#clip540)" d="M671.548 1463.7 Q667.937 1463.7 666.108 1467.26 Q664.303 1470.8 664.303 1477.93 Q664.303 1485.04 666.108 1488.61 Q667.937 1492.15 671.548 1492.15 Q675.182 1492.15 676.988 1488.61 Q678.817 1485.04 678.817 1477.93 Q678.817 1470.8 676.988 1467.26 Q675.182 1463.7 671.548 1463.7 M671.548 1459.99 Q677.358 1459.99 680.414 1464.6 Q683.493 1469.18 683.493 1477.93 Q683.493 1486.66 680.414 1491.27 Q677.358 1495.85 671.548 1495.85 Q665.738 1495.85 662.659 1491.27 Q659.604 1486.66 659.604 1477.93 Q659.604 1469.18 662.659 1464.6 Q665.738 1459.99 671.548 1459.99 Z" fill="#000000" fill-rule="nonzero" fill-opacity="1" /><path clip-path="url(#clip540)" d="M691.71 1489.3 L696.594 1489.3 L696.594 1495.18 L691.71 1495.18 L691.71 1489.3 Z" fill="#000000" fill-rule="nonzero" fill-opacity="1" /><path clip-path="url(#clip540)" d="M707.59 1491.24 L715.229 1491.24 L715.229 1464.88 L706.918 1466.55 L706.918 1462.29 L715.182 1460.62 L719.858 1460.62 L719.858 1491.24 L727.497 1491.24 L727.497 1495.18 L707.59 1495.18 L707.59 1491.24 Z" fill="#000000" fill-rule="nonzero" fill-opacity="1" /><path clip-path="url(#clip540)" d="M746.941 1463.7 Q743.33 1463.7 741.502 1467.26 Q739.696 1470.8 739.696 1477.93 Q739.696 1485.04 741.502 1488.61 Q743.33 1492.15 746.941 1492.15 Q750.576 1492.15 752.381 1488.61 Q754.21 1485.04 754.21 1477.93 Q754.21 1470.8 752.381 1467.26 Q750.576 1463.7 746.941 1463.7 M746.941 1459.99 Q752.752 1459.99 755.807 1464.6 Q758.886 1469.18 758.886 1477.93 Q758.886 1486.66 755.807 1491.27 Q752.752 1495.85 746.941 1495.85 Q741.131 1495.85 738.053 1491.27 Q734.997 1486.66 734.997 1477.93 Q734.997 1469.18 738.053 1464.6 Q741.131 1459.99 746.941 1459.99 Z" fill="#000000" fill-rule="nonzero" fill-opacity="1" /><path clip-path="url(#clip540)" d="M1124.61 1463.7 Q1121 1463.7 1119.17 1467.26 Q1117.36 1470.8 1117.36 1477.93 Q1117.36 1485.04 1119.17 1488.61 Q1121 1492.15 1124.61 1492.15 Q1128.24 1492.15 1130.05 1488.61 Q1131.88 1485.04 1131.88 1477.93 Q1131.88 1470.8 1130.05 1467.26 Q1128.24 1463.7 1124.61 1463.7 M1124.61 1459.99 Q1130.42 1459.99 1133.47 1464.6 Q1136.55 1469.18 1136.55 1477.93 Q1136.55 1486.66 1133.47 1491.27 Q1130.42 1495.85 1124.61 1495.85 Q1118.8 1495.85 1115.72 1491.27 Q1112.66 1486.66 1112.66 1477.93 Q1112.66 1469.18 1115.72 1464.6 Q1118.8 1459.99 1124.61 1459.99 Z" fill="#000000" fill-rule="nonzero" fill-opacity="1" /><path clip-path="url(#clip540)" d="M1144.77 1489.3 L1149.65 1489.3 L1149.65 1495.18 L1144.77 1495.18 L1144.77 1489.3 Z" fill="#000000" fill-rule="nonzero" fill-opacity="1" /><path clip-path="url(#clip540)" d="M1160.65 1491.24 L1168.29 1491.24 L1168.29 1464.88 L1159.98 1466.55 L1159.98 1462.29 L1168.24 1460.62 L1172.92 1460.62 L1172.92 1491.24 L1180.56 1491.24 L1180.56 1495.18 L1160.65 1495.18 L1160.65 1491.24 Z" fill="#000000" fill-rule="nonzero" fill-opacity="1" /><path clip-path="url(#clip540)" d="M1194.03 1491.24 L1210.35 1491.24 L1210.35 1495.18 L1188.4 1495.18 L1188.4 1491.24 Q1191.06 1488.49 1195.65 1483.86 Q1200.25 1479.21 1201.44 1477.87 Q1203.68 1475.34 1204.56 1473.61 Q1205.46 1471.85 1205.46 1470.16 Q1205.46 1467.4 1203.52 1465.67 Q1201.6 1463.93 1198.5 1463.93 Q1196.3 1463.93 1193.84 1464.69 Q1191.41 1465.46 1188.63 1467.01 L1188.63 1462.29 Q1191.46 1461.15 1193.91 1460.57 Q1196.37 1459.99 1198.4 1459.99 Q1203.77 1459.99 1206.97 1462.68 Q1210.16 1465.37 1210.16 1469.86 Q1210.16 1471.99 1209.35 1473.91 Q1208.56 1475.8 1206.46 1478.4 Q1205.88 1479.07 1202.78 1482.29 Q1199.68 1485.48 1194.03 1491.24 Z" fill="#000000" fill-rule="nonzero" fill-opacity="1" /><path clip-path="url(#clip540)" d="M1575.83 1463.7 Q1572.21 1463.7 1570.39 1467.26 Q1568.58 1470.8 1568.58 1477.93 Q1568.58 1485.04 1570.39 1488.61 Q1572.21 1492.15 1575.83 1492.15 Q1579.46 1492.15 1581.27 1488.61 Q1583.09 1485.04 1583.09 1477.93 Q1583.09 1470.8 1581.27 1467.26 Q1579.46 1463.7 1575.83 1463.7 M1575.83 1459.99 Q1581.64 1459.99 1584.69 1464.6 Q1587.77 1469.18 1587.77 1477.93 Q1587.77 1486.66 1584.69 1491.27 Q1581.64 1495.85 1575.83 1495.85 Q1570.02 1495.85 1566.94 1491.27 Q1563.88 1486.66 1563.88 1477.93 Q1563.88 1469.18 1566.94 1464.6 Q1570.02 1459.99 1575.83 1459.99 Z" fill="#000000" fill-rule="nonzero" fill-opacity="1" /><path clip-path="url(#clip540)" d="M1595.99 1489.3 L1600.87 1489.3 L1600.87 1495.18 L1595.99 1495.18 L1595.99 1489.3 Z" fill="#000000" fill-rule="nonzero" fill-opacity="1" /><path clip-path="url(#clip540)" d="M1611.87 1491.24 L1619.51 1491.24 L1619.51 1464.88 L1611.2 1466.55 L1611.2 1462.29 L1619.46 1460.62 L1624.14 1460.62 L1624.14 1491.24 L1631.77 1491.24 L1631.77 1495.18 L1611.87 1495.18 L1611.87 1491.24 Z" fill="#000000" fill-rule="nonzero" fill-opacity="1" /><path clip-path="url(#clip540)" d="M1654.07 1464.69 L1642.26 1483.14 L1654.07 1483.14 L1654.07 1464.69 M1652.84 1460.62 L1658.72 1460.62 L1658.72 1483.14 L1663.65 1483.14 L1663.65 1487.03 L1658.72 1487.03 L1658.72 1495.18 L1654.07 1495.18 L1654.07 1487.03 L1638.46 1487.03 L1638.46 1482.52 L1652.84 1460.62 Z" fill="#000000" fill-rule="nonzero" fill-opacity="1" /><path clip-path="url(#clip540)" d="M2028.25 1463.7 Q2024.64 1463.7 2022.81 1467.26 Q2021 1470.8 2021 1477.93 Q2021 1485.04 2022.81 1488.61 Q2024.64 1492.15 2028.25 1492.15 Q2031.88 1492.15 2033.69 1488.61 Q2035.52 1485.04 2035.52 1477.93 Q2035.52 1470.8 2033.69 1467.26 Q2031.88 1463.7 2028.25 1463.7 M2028.25 1459.99 Q2034.06 1459.99 2037.11 1464.6 Q2040.19 1469.18 2040.19 1477.93 Q2040.19 1486.66 2037.11 1491.27 Q2034.06 1495.85 2028.25 1495.85 Q2022.44 1495.85 2019.36 1491.27 Q2016.3 1486.66 2016.3 1477.93 Q2016.3 1469.18 2019.36 1464.6 Q2022.44 1459.99 2028.25 1459.99 Z" fill="#000000" fill-rule="nonzero" fill-opacity="1" /><path clip-path="url(#clip540)" d="M2048.41 1489.3 L2053.29 1489.3 L2053.29 1495.18 L2048.41 1495.18 L2048.41 1489.3 Z" fill="#000000" fill-rule="nonzero" fill-opacity="1" /><path clip-path="url(#clip540)" d="M2064.29 1491.24 L2071.93 1491.24 L2071.93 1464.88 L2063.62 1466.55 L2063.62 1462.29 L2071.88 1460.62 L2076.56 1460.62 L2076.56 1491.24 L2084.2 1491.24 L2084.2 1495.18 L2064.29 1495.18 L2064.29 1491.24 Z" fill="#000000" fill-rule="nonzero" fill-opacity="1" /><path clip-path="url(#clip540)" d="M2104.22 1476.04 Q2101.07 1476.04 2099.22 1478.19 Q2097.39 1480.34 2097.39 1484.09 Q2097.39 1487.82 2099.22 1489.99 Q2101.07 1492.15 2104.22 1492.15 Q2107.37 1492.15 2109.2 1489.99 Q2111.05 1487.82 2111.05 1484.09 Q2111.05 1480.34 2109.2 1478.19 Q2107.37 1476.04 2104.22 1476.04 M2113.5 1461.38 L2113.5 1465.64 Q2111.74 1464.81 2109.94 1464.37 Q2108.15 1463.93 2106.4 1463.93 Q2101.77 1463.93 2099.31 1467.05 Q2096.88 1470.18 2096.53 1476.5 Q2097.9 1474.49 2099.96 1473.42 Q2102.02 1472.33 2104.5 1472.33 Q2109.71 1472.33 2112.71 1475.5 Q2115.75 1478.65 2115.75 1484.09 Q2115.75 1489.42 2112.6 1492.63 Q2109.45 1495.85 2104.22 1495.85 Q2098.22 1495.85 2095.05 1491.27 Q2091.88 1486.66 2091.88 1477.93 Q2091.88 1469.74 2095.77 1464.88 Q2099.66 1459.99 2106.21 1459.99 Q2107.97 1459.99 2109.75 1460.34 Q2111.56 1460.69 2113.5 1461.38 Z" fill="#000000" fill-rule="nonzero" fill-opacity="1" /><path clip-path="url(#clip540)" d="M1113.12 1512.11 Q1113.12 1512.59 1112.77 1513.3 Q1112.44 1513.94 1111.77 1514.36 Q1111.12 1514.75 1110.41 1514.75 Q1110.19 1514.75 1109.67 1514.62 Q1108.8 1514.23 1107.45 1513.36 Q1106.1 1512.49 1104.88 1511.95 Q1103.68 1511.37 1102.36 1511.3 Q1101.2 1511.3 1100.24 1511.72 Q1099.37 1512.21 1098.79 1513.24 Q1098.53 1513.65 1098.53 1514.36 Q1098.53 1515.36 1099.08 1516.68 Q1099.63 1518 1100.75 1519.71 Q1101.91 1521.42 1102.75 1522.58 Q1103.59 1523.7 1105.04 1525.57 Q1105.17 1525.73 1105.23 1525.83 Q1105.29 1525.89 1105.39 1526.05 Q1105.49 1526.18 1105.58 1526.28 Q1108.64 1530.11 1109.42 1534.33 Q1109.61 1535.81 1109.61 1537.36 Q1109.61 1540.45 1108.68 1544.09 Q1107.87 1547.41 1106.16 1550.27 Q1104.46 1553.11 1101.88 1554.97 Q1099.34 1556.84 1096.57 1556.84 Q1093.83 1556.84 1091.57 1555.65 Q1089.32 1554.43 1087.97 1552.33 Q1086.13 1549.56 1086.13 1545.73 Q1086.13 1543.57 1086.65 1541.74 Q1087.36 1538.81 1089.03 1536.1 Q1090.7 1533.4 1093.12 1531.3 Q1096.79 1528.21 1100.79 1527.34 Q1098.92 1523.8 1097.82 1521.06 Q1096.76 1518.29 1096.76 1515.94 Q1096.76 1513.88 1097.53 1512.56 Q1098.21 1511.14 1099.59 1510.34 Q1100.75 1509.63 1102.43 1509.27 Q1103.46 1509.15 1104.13 1509.15 Q1106.42 1509.15 1111.74 1510.4 Q1113.12 1510.72 1113.12 1512.11 M1105.07 1540 Q1105.07 1538.03 1104.75 1536.71 Q1104.13 1533.49 1101.69 1529.05 L1101.49 1528.73 Q1098.37 1529.63 1095.83 1532.37 Q1092.64 1535.72 1091.03 1542.06 Q1090.16 1545.6 1090.16 1547.6 Q1090.16 1549.76 1090.96 1551.63 Q1091.74 1553.36 1093.18 1554.36 Q1094.67 1555.36 1096.63 1555.36 Q1098.11 1555.36 1099.4 1554.52 Q1100.69 1553.65 1101.62 1552.14 Q1102.56 1550.63 1103.2 1548.98 Q1103.88 1547.31 1104.39 1545.34 Q1105.07 1542.7 1105.07 1540 Z" fill="#000000" fill-rule="nonzero" fill-opacity="1" /><path clip-path="url(#clip540)" d="M1147.17 1551.78 Q1147.17 1553.88 1146.11 1557.94 Q1145.68 1559.7 1145.09 1561.3 Q1144.53 1562.88 1143.7 1564.41 Q1142.86 1565.94 1141.89 1567.05 Q1140.92 1568.13 1139.66 1568.81 Q1138.4 1569.48 1137 1569.48 Q1134.79 1569.48 1133.48 1568.17 Q1132.2 1566.84 1131.79 1564.57 Q1128.77 1569.48 1124.74 1569.48 Q1122.23 1569.48 1121.06 1567.7 Q1119.89 1565.9 1119.89 1562.88 Q1119.89 1560.33 1120.57 1557.69 Q1121.85 1552.69 1124.35 1549.19 Q1124.69 1548.79 1125.19 1548.79 Q1125.48 1548.79 1125.62 1548.88 Q1126.02 1549.12 1126.02 1549.53 Q1126.02 1549.82 1125.8 1550.12 Q1124.22 1552.3 1123.18 1554.17 Q1122.14 1556.05 1121.67 1557.94 Q1121.31 1559.56 1121.31 1560.94 Q1121.31 1563.26 1122.3 1564.7 Q1123.32 1566.15 1125.32 1566.15 Q1127.17 1566.15 1128.8 1565 Q1130.42 1563.82 1131.61 1561.86 Q1131.68 1559.72 1132.2 1557.69 Q1132.67 1555.53 1133.78 1555.53 Q1134.66 1555.53 1134.66 1556.72 Q1134.66 1557.13 1134.48 1557.94 Q1133.98 1560.08 1133.08 1562 Q1133.39 1563.87 1134.57 1565.02 Q1135.74 1566.15 1137.61 1566.15 Q1139.35 1566.15 1140.88 1564.88 Q1142.43 1563.62 1143.43 1561.77 Q1144.44 1559.9 1145 1557.69 Q1145.18 1556.95 1145.18 1556 Q1145.18 1553.48 1143.43 1551.92 Q1142.93 1551.42 1142.93 1550.77 Q1142.93 1550 1143.56 1549.31 Q1144.31 1548.56 1145.18 1548.56 Q1145.84 1548.56 1146.24 1548.97 Q1147.17 1549.78 1147.17 1551.78 Z" fill="#000000" fill-rule="nonzero" fill-opacity="1" /><path clip-path="url(#clip540)" d="M1154.88 1556.67 Q1153.95 1555.61 1153.95 1554.22 Q1153.95 1552.84 1154.85 1551.81 Q1155.78 1550.75 1157.46 1550.75 Q1159.42 1550.75 1160.55 1552.65 Q1161.68 1554.51 1161.68 1557.67 Q1161.68 1561.08 1160.29 1564.24 Q1158.91 1567.43 1157.55 1568.94 Q1156.2 1570.46 1155.65 1570.46 Q1155.01 1570.46 1155.01 1569.75 Q1155.01 1569.49 1155.46 1569.01 Q1160.19 1563.92 1160.23 1557.67 Q1160.23 1556.67 1160.1 1556.67 L1159.94 1556.8 Q1158.81 1557.73 1157.46 1557.73 Q1155.81 1557.73 1154.88 1556.67 Z" fill="#000000" fill-rule="nonzero" fill-opacity="1" /><path clip-path="url(#clip540)" d="M1182.49 1521.54 Q1182.49 1515.87 1185.39 1512.07 Q1188.29 1508.27 1192.19 1508.27 Q1194.57 1508.27 1196.92 1510.39 Q1202.27 1515.48 1209.25 1515.45 Q1217.18 1515.45 1221.78 1509.2 Q1222.59 1508.27 1223.17 1508.27 Q1223.68 1508.27 1224.07 1508.69 Q1224.49 1509.07 1224.49 1509.59 Q1224.49 1509.97 1223.97 1510.78 L1190.61 1560.44 Q1189.87 1561.44 1189.29 1561.44 Q1188.77 1561.44 1188.35 1561.02 Q1187.97 1560.63 1187.97 1560.12 Q1187.97 1559.67 1188.55 1558.8 L1218.18 1514.68 L1218.11 1514.61 Q1214.7 1516.93 1209.32 1516.9 Q1204.23 1516.9 1199.37 1514.13 Q1200.75 1517.54 1200.75 1521.6 Q1200.75 1527.14 1198.27 1531 Q1195.79 1534.84 1192.19 1534.84 Q1188.29 1534.84 1185.39 1531.1 Q1182.49 1527.33 1182.49 1521.54 M1187.03 1516.16 Q1186.58 1518.48 1186.58 1521.6 Q1186.58 1524.69 1187.03 1527.01 Q1187.48 1529.3 1188.13 1530.49 Q1188.8 1531.68 1189.71 1532.39 Q1190.61 1533.07 1191.15 1533.23 Q1191.7 1533.39 1192.25 1533.39 Q1194.95 1533.39 1197.02 1530.04 Q1199.11 1526.66 1199.11 1521.54 Q1199.11 1516.51 1197.02 1513.13 Q1194.95 1509.72 1192.25 1509.72 Q1191.67 1509.72 1191.09 1509.88 Q1190.54 1510.04 1189.67 1510.75 Q1188.8 1511.42 1188.13 1512.61 Q1187.48 1513.81 1187.03 1516.16 M1211.7 1548.11 Q1211.7 1542.44 1214.6 1538.64 Q1217.5 1534.84 1221.4 1534.84 Q1224.97 1534.84 1227.45 1538.7 Q1229.96 1542.57 1229.96 1548.17 Q1229.96 1553.71 1227.48 1557.57 Q1225.04 1561.44 1221.4 1561.44 Q1217.5 1561.44 1214.6 1557.67 Q1211.7 1553.9 1211.7 1548.11 M1216.24 1542.73 Q1215.79 1545.08 1215.79 1548.17 Q1215.79 1551.26 1216.24 1553.58 Q1216.73 1555.9 1217.37 1557.09 Q1218.05 1558.25 1218.92 1558.93 Q1219.82 1559.64 1220.37 1559.8 Q1220.94 1559.99 1221.46 1559.99 Q1224.17 1559.99 1226.23 1556.64 Q1228.32 1553.26 1228.32 1548.11 Q1228.32 1543.08 1226.23 1539.7 Q1224.17 1536.29 1221.46 1536.29 Q1220.88 1536.29 1220.3 1536.48 Q1219.75 1536.64 1218.88 1537.35 Q1218.05 1538.02 1217.37 1539.22 Q1216.73 1540.38 1216.24 1542.73 Z" fill="#000000" fill-rule="nonzero" fill-opacity="1" /><polyline clip-path="url(#clip540)" style="stroke:#000000; stroke-linecap:round; stroke-linejoin:round; stroke-width:4; stroke-opacity:1; fill:none" points="202.714,1423.18 202.714,47.2441 "/>
<polyline clip-path="url(#clip540)" style="stroke:#000000; stroke-linecap:round; stroke-linejoin:round; stroke-width:4; stroke-opacity:1; fill:none" points="202.714,1292.48 183.816,1292.48 "/>
<polyline clip-path="url(#clip540)" style="stroke:#000000; stroke-linecap:round; stroke-linejoin:round; stroke-width:4; stroke-opacity:1; fill:none" points="202.714,1059.9 183.816,1059.9 "/>
<polyline clip-path="url(#clip540)" style="stroke:#000000; stroke-linecap:round; stroke-linejoin:round; stroke-width:4; stroke-opacity:1; fill:none" points="202.714,827.316 183.816,827.316 "/>
<polyline clip-path="url(#clip540)" style="stroke:#000000; stroke-linecap:round; stroke-linejoin:round; stroke-width:4; stroke-opacity:1; fill:none" points="202.714,594.734 183.816,594.734 "/>
<polyline clip-path="url(#clip540)" style="stroke:#000000; stroke-linecap:round; stroke-linejoin:round; stroke-width:4; stroke-opacity:1; fill:none" points="202.714,362.153 183.816,362.153 "/>
<polyline clip-path="url(#clip540)" style="stroke:#000000; stroke-linecap:round; stroke-linejoin:round; stroke-width:4; stroke-opacity:1; fill:none" points="202.714,129.571 183.816,129.571 "/>
<path clip-path="url(#clip540)" d="M127.093 1309.04 L127.093 1304.78 Q128.853 1305.62 130.658 1306.05 Q132.464 1306.49 134.2 1306.49 Q138.829 1306.49 141.26 1303.39 Q143.714 1300.27 144.061 1293.93 Q142.718 1295.92 140.658 1296.98 Q138.598 1298.05 136.098 1298.05 Q130.913 1298.05 127.88 1294.92 Q124.871 1291.77 124.871 1286.33 Q124.871 1281.01 128.019 1277.79 Q131.167 1274.57 136.399 1274.57 Q142.394 1274.57 145.542 1279.18 Q148.714 1283.76 148.714 1292.51 Q148.714 1300.68 144.825 1305.57 Q140.959 1310.43 134.408 1310.43 Q132.649 1310.43 130.843 1310.08 Q129.038 1309.74 127.093 1309.04 M136.399 1294.39 Q139.547 1294.39 141.376 1292.24 Q143.227 1290.08 143.227 1286.33 Q143.227 1282.61 141.376 1280.45 Q139.547 1278.28 136.399 1278.28 Q133.251 1278.28 131.399 1280.45 Q129.57 1282.61 129.57 1286.33 Q129.57 1290.08 131.399 1292.24 Q133.251 1294.39 136.399 1294.39 Z" fill="#000000" fill-rule="nonzero" fill-opacity="1" /><path clip-path="url(#clip540)" d="M97.4176 1073.24 L105.056 1073.24 L105.056 1046.88 L96.7463 1048.54 L96.7463 1044.28 L105.01 1042.62 L109.686 1042.62 L109.686 1073.24 L117.325 1073.24 L117.325 1077.18 L97.4176 1077.18 L97.4176 1073.24 Z" fill="#000000" fill-rule="nonzero" fill-opacity="1" /><path clip-path="url(#clip540)" d="M136.769 1045.7 Q133.158 1045.7 131.329 1049.26 Q129.524 1052.8 129.524 1059.93 Q129.524 1067.04 131.329 1070.6 Q133.158 1074.14 136.769 1074.14 Q140.403 1074.14 142.209 1070.6 Q144.038 1067.04 144.038 1059.93 Q144.038 1052.8 142.209 1049.26 Q140.403 1045.7 136.769 1045.7 M136.769 1041.99 Q142.579 1041.99 145.635 1046.6 Q148.714 1051.18 148.714 1059.93 Q148.714 1068.66 145.635 1073.27 Q142.579 1077.85 136.769 1077.85 Q130.959 1077.85 127.88 1073.27 Q124.825 1068.66 124.825 1059.93 Q124.825 1051.18 127.88 1046.6 Q130.959 1041.99 136.769 1041.99 Z" fill="#000000" fill-rule="nonzero" fill-opacity="1" /><path clip-path="url(#clip540)" d="M98.6444 840.66 L106.283 840.66 L106.283 814.295 L97.9731 815.961 L97.9731 811.702 L106.237 810.036 L110.913 810.036 L110.913 840.66 L118.552 840.66 L118.552 844.596 L98.6444 844.596 L98.6444 840.66 Z" fill="#000000" fill-rule="nonzero" fill-opacity="1" /><path clip-path="url(#clip540)" d="M128.806 840.66 L136.445 840.66 L136.445 814.295 L128.135 815.961 L128.135 811.702 L136.399 810.036 L141.075 810.036 L141.075 840.66 L148.714 840.66 L148.714 844.596 L128.806 844.596 L128.806 840.66 Z" fill="#000000" fill-rule="nonzero" fill-opacity="1" /><path clip-path="url(#clip540)" d="M99.0148 608.079 L106.654 608.079 L106.654 581.713 L98.3435 583.38 L98.3435 579.121 L106.607 577.454 L111.283 577.454 L111.283 608.079 L118.922 608.079 L118.922 612.014 L99.0148 612.014 L99.0148 608.079 Z" fill="#000000" fill-rule="nonzero" fill-opacity="1" /><path clip-path="url(#clip540)" d="M132.394 608.079 L148.714 608.079 L148.714 612.014 L126.769 612.014 L126.769 608.079 Q129.431 605.324 134.015 600.695 Q138.621 596.042 139.802 594.699 Q142.047 592.176 142.927 590.44 Q143.829 588.681 143.829 586.991 Q143.829 584.236 141.885 582.5 Q139.964 580.764 136.862 580.764 Q134.663 580.764 132.209 581.528 Q129.778 582.292 127.001 583.843 L127.001 579.121 Q129.825 577.986 132.278 577.408 Q134.732 576.829 136.769 576.829 Q142.14 576.829 145.334 579.514 Q148.528 582.199 148.528 586.69 Q148.528 588.82 147.718 590.741 Q146.931 592.639 144.825 595.232 Q144.246 595.903 141.144 599.121 Q138.042 602.315 132.394 608.079 Z" fill="#000000" fill-rule="nonzero" fill-opacity="1" /><path clip-path="url(#clip540)" d="M98.0657 375.497 L105.705 375.497 L105.705 349.132 L97.3944 350.798 L97.3944 346.539 L105.658 344.873 L110.334 344.873 L110.334 375.497 L117.973 375.497 L117.973 379.433 L98.0657 379.433 L98.0657 375.497 Z" fill="#000000" fill-rule="nonzero" fill-opacity="1" /><path clip-path="url(#clip540)" d="M141.584 360.798 Q144.94 361.516 146.815 363.784 Q148.714 366.053 148.714 369.386 Q148.714 374.502 145.195 377.303 Q141.677 380.104 135.195 380.104 Q133.019 380.104 130.704 379.664 Q128.413 379.247 125.959 378.391 L125.959 373.877 Q127.904 375.011 130.218 375.59 Q132.533 376.169 135.056 376.169 Q139.454 376.169 141.746 374.433 Q144.061 372.696 144.061 369.386 Q144.061 366.331 141.908 364.618 Q139.778 362.882 135.959 362.882 L131.931 362.882 L131.931 359.039 L136.144 359.039 Q139.593 359.039 141.422 357.673 Q143.251 356.284 143.251 353.692 Q143.251 351.03 141.353 349.618 Q139.478 348.183 135.959 348.183 Q134.038 348.183 131.839 348.599 Q129.64 349.016 127.001 349.896 L127.001 345.729 Q129.663 344.988 131.978 344.618 Q134.316 344.248 136.376 344.248 Q141.7 344.248 144.802 346.678 Q147.903 349.085 147.903 353.206 Q147.903 356.076 146.26 358.067 Q144.616 360.034 141.584 360.798 Z" fill="#000000" fill-rule="nonzero" fill-opacity="1" /><path clip-path="url(#clip540)" d="M96.9315 142.916 L104.57 142.916 L104.57 116.55 L96.2602 118.217 L96.2602 113.958 L104.524 112.291 L109.2 112.291 L109.2 142.916 L116.839 142.916 L116.839 146.851 L96.9315 146.851 L96.9315 142.916 Z" fill="#000000" fill-rule="nonzero" fill-opacity="1" /><path clip-path="url(#clip540)" d="M139.13 116.365 L127.325 134.814 L139.13 134.814 L139.13 116.365 M137.903 112.291 L143.783 112.291 L143.783 134.814 L148.714 134.814 L148.714 138.703 L143.783 138.703 L143.783 146.851 L139.13 146.851 L139.13 138.703 L123.529 138.703 L123.529 134.189 L137.903 112.291 Z" fill="#000000" fill-rule="nonzero" fill-opacity="1" /><path clip-path="url(#clip540)" d="M36.1996 771.925 Q37.1013 771.925 37.3268 772.343 Q37.52 772.762 37.52 773.921 L37.52 780.105 L56.9723 785 Q58.6792 785.387 60.1285 785.387 Q61.7388 785.387 62.4473 784.904 Q63.1559 784.388 63.1559 783.325 Q63.1559 781.232 61.2557 778.978 Q59.3556 776.691 54.7179 774.759 Q54.106 774.501 53.9772 774.372 Q53.8162 774.211 53.8162 773.793 Q53.8162 772.987 54.4603 772.987 Q54.6857 772.987 55.7163 773.438 Q56.7469 773.857 58.2606 774.791 Q59.7742 775.693 61.1913 776.884 Q62.6084 778.044 63.6389 779.815 Q64.6373 781.586 64.6373 783.487 Q64.6373 786.16 62.9304 787.867 Q61.2235 789.541 58.5504 789.541 Q57.6809 789.541 54.9112 788.865 Q52.1092 788.189 37.52 784.517 L37.52 790.346 Q37.52 791.152 37.4878 791.474 Q37.4556 791.763 37.2946 791.989 Q37.1013 792.182 36.7148 792.182 Q36.1029 792.182 35.8453 791.924 Q35.5554 791.667 35.5232 791.345 Q35.4588 790.99 35.4588 790.185 L35.4588 784.002 L24.9919 781.425 Q23.9613 781.168 23.3816 780.524 Q22.7697 779.847 22.7053 779.461 Q22.6087 779.074 22.6087 778.784 Q22.6087 777.915 23.0918 777.4 Q23.5427 776.884 24.38 776.884 Q24.8309 776.884 35.4588 779.59 L35.4588 773.793 Q35.4588 773.052 35.491 772.762 Q35.5232 772.44 35.6843 772.182 Q35.8453 771.925 36.1996 771.925 Z" fill="#000000" fill-rule="nonzero" fill-opacity="1" /><path clip-path="url(#clip540)" d="M76.4369 765.08 L75.3773 765.08 L75.3773 764.696 Q75.3773 762.667 74.9941 762.081 Q74.5883 761.473 73.2582 761.473 L59.7317 761.473 Q58.4016 761.518 57.9958 762.126 Q57.59 762.712 57.59 764.741 L57.59 765.08 L56.5756 765.08 L56.5756 741.859 L57.59 741.859 L57.59 742.175 Q57.59 744.249 57.9958 744.835 Q58.3791 745.399 59.7317 745.444 L73.2582 745.444 Q74.5883 745.399 74.9941 744.835 Q75.3773 744.249 75.3773 742.22 L75.3773 741.859 L76.4369 741.859 Q76.3016 744.542 76.3016 747.202 L76.3016 747.382 Q76.3016 749.547 76.4369 752.229 L75.3773 752.229 L75.3773 751.959 Q75.3773 749.659 74.9039 749.163 Q74.4079 748.645 72.6495 748.645 Q72.4691 748.645 72.0634 748.667 Q71.635 748.69 71.4547 748.69 L59.6866 748.69 Q58.3114 748.69 57.9507 749.096 Q57.59 749.479 57.59 750.99 L57.59 756.49 Q57.59 757.55 57.9733 757.888 Q58.334 758.204 59.3485 758.249 L73.2582 758.249 Q74.5883 758.204 74.9941 757.618 Q75.3773 757.031 75.3773 755.002 L75.3773 754.687 L76.4369 754.687 Q76.3016 757.37 76.3016 760.052 L76.3016 760.233 Q76.3016 762.397 76.4369 765.08 Z" fill="#000000" fill-rule="nonzero" fill-opacity="1" /><path clip-path="url(#clip540)" d="M62.8338 734.115 Q61.771 735.049 60.3862 735.049 Q59.0013 735.049 57.9707 734.147 Q56.9079 733.213 56.9079 731.539 Q56.9079 729.574 58.8081 728.447 Q60.676 727.32 63.8322 727.32 Q67.246 727.32 70.4022 728.704 Q73.5906 730.089 75.1042 731.442 Q76.6179 732.795 76.6179 733.342 Q76.6179 733.986 75.9094 733.986 Q75.6517 733.986 75.1686 733.535 Q70.0801 728.801 63.8322 728.769 Q62.8338 728.769 62.8338 728.898 L62.9626 729.059 Q63.8966 730.186 63.8966 731.539 Q63.8966 733.181 62.8338 734.115 Z" fill="#000000" fill-rule="nonzero" fill-opacity="1" /><path clip-path="url(#clip540)" d="M56.2638 681.093 Q56.5537 680.836 56.8435 680.836 Q57.1334 680.836 57.9707 681.48 Q58.8081 682.092 59.9353 683.412 Q61.0625 684.733 62.1253 686.44 Q63.1881 688.147 63.8966 690.659 Q64.6373 693.171 64.6373 695.812 Q64.6373 700.739 61.3845 703.638 Q58.1317 706.504 53.4619 706.504 Q48.9209 706.504 44.5731 703.96 Q40.1931 701.415 37.4878 697.293 Q34.7503 693.171 34.7503 688.823 Q34.7503 685.377 36.3606 683.219 Q37.9709 681.061 40.4185 681.061 Q42.3187 681.061 43.4781 682.156 Q44.6375 683.251 44.6375 684.733 Q44.6375 685.763 44.0578 686.472 Q43.4459 687.18 42.3187 687.18 Q40.8694 687.18 39.7422 685.989 Q39.2913 685.538 39.0981 685.023 Q38.8726 684.475 38.8726 684.153 Q38.8404 683.831 38.8404 683.09 Q37.5844 683.767 36.9081 685.377 Q36.1996 686.955 36.1996 688.758 Q36.1996 691.432 38.0675 693.976 Q39.9032 696.52 42.8018 698.066 Q45.6359 699.612 49.6616 700.61 Q53.6551 701.609 55.974 701.609 Q59.1623 701.609 61.1591 700.127 Q63.1559 698.646 63.1559 695.683 Q63.1559 695.103 63.1237 694.491 Q63.0914 693.847 62.7372 692.237 Q62.3829 690.594 61.771 689.145 Q61.1591 687.696 59.8387 685.86 Q58.486 683.992 56.6503 682.511 Q55.974 681.995 55.974 681.641 Q55.974 681.351 56.2638 681.093 Z" fill="#000000" fill-rule="nonzero" fill-opacity="1" /><polyline clip-path="url(#clip542)" style="stroke:#ff0000; stroke-linecap:round; stroke-linejoin:round; stroke-width:4; stroke-opacity:1; fill:none" points="256.985,177.733 269.126,116.777 281.267,139.173 293.408,173.187 305.55,110.626 317.691,145.847 329.832,86.1857 341.973,117.003 354.114,144.325 366.256,128.803 378.397,164.53 390.538,145.928 402.679,94.2687 414.82,116.921 426.962,145.152 439.103,136.47 451.244,122.919 463.385,524.336 475.527,588.007 487.668,585.718 499.809,532.942 511.95,562.883 524.091,512.622 536.233,547.716 548.374,532.133 560.515,522.491 572.656,512.511 584.797,551.803 596.939,489.816 609.08,484.794 621.221,474.911 633.362,471.639 645.503,545.04 657.645,540.523 669.786,526.067 681.927,516.787 694.068,463.886 706.21,509.537 718.351,500.524 730.492,530.204 742.633,469.925 754.774,473.804 766.916,548.266 779.057,546.559 791.198,532.942 803.339,525.318 815.48,983.514 827.622,933.247 839.763,968.672 851.904,920.952 864.045,916.047 876.186,910.784 888.328,907.077 900.469,900.288 912.61,895.947 924.751,929.106 936.892,923.501 949.034,915.017 961.175,909.424 973.316,956.814 985.457,944.109 997.599,936.66 1009.74,930.882 1021.88,929.657 1034.02,924.302 1046.16,915.99 1058.3,908.358 1070.45,861.716 1082.59,903.65 1094.73,891.972 1106.87,932.133 1119.01,883.351 1131.15,873.41 1143.29,877.292 1155.43,863.06 1167.58,858.039 1179.72,855.904 1191.86,857.368 1204,845.213 1216.14,838.818 1228.28,874.452 1240.42,925.093 1252.56,829.906 1264.71,862.21 1276.85,917.532 1288.99,911.866 1301.13,896.623 1313.27,891.308 1325.41,835.442 1337.55,878.357 1349.69,888.279 1361.83,872.665 1373.98,912.199 1386.12,908.388 1398.26,865.003 1410.4,953.093 1422.54,1384.24 1434.68,1379.38 1446.82,1379.12 1458.96,1331.46 1471.11,1376.45 1483.25,1371.62 1495.39,1322.07 1507.53,1320.92 1519.67,1367.59 1531.81,1364.51 1543.95,1354.98 1556.09,1354.93 1568.24,1351.86 1580.38,1303.81 1592.52,1300.56 1604.66,1340.22 1616.8,1341.83 1628.94,1344.18 1641.08,1287.32 1653.22,1337.56 1665.36,1324.69 1677.51,1280.75 1689.65,1330.66 1701.79,1327.68 1713.93,1317.24 1726.07,1311.38 1738.21,1320.69 1750.35,1258.76 1762.49,1299.94 1774.64,1255.78 1786.78,1298.56 1798.92,1295.59 1811.06,1302.45 1823.2,1288.59 1835.34,1294.52 1847.48,1280.52 1859.62,1319.9 1871.77,1284.88 1883.91,1275.91 1896.05,1271.85 1908.19,1314.7 1920.33,1278.6 1932.47,1263.77 1944.61,1263.78 1956.75,1260.89 1968.9,1299.22 1981.04,1262.6 1993.18,1262.92 2005.32,1246.88 2017.46,1249.17 2029.6,1252.25 2041.74,1237.55 2053.88,1277.38 2066.02,1227.91 "/>
<path clip-path="url(#clip540)" d="M266.633 806.996 L499.922 806.996 L499.922 703.316 L266.633 703.316  Z" fill="#ffffff" fill-rule="evenodd" fill-opacity="1"/>
<polyline clip-path="url(#clip540)" style="stroke:#000000; stroke-linecap:round; stroke-linejoin:round; stroke-width:4; stroke-opacity:1; fill:none" points="266.633,806.996 499.922,806.996 499.922,703.316 266.633,703.316 266.633,806.996 "/>
<polyline clip-path="url(#clip540)" style="stroke:#ff0000; stroke-linecap:round; stroke-linejoin:round; stroke-width:4; stroke-opacity:1; fill:none" points="287.939,755.156 415.778,755.156 "/>
<path clip-path="url(#clip540)" d="M451.817 745.323 Q451.817 745.979 451.513 746.143 Q451.209 746.283 450.365 746.283 L445.868 746.283 L442.308 760.43 Q442.027 761.672 442.027 762.726 Q442.027 763.897 442.378 764.412 Q442.753 764.927 443.526 764.927 Q445.048 764.927 446.688 763.546 Q448.351 762.164 449.756 758.791 Q449.944 758.346 450.037 758.252 Q450.155 758.135 450.459 758.135 Q451.045 758.135 451.045 758.603 Q451.045 758.767 450.717 759.517 Q450.412 760.266 449.733 761.367 Q449.077 762.468 448.21 763.499 Q447.367 764.529 446.079 765.279 Q444.791 766.005 443.409 766.005 Q441.465 766.005 440.223 764.764 Q439.005 763.522 439.005 761.578 Q439.005 760.946 439.497 758.931 Q439.989 756.894 442.659 746.283 L438.42 746.283 Q437.834 746.283 437.6 746.26 Q437.389 746.236 437.225 746.119 Q437.085 745.979 437.085 745.698 Q437.085 745.253 437.272 745.065 Q437.46 744.854 437.694 744.831 Q437.951 744.784 438.537 744.784 L443.034 744.784 L444.908 737.172 Q445.095 736.422 445.564 736.001 Q446.056 735.556 446.337 735.509 Q446.618 735.439 446.829 735.439 Q447.461 735.439 447.836 735.79 Q448.21 736.118 448.21 736.727 Q448.21 737.055 446.243 744.784 L450.459 744.784 Q450.998 744.784 451.209 744.808 Q451.443 744.831 451.63 744.948 Q451.817 745.065 451.817 745.323 Z" fill="#000000" fill-rule="nonzero" fill-opacity="1" /><path clip-path="url(#clip540)" d="M456.783 774.581 L456.783 773.811 L457.062 773.811 Q458.537 773.811 458.964 773.532 Q459.406 773.237 459.406 772.269 L459.406 762.432 Q459.373 761.465 458.931 761.169 Q458.504 760.874 457.029 760.874 L456.783 760.874 L456.783 760.137 L473.67 760.137 L473.67 760.874 L473.441 760.874 Q471.933 760.874 471.506 761.169 Q471.096 761.448 471.064 762.432 L471.064 772.269 Q471.096 773.237 471.506 773.532 Q471.933 773.811 473.408 773.811 L473.67 773.811 L473.67 774.581 Q471.719 774.483 469.785 774.483 L469.654 774.483 Q468.08 774.483 466.128 774.581 L466.128 773.811 L466.325 773.811 Q467.998 773.811 468.358 773.466 Q468.735 773.106 468.735 771.827 Q468.735 771.696 468.719 771.4 Q468.703 771.089 468.703 770.958 L468.703 762.399 Q468.703 761.399 468.407 761.137 Q468.129 760.874 467.03 760.874 L463.03 760.874 Q462.259 760.874 462.013 761.153 Q461.784 761.415 461.751 762.153 L461.751 772.269 Q461.784 773.237 462.21 773.532 Q462.636 773.811 464.112 773.811 L464.341 773.811 L464.341 774.581 Q462.39 774.483 460.439 774.483 L460.308 774.483 Q458.734 774.483 456.783 774.581 Z" fill="#000000" fill-rule="nonzero" fill-opacity="1" /><polyline clip-path="url(#clip540)" style="stroke:#000000; stroke-linecap:round; stroke-linejoin:round; stroke-width:4; stroke-opacity:1; fill:none" points="2120.3,1423.18 2120.3,47.2441 "/>
<polyline clip-path="url(#clip540)" style="stroke:#000000; stroke-linecap:round; stroke-linejoin:round; stroke-width:4; stroke-opacity:1; fill:none" points="2120.3,1191.52 2139.19,1191.52 "/>
<polyline clip-path="url(#clip540)" style="stroke:#000000; stroke-linecap:round; stroke-linejoin:round; stroke-width:4; stroke-opacity:1; fill:none" points="2120.3,951.562 2139.19,951.562 "/>
<polyline clip-path="url(#clip540)" style="stroke:#000000; stroke-linecap:round; stroke-linejoin:round; stroke-width:4; stroke-opacity:1; fill:none" points="2120.3,711.602 2139.19,711.602 "/>
<polyline clip-path="url(#clip540)" style="stroke:#000000; stroke-linecap:round; stroke-linejoin:round; stroke-width:4; stroke-opacity:1; fill:none" points="2120.3,471.643 2139.19,471.643 "/>
<polyline clip-path="url(#clip540)" style="stroke:#000000; stroke-linecap:round; stroke-linejoin:round; stroke-width:4; stroke-opacity:1; fill:none" points="2120.3,231.684 2139.19,231.684 "/>
<path clip-path="url(#clip540)" d="M2186.24 1177.32 Q2182.63 1177.32 2180.8 1180.88 Q2179 1184.43 2179 1191.56 Q2179 1198.66 2180.8 1202.23 Q2182.63 1205.77 2186.24 1205.77 Q2189.87 1205.77 2191.68 1202.23 Q2193.51 1198.66 2193.51 1191.56 Q2193.51 1184.43 2191.68 1180.88 Q2189.87 1177.32 2186.24 1177.32 M2186.24 1173.62 Q2192.05 1173.62 2195.11 1178.22 Q2198.18 1182.81 2198.18 1191.56 Q2198.18 1200.28 2195.11 1204.89 Q2192.05 1209.47 2186.24 1209.47 Q2180.43 1209.47 2177.35 1204.89 Q2174.3 1200.28 2174.3 1191.56 Q2174.3 1182.81 2177.35 1178.22 Q2180.43 1173.62 2186.24 1173.62 Z" fill="#000000" fill-rule="nonzero" fill-opacity="1" /><path clip-path="url(#clip540)" d="M2206.4 1202.92 L2211.29 1202.92 L2211.29 1208.8 L2206.4 1208.8 L2206.4 1202.92 Z" fill="#000000" fill-rule="nonzero" fill-opacity="1" /><path clip-path="url(#clip540)" d="M2222.28 1204.87 L2229.92 1204.87 L2229.92 1178.5 L2221.61 1180.17 L2221.61 1175.91 L2229.87 1174.24 L2234.55 1174.24 L2234.55 1204.87 L2242.19 1204.87 L2242.19 1208.8 L2222.28 1208.8 L2222.28 1204.87 Z" fill="#000000" fill-rule="nonzero" fill-opacity="1" /><path clip-path="url(#clip540)" d="M2261.63 1177.32 Q2258.02 1177.32 2256.19 1180.88 Q2254.39 1184.43 2254.39 1191.56 Q2254.39 1198.66 2256.19 1202.23 Q2258.02 1205.77 2261.63 1205.77 Q2265.27 1205.77 2267.07 1202.23 Q2268.9 1198.66 2268.9 1191.56 Q2268.9 1184.43 2267.07 1180.88 Q2265.27 1177.32 2261.63 1177.32 M2261.63 1173.62 Q2267.44 1173.62 2270.5 1178.22 Q2273.58 1182.81 2273.58 1191.56 Q2273.58 1200.28 2270.5 1204.89 Q2267.44 1209.47 2261.63 1209.47 Q2255.82 1209.47 2252.74 1204.89 Q2249.69 1200.28 2249.69 1191.56 Q2249.69 1182.81 2252.74 1178.22 Q2255.82 1173.62 2261.63 1173.62 Z" fill="#000000" fill-rule="nonzero" fill-opacity="1" /><path clip-path="url(#clip540)" d="M2291.8 1177.32 Q2288.18 1177.32 2286.36 1180.88 Q2284.55 1184.43 2284.55 1191.56 Q2284.55 1198.66 2286.36 1202.23 Q2288.18 1205.77 2291.8 1205.77 Q2295.43 1205.77 2297.24 1202.23 Q2299.06 1198.66 2299.06 1191.56 Q2299.06 1184.43 2297.24 1180.88 Q2295.43 1177.32 2291.8 1177.32 M2291.8 1173.62 Q2297.61 1173.62 2300.66 1178.22 Q2303.74 1182.81 2303.74 1191.56 Q2303.74 1200.28 2300.66 1204.89 Q2297.61 1209.47 2291.8 1209.47 Q2285.99 1209.47 2282.91 1204.89 Q2279.85 1200.28 2279.85 1191.56 Q2279.85 1182.81 2282.91 1178.22 Q2285.99 1173.62 2291.8 1173.62 Z" fill="#000000" fill-rule="nonzero" fill-opacity="1" /><path clip-path="url(#clip540)" d="M2186.24 937.36 Q2182.63 937.36 2180.8 940.925 Q2179 944.467 2179 951.596 Q2179 958.703 2180.8 962.268 Q2182.63 965.809 2186.24 965.809 Q2189.87 965.809 2191.68 962.268 Q2193.51 958.703 2193.51 951.596 Q2193.51 944.467 2191.68 940.925 Q2189.87 937.36 2186.24 937.36 M2186.24 933.657 Q2192.05 933.657 2195.11 938.263 Q2198.18 942.847 2198.18 951.596 Q2198.18 960.323 2195.11 964.93 Q2192.05 969.513 2186.24 969.513 Q2180.43 969.513 2177.35 964.93 Q2174.3 960.323 2174.3 951.596 Q2174.3 942.847 2177.35 938.263 Q2180.43 933.657 2186.24 933.657 Z" fill="#000000" fill-rule="nonzero" fill-opacity="1" /><path clip-path="url(#clip540)" d="M2206.4 962.962 L2211.29 962.962 L2211.29 968.842 L2206.4 968.842 L2206.4 962.962 Z" fill="#000000" fill-rule="nonzero" fill-opacity="1" /><path clip-path="url(#clip540)" d="M2222.28 964.907 L2229.92 964.907 L2229.92 938.541 L2221.61 940.208 L2221.61 935.948 L2229.87 934.282 L2234.55 934.282 L2234.55 964.907 L2242.19 964.907 L2242.19 968.842 L2222.28 968.842 L2222.28 964.907 Z" fill="#000000" fill-rule="nonzero" fill-opacity="1" /><path clip-path="url(#clip540)" d="M2255.66 964.907 L2271.98 964.907 L2271.98 968.842 L2250.04 968.842 L2250.04 964.907 Q2252.7 962.152 2257.28 957.522 Q2261.89 952.87 2263.07 951.527 Q2265.31 949.004 2266.19 947.268 Q2267.1 945.509 2267.1 943.819 Q2267.1 941.064 2265.15 939.328 Q2263.23 937.592 2260.13 937.592 Q2257.93 937.592 2255.48 938.356 Q2253.05 939.12 2250.27 940.671 L2250.27 935.948 Q2253.09 934.814 2255.55 934.235 Q2258 933.657 2260.04 933.657 Q2265.41 933.657 2268.6 936.342 Q2271.8 939.027 2271.8 943.518 Q2271.8 945.647 2270.99 947.569 Q2270.2 949.467 2268.09 952.059 Q2267.51 952.731 2264.41 955.948 Q2261.31 959.143 2255.66 964.907 Z" fill="#000000" fill-rule="nonzero" fill-opacity="1" /><path clip-path="url(#clip540)" d="M2281.84 934.282 L2300.2 934.282 L2300.2 938.217 L2286.12 938.217 L2286.12 946.689 Q2287.14 946.342 2288.16 946.18 Q2289.18 945.995 2290.2 945.995 Q2295.99 945.995 2299.36 949.166 Q2302.74 952.337 2302.74 957.754 Q2302.74 963.333 2299.27 966.434 Q2295.8 969.513 2289.48 969.513 Q2287.3 969.513 2285.04 969.143 Q2282.79 968.772 2280.38 968.032 L2280.38 963.333 Q2282.47 964.467 2284.69 965.022 Q2286.91 965.578 2289.39 965.578 Q2293.39 965.578 2295.73 963.471 Q2298.07 961.365 2298.07 957.754 Q2298.07 954.143 2295.73 952.036 Q2293.39 949.93 2289.39 949.93 Q2287.51 949.93 2285.64 950.346 Q2283.79 950.763 2281.84 951.643 L2281.84 934.282 Z" fill="#000000" fill-rule="nonzero" fill-opacity="1" /><path clip-path="url(#clip540)" d="M2186.24 697.401 Q2182.63 697.401 2180.8 700.966 Q2179 704.507 2179 711.637 Q2179 718.744 2180.8 722.308 Q2182.63 725.85 2186.24 725.85 Q2189.87 725.85 2191.68 722.308 Q2193.51 718.744 2193.51 711.637 Q2193.51 704.507 2191.68 700.966 Q2189.87 697.401 2186.24 697.401 M2186.24 693.697 Q2192.05 693.697 2195.11 698.304 Q2198.18 702.887 2198.18 711.637 Q2198.18 720.364 2195.11 724.97 Q2192.05 729.554 2186.24 729.554 Q2180.43 729.554 2177.35 724.97 Q2174.3 720.364 2174.3 711.637 Q2174.3 702.887 2177.35 698.304 Q2180.43 693.697 2186.24 693.697 Z" fill="#000000" fill-rule="nonzero" fill-opacity="1" /><path clip-path="url(#clip540)" d="M2206.4 723.003 L2211.29 723.003 L2211.29 728.882 L2206.4 728.882 L2206.4 723.003 Z" fill="#000000" fill-rule="nonzero" fill-opacity="1" /><path clip-path="url(#clip540)" d="M2222.28 724.947 L2229.92 724.947 L2229.92 698.582 L2221.61 700.248 L2221.61 695.989 L2229.87 694.322 L2234.55 694.322 L2234.55 724.947 L2242.19 724.947 L2242.19 728.882 L2222.28 728.882 L2222.28 724.947 Z" fill="#000000" fill-rule="nonzero" fill-opacity="1" /><path clip-path="url(#clip540)" d="M2251.68 694.322 L2270.04 694.322 L2270.04 698.258 L2255.96 698.258 L2255.96 706.73 Q2256.98 706.382 2258 706.22 Q2259.02 706.035 2260.04 706.035 Q2265.82 706.035 2269.2 709.207 Q2272.58 712.378 2272.58 717.794 Q2272.58 723.373 2269.11 726.475 Q2265.64 729.554 2259.32 729.554 Q2257.14 729.554 2254.87 729.183 Q2252.63 728.813 2250.22 728.072 L2250.22 723.373 Q2252.3 724.507 2254.53 725.063 Q2256.75 725.618 2259.23 725.618 Q2263.23 725.618 2265.57 723.512 Q2267.91 721.406 2267.91 717.794 Q2267.91 714.183 2265.57 712.077 Q2263.23 709.97 2259.23 709.97 Q2257.35 709.97 2255.48 710.387 Q2253.62 710.804 2251.68 711.683 L2251.68 694.322 Z" fill="#000000" fill-rule="nonzero" fill-opacity="1" /><path clip-path="url(#clip540)" d="M2291.8 697.401 Q2288.18 697.401 2286.36 700.966 Q2284.55 704.507 2284.55 711.637 Q2284.55 718.744 2286.36 722.308 Q2288.18 725.85 2291.8 725.85 Q2295.43 725.85 2297.24 722.308 Q2299.06 718.744 2299.06 711.637 Q2299.06 704.507 2297.24 700.966 Q2295.43 697.401 2291.8 697.401 M2291.8 693.697 Q2297.61 693.697 2300.66 698.304 Q2303.74 702.887 2303.74 711.637 Q2303.74 720.364 2300.66 724.97 Q2297.61 729.554 2291.8 729.554 Q2285.99 729.554 2282.91 724.97 Q2279.85 720.364 2279.85 711.637 Q2279.85 702.887 2282.91 698.304 Q2285.99 693.697 2291.8 693.697 Z" fill="#000000" fill-rule="nonzero" fill-opacity="1" /><path clip-path="url(#clip540)" d="M2186.24 457.442 Q2182.63 457.442 2180.8 461.006 Q2179 464.548 2179 471.678 Q2179 478.784 2180.8 482.349 Q2182.63 485.891 2186.24 485.891 Q2189.87 485.891 2191.68 482.349 Q2193.51 478.784 2193.51 471.678 Q2193.51 464.548 2191.68 461.006 Q2189.87 457.442 2186.24 457.442 M2186.24 453.738 Q2192.05 453.738 2195.11 458.344 Q2198.18 462.928 2198.18 471.678 Q2198.18 480.404 2195.11 485.011 Q2192.05 489.594 2186.24 489.594 Q2180.43 489.594 2177.35 485.011 Q2174.3 480.404 2174.3 471.678 Q2174.3 462.928 2177.35 458.344 Q2180.43 453.738 2186.24 453.738 Z" fill="#000000" fill-rule="nonzero" fill-opacity="1" /><path clip-path="url(#clip540)" d="M2206.4 483.043 L2211.29 483.043 L2211.29 488.923 L2206.4 488.923 L2206.4 483.043 Z" fill="#000000" fill-rule="nonzero" fill-opacity="1" /><path clip-path="url(#clip540)" d="M2222.28 484.988 L2229.92 484.988 L2229.92 458.622 L2221.61 460.289 L2221.61 456.03 L2229.87 454.363 L2234.55 454.363 L2234.55 484.988 L2242.19 484.988 L2242.19 488.923 L2222.28 488.923 L2222.28 484.988 Z" fill="#000000" fill-rule="nonzero" fill-opacity="1" /><path clip-path="url(#clip540)" d="M2250.45 454.363 L2272.68 454.363 L2272.68 456.354 L2260.13 488.923 L2255.24 488.923 L2267.05 458.298 L2250.45 458.298 L2250.45 454.363 Z" fill="#000000" fill-rule="nonzero" fill-opacity="1" /><path clip-path="url(#clip540)" d="M2281.84 454.363 L2300.2 454.363 L2300.2 458.298 L2286.12 458.298 L2286.12 466.77 Q2287.14 466.423 2288.16 466.261 Q2289.18 466.076 2290.2 466.076 Q2295.99 466.076 2299.36 469.247 Q2302.74 472.418 2302.74 477.835 Q2302.74 483.414 2299.27 486.516 Q2295.8 489.594 2289.48 489.594 Q2287.3 489.594 2285.04 489.224 Q2282.79 488.853 2280.38 488.113 L2280.38 483.414 Q2282.47 484.548 2284.69 485.104 Q2286.91 485.659 2289.39 485.659 Q2293.39 485.659 2295.73 483.553 Q2298.07 481.446 2298.07 477.835 Q2298.07 474.224 2295.73 472.117 Q2293.39 470.011 2289.39 470.011 Q2287.51 470.011 2285.64 470.428 Q2283.79 470.844 2281.84 471.724 L2281.84 454.363 Z" fill="#000000" fill-rule="nonzero" fill-opacity="1" /><path clip-path="url(#clip540)" d="M2186.24 217.482 Q2182.63 217.482 2180.8 221.047 Q2179 224.589 2179 231.718 Q2179 238.825 2180.8 242.389 Q2182.63 245.931 2186.24 245.931 Q2189.87 245.931 2191.68 242.389 Q2193.51 238.825 2193.51 231.718 Q2193.51 224.589 2191.68 221.047 Q2189.87 217.482 2186.24 217.482 M2186.24 213.779 Q2192.05 213.779 2195.11 218.385 Q2198.18 222.968 2198.18 231.718 Q2198.18 240.445 2195.11 245.052 Q2192.05 249.635 2186.24 249.635 Q2180.43 249.635 2177.35 245.052 Q2174.3 240.445 2174.3 231.718 Q2174.3 222.968 2177.35 218.385 Q2180.43 213.779 2186.24 213.779 Z" fill="#000000" fill-rule="nonzero" fill-opacity="1" /><path clip-path="url(#clip540)" d="M2206.4 243.084 L2211.29 243.084 L2211.29 248.964 L2206.4 248.964 L2206.4 243.084 Z" fill="#000000" fill-rule="nonzero" fill-opacity="1" /><path clip-path="url(#clip540)" d="M2225.5 245.028 L2241.82 245.028 L2241.82 248.964 L2219.87 248.964 L2219.87 245.028 Q2222.54 242.274 2227.12 237.644 Q2231.73 232.991 2232.91 231.649 Q2235.15 229.126 2236.03 227.39 Q2236.93 225.63 2236.93 223.941 Q2236.93 221.186 2234.99 219.45 Q2233.07 217.714 2229.97 217.714 Q2227.77 217.714 2225.31 218.478 Q2222.88 219.241 2220.11 220.792 L2220.11 216.07 Q2222.93 214.936 2225.38 214.357 Q2227.84 213.779 2229.87 213.779 Q2235.24 213.779 2238.44 216.464 Q2241.63 219.149 2241.63 223.64 Q2241.63 225.769 2240.82 227.69 Q2240.04 229.589 2237.93 232.181 Q2237.35 232.852 2234.25 236.07 Q2231.15 239.264 2225.5 245.028 Z" fill="#000000" fill-rule="nonzero" fill-opacity="1" /><path clip-path="url(#clip540)" d="M2261.63 217.482 Q2258.02 217.482 2256.19 221.047 Q2254.39 224.589 2254.39 231.718 Q2254.39 238.825 2256.19 242.389 Q2258.02 245.931 2261.63 245.931 Q2265.27 245.931 2267.07 242.389 Q2268.9 238.825 2268.9 231.718 Q2268.9 224.589 2267.07 221.047 Q2265.27 217.482 2261.63 217.482 M2261.63 213.779 Q2267.44 213.779 2270.5 218.385 Q2273.58 222.968 2273.58 231.718 Q2273.58 240.445 2270.5 245.052 Q2267.44 249.635 2261.63 249.635 Q2255.82 249.635 2252.74 245.052 Q2249.69 240.445 2249.69 231.718 Q2249.69 222.968 2252.74 218.385 Q2255.82 213.779 2261.63 213.779 Z" fill="#000000" fill-rule="nonzero" fill-opacity="1" /><path clip-path="url(#clip540)" d="M2291.8 217.482 Q2288.18 217.482 2286.36 221.047 Q2284.55 224.589 2284.55 231.718 Q2284.55 238.825 2286.36 242.389 Q2288.18 245.931 2291.8 245.931 Q2295.43 245.931 2297.24 242.389 Q2299.06 238.825 2299.06 231.718 Q2299.06 224.589 2297.24 221.047 Q2295.43 217.482 2291.8 217.482 M2291.8 213.779 Q2297.61 213.779 2300.66 218.385 Q2303.74 222.968 2303.74 231.718 Q2303.74 240.445 2300.66 245.052 Q2297.61 249.635 2291.8 249.635 Q2285.99 249.635 2282.91 245.052 Q2279.85 240.445 2279.85 231.718 Q2279.85 222.968 2282.91 218.385 Q2285.99 213.779 2291.8 213.779 Z" fill="#000000" fill-rule="nonzero" fill-opacity="1" /><path clip-path="url(#clip540)" d="M2337.51 719.016 Q2341.34 719.016 2345.14 720.787 Q2348.94 722.559 2351.84 725.457 Q2354.71 728.323 2356.51 732.253 Q2358.31 736.149 2358.31 740.143 Q2358.31 740.852 2358.15 742.301 Q2370.04 744.555 2370.23 744.62 Q2370.91 744.909 2371.32 745.489 Q2371.74 746.037 2371.84 746.423 Q2371.94 746.81 2371.94 747.067 Q2371.94 747.711 2371.49 748.356 Q2371.07 748.967 2370.1 748.967 Q2369.87 748.967 2368.78 748.645 L2357.7 745.135 Q2356.48 750.449 2353.1 753.508 Q2349.68 756.568 2345.04 756.568 Q2342.08 756.568 2338.22 755.215 Q2334.35 753.863 2331.74 752.22 Q2329.13 750.578 2329.13 749.644 Q2329.13 748.839 2329.81 748.839 Q2330.07 748.839 2330.65 749.354 Q2333.64 751.963 2337.96 753.412 Q2342.24 754.829 2344.3 754.829 Q2347.91 754.829 2350.52 752.059 Q2353.1 749.257 2354.06 744.008 Q2343.95 740.884 2339.7 739.016 Q2331.26 735.248 2329.2 730.352 Q2328.43 728.549 2328.43 726.552 Q2328.43 722.945 2330.97 720.981 Q2333.48 719.016 2337.51 719.016 M2338.96 720.884 Q2337.25 720.884 2335.8 721.496 Q2334.35 722.076 2333.32 723.557 Q2332.26 725.038 2332.26 727.196 Q2332.26 731.512 2336.41 735.119 Q2340.57 738.726 2347.01 740.272 L2354.16 741.592 Q2354.42 741.592 2354.42 740.723 Q2354.48 740.207 2354.48 739.531 Q2354.48 735.86 2353.1 732.381 Q2351.71 728.871 2349.52 726.391 Q2347.33 723.911 2344.53 722.398 Q2341.73 720.884 2338.96 720.884 Z" fill="#000000" fill-rule="nonzero" fill-opacity="1" /><polyline clip-path="url(#clip542)" style="stroke:#0000ff; stroke-linecap:round; stroke-linejoin:round; stroke-width:4; stroke-opacity:1; fill:none" points="256.985,714.784 269.126,712.543 281.267,705.718 293.408,703.602 305.55,696.121 317.691,695.272 329.832,686.645 341.973,686.528 354.114,677.418 366.256,672.82 378.397,671.352 390.538,667.381 402.679,659.544 414.82,657.88 426.962,650.055 439.103,645.795 451.244,641.368 463.385,637.517 475.527,632.281 487.668,628.563 499.809,623.767 511.95,619.585 524.091,614.548 536.233,611.655 548.374,606.618 560.515,602.383 572.656,598.158 584.797,591.752 596.939,589.275 609.08,585.83 621.221,581.692 633.362,578.454 645.503,572.76 657.645,569.549 669.786,564.501 681.927,560.399 694.068,551.829 706.21,550.292 718.351,545.627 730.492,538.761 742.633,538.31 754.774,531.738 766.916,529.093 779.057,523.371 791.198,519.571 803.339,514.9 815.48,509.251 827.622,505.915 839.763,500.606 851.904,496.944 864.045,492.315 876.186,487.802 888.328,483.157 900.469,478.833 912.61,474.342 924.751,472.083 936.892,468.103 949.034,463.638 961.175,459.653 973.316,452.695 985.457,448.545 997.599,444.32 1009.74,440.048 1021.88,435.761 1034.02,431.552 1046.16,427.323 1058.3,423.109 1070.45,423.033 1082.59,414.934 1094.73,410.56 1106.87,410.181 1119.01,402.387 1131.15,398.073 1143.29,394.574 1155.43,389.87 1167.58,385.82 1179.72,382.017 1191.86,378.726 1204,373.969 1216.14,369.876 1228.28,366.832 1240.42,362.067 1252.56,358.95 1264.71,353.41 1276.85,351.379 1288.99,347.443 1301.13,342.006 1313.27,338.087 1325.41,332.18 1337.55,329.91 1349.69,328.628 1361.83,322.86 1373.98,315.622 1386.12,311.367 1398.26,311.861 1410.4,306.7 1422.54,302.87 1434.68,298.624 1446.82,295.477 1458.96,286.574 1471.11,287.063 1483.25,283.201 1495.39,274.288 1507.53,270.224 1519.67,269.126 1531.81,264.852 1543.95,261.963 1556.09,257.042 1568.24,252.772 1580.38,246.192 1592.52,242.203 1604.66,240.542 1616.8,235.552 1628.94,230.686 1641.08,226.329 1653.22,222.487 1665.36,219.598 1677.51,214.878 1689.65,209.967 1701.79,205.872 1713.93,202.392 1726.07,198.551 1738.21,193.597 1750.35,191.154 1762.49,186.482 1774.64,183.956 1786.78,177.88 1798.92,173.804 1811.06,169.472 1823.2,165.746 1835.34,161.482 1847.48,157.778 1859.62,156.555 1871.77,149.526 1883.91,145.549 1896.05,141.564 1908.19,142.795 1920.33,133.959 1932.47,129.61 1944.61,125.697 1956.75,121.759 1968.9,122.533 1981.04,114.364 1993.18,110.804 2005.32,105.956 2017.46,102.352 2029.6,99.0284 2041.74,94.1854 2053.88,93.6423 2066.02,86.1857 "/>
<polyline clip-path="url(#clip542)" style="stroke:#008000; stroke-linecap:round; stroke-linejoin:round; stroke-width:4; stroke-opacity:1; fill:none" points="256.985,1384.24 269.126,1379.11 281.267,1373.97 293.408,1368.81 305.55,1363.65 317.691,1358.47 329.832,1353.28 341.973,1348.09 354.114,1342.89 366.256,1337.68 378.397,1332.47 390.538,1327.26 402.679,1322.05 414.82,1316.84 426.962,1311.62 439.103,1306.41 451.244,1301.2 463.385,1296 475.527,1290.79 487.668,1285.59 499.809,1280.4 511.95,1275.2 524.091,1270.01 536.233,1264.83 548.374,1259.65 560.515,1254.47 572.656,1249.3 584.797,1244.13 596.939,1238.96 609.08,1233.8 621.221,1228.64 633.362,1223.48 645.503,1218.33 657.645,1213.18 669.786,1208.03 681.927,1202.88 694.068,1197.74 706.21,1192.59 718.351,1187.45 730.492,1182.31 742.633,1177.17 754.774,1172.03 766.916,1166.89 779.057,1161.76 791.198,1156.62 803.339,1151.48 815.48,1146.34 827.622,1141.2 839.763,1136.06 851.904,1130.92 864.045,1125.78 876.186,1120.64 888.328,1115.5 900.469,1110.36 912.61,1105.22 924.751,1100.07 936.892,1094.93 949.034,1089.79 961.175,1084.64 973.316,1079.49 985.457,1074.34 997.599,1069.2 1009.74,1064.05 1021.88,1058.9 1034.02,1053.75 1046.16,1048.59 1058.3,1043.44 1070.45,1038.29 1082.59,1033.14 1094.73,1027.98 1106.87,1022.83 1119.01,1017.67 1131.15,1012.52 1143.29,1007.36 1155.43,1002.2 1167.58,997.048 1179.72,991.891 1191.86,986.734 1204,981.576 1216.14,976.419 1228.28,971.261 1240.42,966.104 1252.56,960.946 1264.71,955.788 1276.85,950.63 1288.99,945.473 1301.13,940.315 1313.27,935.157 1325.41,930 1337.55,924.842 1349.69,919.685 1361.83,914.528 1373.98,909.371 1386.12,904.214 1398.26,899.057 1410.4,893.9 1422.54,888.744 1434.68,883.588 1446.82,878.432 1458.96,873.276 1471.11,868.12 1483.25,862.965 1495.39,857.809 1507.53,852.654 1519.67,847.5 1531.81,842.345 1543.95,837.19 1556.09,832.036 1568.24,826.882 1580.38,821.728 1592.52,816.574 1604.66,811.42 1616.8,806.267 1628.94,801.114 1641.08,795.96 1653.22,790.807 1665.36,785.654 1677.51,780.501 1689.65,775.348 1701.79,770.196 1713.93,765.043 1726.07,759.89 1738.21,754.738 1750.35,749.586 1762.49,744.433 1774.64,739.281 1786.78,734.129 1798.92,728.976 1811.06,723.824 1823.2,718.672 1835.34,713.52 1847.48,708.367 1859.62,703.215 1871.77,698.063 1883.91,692.911 1896.05,687.759 1908.19,682.606 1920.33,677.454 1932.47,672.302 1944.61,667.15 1956.75,661.997 1968.9,656.845 1981.04,651.692 1993.18,646.54 2005.32,641.388 2017.46,636.235 2029.6,631.083 2041.74,625.93 2053.88,620.777 2066.02,615.625 "/>
<path clip-path="url(#clip540)" d="M1761.96 832.916 L2056.38 832.916 L2056.38 677.396 L1761.96 677.396  Z" fill="#ffffff" fill-rule="evenodd" fill-opacity="1"/>
<polyline clip-path="url(#clip540)" style="stroke:#000000; stroke-linecap:round; stroke-linejoin:round; stroke-width:4; stroke-opacity:1; fill:none" points="1761.96,832.916 2056.38,832.916 2056.38,677.396 1761.96,677.396 1761.96,832.916 "/>
<polyline clip-path="url(#clip540)" style="stroke:#0000ff; stroke-linecap:round; stroke-linejoin:round; stroke-width:4; stroke-opacity:1; fill:none" points="1783.27,729.236 1911.11,729.236 "/>
<path clip-path="url(#clip540)" d="M1959.73 715.372 Q1959.73 718.159 1958.44 720.923 Q1957.15 723.687 1955.04 725.795 Q1952.96 727.88 1950.1 729.191 Q1947.27 730.503 1944.36 730.503 Q1943.85 730.503 1942.79 730.386 Q1941.15 739.029 1941.11 739.169 Q1940.9 739.661 1940.47 739.966 Q1940.08 740.27 1939.79 740.34 Q1939.51 740.411 1939.33 740.411 Q1938.86 740.411 1938.39 740.083 Q1937.94 739.778 1937.94 739.075 Q1937.94 738.912 1938.18 738.115 L1940.73 730.058 Q1936.87 729.168 1934.64 726.708 Q1932.42 724.226 1932.42 720.853 Q1932.42 718.698 1933.4 715.887 Q1934.38 713.077 1935.58 711.179 Q1936.77 709.282 1937.45 709.282 Q1938.04 709.282 1938.04 709.774 Q1938.04 709.961 1937.66 710.383 Q1935.77 712.561 1934.71 715.7 Q1933.68 718.815 1933.68 720.314 Q1933.68 722.937 1935.7 724.835 Q1937.73 726.708 1941.55 727.411 Q1943.82 720.056 1945.18 716.965 Q1947.92 710.828 1951.48 709.329 Q1952.79 708.767 1954.25 708.767 Q1956.87 708.767 1958.3 710.617 Q1959.73 712.444 1959.73 715.372 M1958.37 716.426 Q1958.37 715.185 1957.92 714.131 Q1957.5 713.077 1956.42 712.327 Q1955.35 711.554 1953.78 711.554 Q1950.64 711.554 1948.02 714.576 Q1945.39 717.597 1944.27 722.282 L1943.31 727.481 Q1943.31 727.669 1943.94 727.669 Q1944.32 727.716 1944.81 727.716 Q1947.48 727.716 1950.01 726.708 Q1952.56 725.701 1954.36 724.109 Q1956.17 722.516 1957.27 720.478 Q1958.37 718.44 1958.37 716.426 Z" fill="#000000" fill-rule="nonzero" fill-opacity="1" /><path clip-path="url(#clip540)" d="M1992.08 744.317 Q1992.08 744.449 1991.93 744.957 Q1991.78 745.465 1991.42 746.252 Q1991.08 747.039 1990.59 747.76 Q1990.11 748.466 1989.33 748.99 Q1988.55 749.498 1987.67 749.498 Q1986.49 749.498 1985.7 748.711 Q1984.91 747.924 1984.91 746.744 Q1984.91 746.105 1985.36 744.891 Q1987.44 739.349 1987.44 737.366 Q1987.44 735.021 1985.62 735.021 Q1984.59 735.021 1983.65 735.447 Q1982.72 735.874 1982.11 736.464 Q1981.5 737.054 1981.03 737.726 Q1980.55 738.399 1980.34 738.841 Q1980.14 739.284 1980.09 739.481 L1978.08 747.58 Q1977.91 748.269 1977.8 748.597 Q1977.68 748.925 1977.37 749.203 Q1977.06 749.498 1976.57 749.498 Q1976.16 749.498 1975.86 749.253 Q1975.59 749.007 1975.59 748.58 Q1975.59 748.515 1975.67 748.17 Q1975.75 747.826 1975.86 747.351 Q1975.98 746.875 1976.03 746.596 Q1976.62 744.367 1976.7 744.055 L1977.64 740.153 Q1978.14 738.218 1978.14 737.366 Q1978.14 735.021 1976.32 735.021 Q1975.42 735.021 1974.57 735.365 Q1973.73 735.693 1973.16 736.152 Q1972.59 736.611 1972.06 737.251 Q1971.55 737.874 1971.29 738.3 Q1971.04 738.71 1970.85 739.12 L1970.42 740.792 Q1970.32 741.251 1969.85 743.039 L1969.11 746.072 Q1968.58 748.334 1968.47 748.547 Q1968.31 749.007 1967.95 749.253 Q1967.58 749.498 1967.22 749.498 Q1966.81 749.498 1966.54 749.253 Q1966.26 749.007 1966.26 748.58 Q1966.26 748.515 1966.31 748.269 Q1966.35 748.023 1966.44 747.679 Q1966.52 747.334 1966.55 747.137 L1968.5 739.382 Q1968.86 737.972 1968.95 737.53 Q1969.04 737.07 1969.04 736.562 Q1969.04 735.021 1967.99 735.021 Q1967.14 735.021 1966.58 736.038 Q1966.03 737.054 1965.55 739.022 Q1965.4 739.563 1965.31 739.677 Q1965.22 739.792 1964.98 739.792 Q1964.57 739.776 1964.57 739.448 Q1964.57 739.366 1964.7 738.841 Q1964.83 738.317 1965.08 737.53 Q1965.34 736.726 1965.62 736.202 Q1965.78 735.857 1965.93 735.628 Q1966.08 735.398 1966.37 735.037 Q1966.67 734.677 1967.11 734.48 Q1967.55 734.283 1968.09 734.283 Q1969.29 734.283 1970.18 735.054 Q1971.08 735.824 1971.19 737.202 Q1973.37 734.283 1976.42 734.283 Q1978.14 734.283 1979.18 735.152 Q1980.14 735.988 1980.26 737.53 Q1982.52 734.283 1985.73 734.283 Q1987.59 734.283 1988.59 735.251 Q1989.59 736.202 1989.59 737.874 Q1989.59 738.743 1989.14 740.399 Q1988.7 742.038 1988.41 742.858 Q1988.11 743.678 1987.54 745.252 Q1986.93 746.76 1986.93 747.646 Q1986.93 748.22 1987.13 748.482 Q1987.33 748.744 1987.75 748.744 Q1988.41 748.744 1988.98 748.367 Q1989.55 747.974 1989.96 747.334 Q1990.39 746.678 1990.67 746.023 Q1990.95 745.35 1991.16 744.596 Q1991.29 744.186 1991.36 744.088 Q1991.44 743.989 1991.67 743.989 Q1992.08 743.989 1992.08 744.317 Z" fill="#000000" fill-rule="nonzero" fill-opacity="1" /><path clip-path="url(#clip540)" d="M2009.54 744.317 Q2009.1 746.432 2008.52 747.646 Q2007.61 749.498 2006.05 749.498 Q2004.87 749.498 2004.03 748.777 Q2003.2 748.056 2003 746.973 Q2000.85 749.498 1998.62 749.498 Q1996.65 749.498 1995.41 748.006 Q1994.16 746.498 1994.16 744.121 Q1994.16 741.727 1995.34 739.431 Q1996.54 737.136 1998.43 735.71 Q2000.31 734.283 2002.25 734.283 Q2004.29 734.283 2005.34 736.431 Q2005.43 735.841 2005.8 735.398 Q2006.18 734.955 2006.75 734.955 Q2007.2 734.955 2007.46 735.201 Q2007.72 735.431 2007.72 735.857 Q2007.72 736.07 2007.49 737.005 L2006.28 741.694 L2005.54 744.727 Q2005.26 745.842 2005.18 746.252 Q2005.11 746.662 2005.11 747.203 Q2005.11 748.744 2006.11 748.744 Q2006.61 748.744 2007 748.433 Q2007.39 748.121 2007.7 747.465 Q2008.02 746.81 2008.21 746.203 Q2008.41 745.58 2008.67 744.596 Q2008.75 744.203 2008.82 744.104 Q2008.9 743.989 2009.13 743.989 Q2009.54 743.989 2009.54 744.317 M2004.93 737.972 Q2004.93 737.825 2004.82 737.415 Q2004.7 737.005 2004.44 736.431 Q2004.18 735.857 2003.61 735.447 Q2003.05 735.021 2002.29 735.021 Q2001.28 735.021 2000.21 735.89 Q1999.16 736.759 1998.39 738.235 Q1997.8 739.415 1997.16 741.891 Q1996.54 744.367 1996.54 745.596 Q1996.54 746.35 1996.7 747.023 Q1996.88 747.679 1997.39 748.22 Q1997.9 748.744 1998.69 748.744 Q2000.61 748.744 2002.49 746.367 Q2002.85 745.957 2002.93 745.793 Q2003.03 745.613 2003.16 745.121 L2004.84 738.546 Q2004.93 738.054 2004.93 737.972 Z" fill="#000000" fill-rule="nonzero" fill-opacity="1" /><path clip-path="url(#clip540)" d="M2027.66 736.497 Q2027.66 737.415 2027.09 737.939 Q2026.51 738.448 2025.86 738.448 Q2025.24 738.448 2024.91 738.087 Q2024.58 737.726 2024.58 737.267 Q2024.58 736.644 2025.04 736.103 Q2025.5 735.562 2026.19 735.447 Q2025.51 735.021 2024.51 735.021 Q2023.86 735.021 2023.28 735.365 Q2022.73 735.71 2022.38 736.152 Q2022.05 736.595 2021.76 737.234 Q2021.48 737.857 2021.37 738.235 Q2021.27 738.595 2021.19 738.989 L2020.04 743.58 Q2019.48 745.76 2019.48 746.531 Q2019.48 747.482 2019.94 748.121 Q2020.4 748.744 2021.32 748.744 Q2021.68 748.744 2022.09 748.646 Q2022.5 748.531 2023.02 748.236 Q2023.56 747.924 2024.04 747.465 Q2024.53 746.99 2025.01 746.187 Q2025.48 745.383 2025.79 744.35 Q2025.89 743.989 2026.22 743.989 Q2026.63 743.989 2026.63 744.317 Q2026.63 744.596 2026.4 745.186 Q2026.19 745.76 2025.71 746.514 Q2025.25 747.252 2024.65 747.924 Q2024.04 748.58 2023.14 749.039 Q2022.24 749.498 2021.25 749.498 Q2019.84 749.498 2018.91 748.744 Q2017.97 747.99 2017.63 746.941 Q2017.55 747.088 2017.43 747.285 Q2017.32 747.482 2016.97 747.924 Q2016.64 748.351 2016.27 748.679 Q2015.89 748.99 2015.3 749.236 Q2014.73 749.498 2014.1 749.498 Q2013.32 749.498 2012.61 749.269 Q2011.92 749.039 2011.43 748.515 Q2010.94 747.99 2010.94 747.269 Q2010.94 746.465 2011.48 745.908 Q2012.04 745.334 2012.79 745.334 Q2013.27 745.334 2013.64 745.613 Q2014.04 745.891 2014.04 746.498 Q2014.04 747.17 2013.58 747.679 Q2013.12 748.187 2012.46 748.318 Q2013.14 748.744 2014.14 748.744 Q2015.22 748.744 2016.07 747.793 Q2016.92 746.842 2017.33 745.252 Q2018.35 741.432 2018.74 739.727 Q2019.14 738.005 2019.14 737.267 Q2019.14 736.579 2018.96 736.103 Q2018.78 735.628 2018.46 735.415 Q2018.17 735.185 2017.89 735.103 Q2017.63 735.021 2017.33 735.021 Q2016.84 735.021 2016.28 735.218 Q2015.74 735.415 2015.09 735.874 Q2014.45 736.316 2013.84 737.234 Q2013.23 738.153 2012.82 739.415 Q2012.74 739.792 2012.38 739.792 Q2011.99 739.776 2011.99 739.448 Q2011.99 739.169 2012.2 738.595 Q2012.43 738.005 2012.89 737.267 Q2013.37 736.529 2013.97 735.874 Q2014.59 735.201 2015.5 734.742 Q2016.41 734.283 2017.4 734.283 Q2017.84 734.283 2018.27 734.382 Q2018.71 734.464 2019.23 734.71 Q2019.78 734.955 2020.25 735.497 Q2020.73 736.038 2021.02 736.825 Q2021.22 736.447 2021.48 736.087 Q2021.76 735.726 2022.19 735.283 Q2022.63 734.824 2023.24 734.562 Q2023.86 734.283 2024.55 734.283 Q2025.22 734.283 2025.88 734.464 Q2026.53 734.628 2027.09 735.169 Q2027.66 735.693 2027.66 736.497 Z" fill="#000000" fill-rule="nonzero" fill-opacity="1" /><polyline clip-path="url(#clip540)" style="stroke:#008000; stroke-linecap:round; stroke-linejoin:round; stroke-width:4; stroke-opacity:1; fill:none" points="1783.27,781.076 1911.11,781.076 "/>
<path clip-path="url(#clip540)" d="M1959.73 767.212 Q1959.73 769.999 1958.44 772.763 Q1957.15 775.527 1955.04 777.635 Q1952.96 779.72 1950.1 781.031 Q1947.27 782.343 1944.36 782.343 Q1943.85 782.343 1942.79 782.226 Q1941.15 790.869 1941.11 791.009 Q1940.9 791.501 1940.47 791.806 Q1940.08 792.11 1939.79 792.18 Q1939.51 792.251 1939.33 792.251 Q1938.86 792.251 1938.39 791.923 Q1937.94 791.618 1937.94 790.915 Q1937.94 790.752 1938.18 789.955 L1940.73 781.898 Q1936.87 781.008 1934.64 778.548 Q1932.42 776.066 1932.42 772.693 Q1932.42 770.538 1933.4 767.727 Q1934.38 764.917 1935.58 763.019 Q1936.77 761.122 1937.45 761.122 Q1938.04 761.122 1938.04 761.614 Q1938.04 761.801 1937.66 762.223 Q1935.77 764.401 1934.71 767.54 Q1933.68 770.655 1933.68 772.154 Q1933.68 774.777 1935.7 776.675 Q1937.73 778.548 1941.55 779.251 Q1943.82 771.896 1945.18 768.805 Q1947.92 762.668 1951.48 761.169 Q1952.79 760.607 1954.25 760.607 Q1956.87 760.607 1958.3 762.457 Q1959.73 764.284 1959.73 767.212 M1958.37 768.266 Q1958.37 767.025 1957.92 765.971 Q1957.5 764.917 1956.42 764.167 Q1955.35 763.394 1953.78 763.394 Q1950.64 763.394 1948.02 766.416 Q1945.39 769.437 1944.27 774.122 L1943.31 779.321 Q1943.31 779.509 1943.94 779.509 Q1944.32 779.556 1944.81 779.556 Q1947.48 779.556 1950.01 778.548 Q1952.56 777.541 1954.36 775.949 Q1956.17 774.356 1957.27 772.318 Q1958.37 770.28 1958.37 768.266 Z" fill="#000000" fill-rule="nonzero" fill-opacity="1" /><path clip-path="url(#clip540)" d="M1994.34 793.714 Q1994.34 795.715 1993.56 797.453 Q1992.78 799.174 1991.28 800.256 Q1989.78 801.338 1987.9 801.338 Q1984.98 801.338 1982.19 799.01 Q1981.64 798.535 1981.24 798.092 Q1980.85 797.649 1979.18 795.616 Q1978.9 796.092 1978.6 796.534 Q1978.31 796.961 1977.47 797.928 Q1976.64 798.895 1975.77 799.568 Q1974.91 800.24 1973.59 800.797 Q1972.27 801.338 1970.91 801.338 Q1969.47 801.338 1968.24 800.683 Q1967.03 800.01 1966.22 798.945 Q1965.44 797.863 1964.99 796.518 Q1964.57 795.157 1964.57 793.747 Q1964.57 791.747 1965.34 790.025 Q1966.13 788.287 1967.62 787.205 Q1969.13 786.123 1971.01 786.123 Q1973.95 786.123 1976.72 788.435 Q1977.27 788.91 1977.67 789.353 Q1978.06 789.796 1979.73 791.829 Q1979.95 791.468 1980.18 791.14 Q1980.41 790.796 1980.98 790.042 Q1981.55 789.288 1982.23 788.681 Q1982.91 788.074 1983.78 787.451 Q1984.65 786.828 1985.75 786.484 Q1986.85 786.123 1988 786.123 Q1989.44 786.123 1990.65 786.795 Q1991.88 787.451 1992.67 788.533 Q1993.47 789.599 1993.9 790.96 Q1994.34 792.304 1994.34 793.714 M1993.6 793.714 Q1993.6 792.55 1993.26 791.419 Q1992.92 790.288 1992.26 789.337 Q1991.62 788.369 1990.57 787.779 Q1989.52 787.189 1988.24 787.189 Q1986.9 787.189 1985.65 787.763 Q1984.42 788.32 1983.46 789.271 Q1982.5 790.222 1981.85 791.108 Q1981.19 791.993 1980.62 793.009 Q1980.91 793.37 1982.18 795.042 Q1983.46 796.715 1984 797.305 Q1986.21 799.715 1988.44 799.715 Q1990.57 799.715 1992.08 797.977 Q1993.6 796.223 1993.6 793.714 M1978.29 794.452 Q1978.01 794.108 1976.72 792.436 Q1975.44 790.747 1974.9 790.157 Q1972.67 787.73 1970.47 787.73 Q1968.34 787.73 1966.81 789.484 Q1965.31 791.239 1965.31 793.747 Q1965.31 794.911 1965.65 796.043 Q1965.99 797.174 1966.63 798.125 Q1967.29 799.076 1968.34 799.666 Q1969.39 800.256 1970.67 800.256 Q1971.75 800.256 1972.78 799.863 Q1973.83 799.469 1974.62 798.879 Q1975.41 798.289 1976.14 797.469 Q1976.88 796.649 1977.36 795.944 Q1977.85 795.239 1978.29 794.452 Z" fill="#000000" fill-rule="nonzero" fill-opacity="1" /></svg>
