<?xml version="1.0" encoding="utf-8"?>
<svg xmlns="http://www.w3.org/2000/svg" xmlns:xlink="http://www.w3.org/1999/xlink" width="600" height="400" viewBox="0 0 2400 1600">
<defs>
  <clipPath id="clip380">
    <rect x="0" y="0" width="2400" height="1600"/>
  </clipPath>
</defs>
<path clip-path="url(#clip380)" d="M0 1600 L2400 1600 L2400 0 L0 0  Z" fill="#ffffff" fill-rule="evenodd" fill-opacity="1"/>
<defs>
  <clipPath id="clip381">
    <rect x="480" y="0" width="1681" height="1600"/>
  </clipPath>
</defs>
<path clip-path="url(#clip380)" d="M202.714 1423.18 L2149.97 1423.18 L2149.97 47.2441 L202.714 47.2441  Z" fill="#ffffff" fill-rule="evenodd" fill-opacity="1"/>
<defs>
  <clipPath id="clip382">
    <rect x="202" y="47" width="1948" height="1377"/>
  </clipPath>
</defs>
<polyline clip-path="url(#clip382)" style="stroke:#000000; stroke-linecap:round; stroke-linejoin:round; stroke-width:2; stroke-opacity:0.1; fill:none" points="257.825,1423.18 257.825,47.2441 "/>
<polyline clip-path="url(#clip382)" style="stroke:#000000; stroke-linecap:round; stroke-linejoin:round; stroke-width:2; stroke-opacity:0.1; fill:none" points="563.997,1423.18 563.997,47.2441 "/>
<polyline clip-path="url(#clip382)" style="stroke:#000000; stroke-linecap:round; stroke-linejoin:round; stroke-width:2; stroke-opacity:0.1; fill:none" points="870.17,1423.18 870.17,47.2441 "/>
<polyline clip-path="url(#clip382)" style="stroke:#000000; stroke-linecap:round; stroke-linejoin:round; stroke-width:2; stroke-opacity:0.1; fill:none" points="1176.34,1423.18 1176.34,47.2441 "/>
<polyline clip-path="url(#clip382)" style="stroke:#000000; stroke-linecap:round; stroke-linejoin:round; stroke-width:2; stroke-opacity:0.1; fill:none" points="1482.52,1423.18 1482.52,47.2441 "/>
<polyline clip-path="url(#clip382)" style="stroke:#000000; stroke-linecap:round; stroke-linejoin:round; stroke-width:2; stroke-opacity:0.1; fill:none" points="1788.69,1423.18 1788.69,47.2441 "/>
<polyline clip-path="url(#clip382)" style="stroke:#000000; stroke-linecap:round; stroke-linejoin:round; stroke-width:2; stroke-opacity:0.1; fill:none" points="2094.86,1423.18 2094.86,47.2441 "/>
<polyline clip-path="url(#clip380)" style="stroke:#000000; stroke-linecap:round; stroke-linejoin:round; stroke-width:4; stroke-opacity:1; fill:none" points="202.714,1423.18 2149.97,1423.18 "/>
<polyline clip-path="url(#clip380)" style="stroke:#000000; stroke-linecap:round; stroke-linejoin:round; stroke-width:4; stroke-opacity:1; fill:none" points="257.825,1423.18 257.825,1442.08 "/>
<polyline clip-path="url(#clip380)" style="stroke:#000000; stroke-linecap:round; stroke-linejoin:round; stroke-width:4; stroke-opacity:1; fill:none" points="563.997,1423.18 563.997,1442.08 "/>
<polyline clip-path="url(#clip380)" style="stroke:#000000; stroke-linecap:round; stroke-linejoin:round; stroke-width:4; stroke-opacity:1; fill:none" points="870.17,1423.18 870.17,1442.08 "/>
<polyline clip-path="url(#clip380)" style="stroke:#000000; stroke-linecap:round; stroke-linejoin:round; stroke-width:4; stroke-opacity:1; fill:none" points="1176.34,1423.18 1176.34,1442.08 "/>
<polyline clip-path="url(#clip380)" style="stroke:#000000; stroke-linecap:round; stroke-linejoin:round; stroke-width:4; stroke-opacity:1; fill:none" points="1482.52,1423.18 1482.52,1442.08 "/>
<polyline clip-path="url(#clip380)" style="stroke:#000000; stroke-linecap:round; stroke-linejoin:round; stroke-width:4; stroke-opacity:1; fill:none" points="1788.69,1423.18 1788.69,1442.08 "/>
<polyline clip-path="url(#clip380)" style="stroke:#000000; stroke-linecap:round; stroke-linejoin:round; stroke-width:4; stroke-opacity:1; fill:none" points="2094.86,1423.18 2094.86,1442.08 "/>
<path clip-path="url(#clip380)" d="M234.966 1463.7 Q231.355 1463.7 229.526 1467.26 Q227.721 1470.8 227.721 1477.93 Q227.721 1485.04 229.526 1488.61 Q231.355 1492.15 234.966 1492.15 Q238.6 1492.15 240.406 1488.61 Q242.234 1485.04 242.234 1477.93 Q242.234 1470.8 240.406 1467.26 Q238.6 1463.7 234.966 1463.7 M234.966 1459.99 Q240.776 1459.99 243.832 1464.6 Q246.91 1469.18 246.91 1477.93 Q246.91 1486.66 243.832 1491.27 Q240.776 1495.85 234.966 1495.85 Q229.156 1495.85 226.077 1491.27 Q223.022 1486.66 223.022 1477.93 Q223.022 1469.18 226.077 1464.6 Q229.156 1459.99 234.966 1459.99 Z" fill="#000000" fill-rule="nonzero" fill-opacity="1" /><path clip-path="url(#clip380)" d="M255.128 1489.3 L260.012 1489.3 L260.012 1495.18 L255.128 1495.18 L255.128 1489.3 Z" fill="#000000" fill-rule="nonzero" fill-opacity="1" /><path clip-path="url(#clip380)" d="M283.044 1464.69 L271.239 1483.14 L283.044 1483.14 L283.044 1464.69 M281.818 1460.62 L287.697 1460.62 L287.697 1483.14 L292.628 1483.14 L292.628 1487.03 L287.697 1487.03 L287.697 1495.18 L283.044 1495.18 L283.044 1487.03 L267.443 1487.03 L267.443 1482.52 L281.818 1460.62 Z" fill="#000000" fill-rule="nonzero" fill-opacity="1" /><path clip-path="url(#clip380)" d="M541.879 1463.7 Q538.268 1463.7 536.44 1467.26 Q534.634 1470.8 534.634 1477.93 Q534.634 1485.04 536.44 1488.61 Q538.268 1492.15 541.879 1492.15 Q545.514 1492.15 547.319 1488.61 Q549.148 1485.04 549.148 1477.93 Q549.148 1470.8 547.319 1467.26 Q545.514 1463.7 541.879 1463.7 M541.879 1459.99 Q547.69 1459.99 550.745 1464.6 Q553.824 1469.18 553.824 1477.93 Q553.824 1486.66 550.745 1491.27 Q547.69 1495.85 541.879 1495.85 Q536.069 1495.85 532.991 1491.27 Q529.935 1486.66 529.935 1477.93 Q529.935 1469.18 532.991 1464.6 Q536.069 1459.99 541.879 1459.99 Z" fill="#000000" fill-rule="nonzero" fill-opacity="1" /><path clip-path="url(#clip380)" d="M562.041 1489.3 L566.926 1489.3 L566.926 1495.18 L562.041 1495.18 L562.041 1489.3 Z" fill="#000000" fill-rule="nonzero" fill-opacity="1" /><path clip-path="url(#clip380)" d="M577.157 1460.62 L595.513 1460.62 L595.513 1464.56 L581.439 1464.56 L581.439 1473.03 Q582.458 1472.68 583.476 1472.52 Q584.495 1472.33 585.513 1472.33 Q591.3 1472.33 594.68 1475.5 Q598.06 1478.68 598.06 1484.09 Q598.06 1489.67 594.587 1492.77 Q591.115 1495.85 584.796 1495.85 Q582.62 1495.85 580.351 1495.48 Q578.106 1495.11 575.699 1494.37 L575.699 1489.67 Q577.782 1490.8 580.004 1491.36 Q582.226 1491.92 584.703 1491.92 Q588.708 1491.92 591.046 1489.81 Q593.384 1487.7 593.384 1484.09 Q593.384 1480.48 591.046 1478.37 Q588.708 1476.27 584.703 1476.27 Q582.828 1476.27 580.953 1476.68 Q579.101 1477.1 577.157 1477.98 L577.157 1460.62 Z" fill="#000000" fill-rule="nonzero" fill-opacity="1" /><path clip-path="url(#clip380)" d="M847.473 1463.7 Q843.862 1463.7 842.034 1467.26 Q840.228 1470.8 840.228 1477.93 Q840.228 1485.04 842.034 1488.61 Q843.862 1492.15 847.473 1492.15 Q851.108 1492.15 852.913 1488.61 Q854.742 1485.04 854.742 1477.93 Q854.742 1470.8 852.913 1467.26 Q851.108 1463.7 847.473 1463.7 M847.473 1459.99 Q853.284 1459.99 856.339 1464.6 Q859.418 1469.18 859.418 1477.93 Q859.418 1486.66 856.339 1491.27 Q853.284 1495.85 847.473 1495.85 Q841.663 1495.85 838.585 1491.27 Q835.529 1486.66 835.529 1477.93 Q835.529 1469.18 838.585 1464.6 Q841.663 1459.99 847.473 1459.99 Z" fill="#000000" fill-rule="nonzero" fill-opacity="1" /><path clip-path="url(#clip380)" d="M867.635 1489.3 L872.52 1489.3 L872.52 1495.18 L867.635 1495.18 L867.635 1489.3 Z" fill="#000000" fill-rule="nonzero" fill-opacity="1" /><path clip-path="url(#clip380)" d="M893.283 1476.04 Q890.135 1476.04 888.283 1478.19 Q886.455 1480.34 886.455 1484.09 Q886.455 1487.82 888.283 1489.99 Q890.135 1492.15 893.283 1492.15 Q896.431 1492.15 898.26 1489.99 Q900.112 1487.82 900.112 1484.09 Q900.112 1480.34 898.26 1478.19 Q896.431 1476.04 893.283 1476.04 M902.566 1461.38 L902.566 1465.64 Q900.806 1464.81 899.001 1464.37 Q897.219 1463.93 895.459 1463.93 Q890.83 1463.93 888.376 1467.05 Q885.945 1470.18 885.598 1476.5 Q886.964 1474.49 889.024 1473.42 Q891.084 1472.33 893.561 1472.33 Q898.769 1472.33 901.779 1475.5 Q904.811 1478.65 904.811 1484.09 Q904.811 1489.42 901.663 1492.63 Q898.515 1495.85 893.283 1495.85 Q887.288 1495.85 884.117 1491.27 Q880.945 1486.66 880.945 1477.93 Q880.945 1469.74 884.834 1464.88 Q888.723 1459.99 895.274 1459.99 Q897.033 1459.99 898.816 1460.34 Q900.621 1460.69 902.566 1461.38 Z" fill="#000000" fill-rule="nonzero" fill-opacity="1" /><path clip-path="url(#clip380)" d="M1154.18 1463.7 Q1150.57 1463.7 1148.74 1467.26 Q1146.93 1470.8 1146.93 1477.93 Q1146.93 1485.04 1148.74 1488.61 Q1150.57 1492.15 1154.18 1492.15 Q1157.81 1492.15 1159.62 1488.61 Q1161.45 1485.04 1161.45 1477.93 Q1161.45 1470.8 1159.62 1467.26 Q1157.81 1463.7 1154.18 1463.7 M1154.18 1459.99 Q1159.99 1459.99 1163.04 1464.6 Q1166.12 1469.18 1166.12 1477.93 Q1166.12 1486.66 1163.04 1491.27 Q1159.99 1495.85 1154.18 1495.85 Q1148.37 1495.85 1145.29 1491.27 Q1142.23 1486.66 1142.23 1477.93 Q1142.23 1469.18 1145.29 1464.6 Q1148.37 1459.99 1154.18 1459.99 Z" fill="#000000" fill-rule="nonzero" fill-opacity="1" /><path clip-path="url(#clip380)" d="M1174.34 1489.3 L1179.22 1489.3 L1179.22 1495.18 L1174.34 1495.18 L1174.34 1489.3 Z" fill="#000000" fill-rule="nonzero" fill-opacity="1" /><path clip-path="url(#clip380)" d="M1188.23 1460.62 L1210.45 1460.62 L1210.45 1462.61 L1197.91 1495.18 L1193.02 1495.18 L1204.83 1464.56 L1188.23 1464.56 L1188.23 1460.62 Z" fill="#000000" fill-rule="nonzero" fill-opacity="1" /><path clip-path="url(#clip380)" d="M1459.95 1463.7 Q1456.33 1463.7 1454.51 1467.26 Q1452.7 1470.8 1452.7 1477.93 Q1452.7 1485.04 1454.51 1488.61 Q1456.33 1492.15 1459.95 1492.15 Q1463.58 1492.15 1465.39 1488.61 Q1467.21 1485.04 1467.21 1477.93 Q1467.21 1470.8 1465.39 1467.26 Q1463.58 1463.7 1459.95 1463.7 M1459.95 1459.99 Q1465.76 1459.99 1468.81 1464.6 Q1471.89 1469.18 1471.89 1477.93 Q1471.89 1486.66 1468.81 1491.27 Q1465.76 1495.85 1459.95 1495.85 Q1454.14 1495.85 1451.06 1491.27 Q1448 1486.66 1448 1477.93 Q1448 1469.18 1451.06 1464.6 Q1454.14 1459.99 1459.95 1459.99 Z" fill="#000000" fill-rule="nonzero" fill-opacity="1" /><path clip-path="url(#clip380)" d="M1480.11 1489.3 L1484.99 1489.3 L1484.99 1495.18 L1480.11 1495.18 L1480.11 1489.3 Z" fill="#000000" fill-rule="nonzero" fill-opacity="1" /><path clip-path="url(#clip380)" d="M1505.18 1478.77 Q1501.84 1478.77 1499.92 1480.55 Q1498.02 1482.33 1498.02 1485.46 Q1498.02 1488.58 1499.92 1490.37 Q1501.84 1492.15 1505.18 1492.15 Q1508.51 1492.15 1510.43 1490.37 Q1512.35 1488.56 1512.35 1485.46 Q1512.35 1482.33 1510.43 1480.55 Q1508.53 1478.77 1505.18 1478.77 M1500.5 1476.78 Q1497.49 1476.04 1495.8 1473.98 Q1494.14 1471.92 1494.14 1468.95 Q1494.14 1464.81 1497.08 1462.4 Q1500.04 1459.99 1505.18 1459.99 Q1510.34 1459.99 1513.28 1462.4 Q1516.22 1464.81 1516.22 1468.95 Q1516.22 1471.92 1514.53 1473.98 Q1512.86 1476.04 1509.88 1476.78 Q1513.26 1477.56 1515.13 1479.86 Q1517.03 1482.15 1517.03 1485.46 Q1517.03 1490.48 1513.95 1493.17 Q1510.89 1495.85 1505.18 1495.85 Q1499.46 1495.85 1496.38 1493.17 Q1493.33 1490.48 1493.33 1485.46 Q1493.33 1482.15 1495.22 1479.86 Q1497.12 1477.56 1500.5 1476.78 M1498.79 1469.39 Q1498.79 1472.08 1500.46 1473.58 Q1502.14 1475.09 1505.18 1475.09 Q1508.19 1475.09 1509.88 1473.58 Q1511.59 1472.08 1511.59 1469.39 Q1511.59 1466.71 1509.88 1465.2 Q1508.19 1463.7 1505.18 1463.7 Q1502.14 1463.7 1500.46 1465.2 Q1498.79 1466.71 1498.79 1469.39 Z" fill="#000000" fill-rule="nonzero" fill-opacity="1" /><path clip-path="url(#clip380)" d="M1766.17 1463.7 Q1762.55 1463.7 1760.73 1467.26 Q1758.92 1470.8 1758.92 1477.93 Q1758.92 1485.04 1760.73 1488.61 Q1762.55 1492.15 1766.17 1492.15 Q1769.8 1492.15 1771.6 1488.61 Q1773.43 1485.04 1773.43 1477.93 Q1773.43 1470.8 1771.6 1467.26 Q1769.8 1463.7 1766.17 1463.7 M1766.17 1459.99 Q1771.98 1459.99 1775.03 1464.6 Q1778.11 1469.18 1778.11 1477.93 Q1778.11 1486.66 1775.03 1491.27 Q1771.98 1495.85 1766.17 1495.85 Q1760.35 1495.85 1757.28 1491.27 Q1754.22 1486.66 1754.22 1477.93 Q1754.22 1469.18 1757.28 1464.6 Q1760.35 1459.99 1766.17 1459.99 Z" fill="#000000" fill-rule="nonzero" fill-opacity="1" /><path clip-path="url(#clip380)" d="M1786.33 1489.3 L1791.21 1489.3 L1791.21 1495.18 L1786.33 1495.18 L1786.33 1489.3 Z" fill="#000000" fill-rule="nonzero" fill-opacity="1" /><path clip-path="url(#clip380)" d="M1801.54 1494.46 L1801.54 1490.2 Q1803.29 1491.04 1805.1 1491.48 Q1806.91 1491.92 1808.64 1491.92 Q1813.27 1491.92 1815.7 1488.81 Q1818.16 1485.69 1818.5 1479.35 Q1817.16 1481.34 1815.1 1482.4 Q1813.04 1483.47 1810.54 1483.47 Q1805.35 1483.47 1802.32 1480.34 Q1799.31 1477.19 1799.31 1471.75 Q1799.31 1466.43 1802.46 1463.21 Q1805.61 1459.99 1810.84 1459.99 Q1816.84 1459.99 1819.98 1464.6 Q1823.16 1469.18 1823.16 1477.93 Q1823.16 1486.11 1819.27 1490.99 Q1815.4 1495.85 1808.85 1495.85 Q1807.09 1495.85 1805.29 1495.5 Q1803.48 1495.16 1801.54 1494.46 M1810.84 1479.81 Q1813.99 1479.81 1815.82 1477.66 Q1817.67 1475.5 1817.67 1471.75 Q1817.67 1468.03 1815.82 1465.87 Q1813.99 1463.7 1810.84 1463.7 Q1807.69 1463.7 1805.84 1465.87 Q1804.01 1468.03 1804.01 1471.75 Q1804.01 1475.5 1805.84 1477.66 Q1807.69 1479.81 1810.84 1479.81 Z" fill="#000000" fill-rule="nonzero" fill-opacity="1" /><path clip-path="url(#clip380)" d="M2062.01 1491.24 L2069.65 1491.24 L2069.65 1464.88 L2061.34 1466.55 L2061.34 1462.29 L2069.61 1460.62 L2074.28 1460.62 L2074.28 1491.24 L2081.92 1491.24 L2081.92 1495.18 L2062.01 1495.18 L2062.01 1491.24 Z" fill="#000000" fill-rule="nonzero" fill-opacity="1" /><path clip-path="url(#clip380)" d="M2091.37 1489.3 L2096.25 1489.3 L2096.25 1495.18 L2091.37 1495.18 L2091.37 1489.3 Z" fill="#000000" fill-rule="nonzero" fill-opacity="1" /><path clip-path="url(#clip380)" d="M2116.43 1463.7 Q2112.82 1463.7 2110.99 1467.26 Q2109.19 1470.8 2109.19 1477.93 Q2109.19 1485.04 2110.99 1488.61 Q2112.82 1492.15 2116.43 1492.15 Q2120.07 1492.15 2121.87 1488.61 Q2123.7 1485.04 2123.7 1477.93 Q2123.7 1470.8 2121.87 1467.26 Q2120.07 1463.7 2116.43 1463.7 M2116.43 1459.99 Q2122.24 1459.99 2125.3 1464.6 Q2128.38 1469.18 2128.38 1477.93 Q2128.38 1486.66 2125.3 1491.27 Q2122.24 1495.85 2116.43 1495.85 Q2110.62 1495.85 2107.55 1491.27 Q2104.49 1486.66 2104.49 1477.93 Q2104.49 1469.18 2107.55 1464.6 Q2110.62 1459.99 2116.43 1459.99 Z" fill="#000000" fill-rule="nonzero" fill-opacity="1" /><path clip-path="url(#clip380)" d="M1155.13 1511.39 Q1155.13 1512 1155.01 1512.52 L1153.2 1523.98 Q1153.11 1524.85 1152.91 1525.18 Q1152.75 1525.5 1152.24 1525.5 Q1151.43 1525.5 1151.43 1524.66 Q1151.43 1524.18 1151.62 1523.4 Q1152.17 1519.77 1152.17 1518.12 Q1152.17 1517.03 1151.95 1516.22 Q1151.75 1515.39 1151.43 1514.81 Q1151.14 1514.23 1150.46 1513.84 Q1149.79 1513.45 1149.14 1513.23 Q1148.5 1513 1147.34 1512.91 Q1146.18 1512.78 1145.18 1512.74 Q1144.18 1512.71 1142.54 1512.71 Q1138.97 1512.71 1138.39 1512.84 Q1137.78 1513 1137.45 1513.49 Q1137.16 1513.94 1136.84 1515.29 L1128.08 1550.3 L1127.82 1551.68 Q1127.82 1552.45 1128.31 1552.71 Q1128.79 1552.97 1130.27 1553.13 Q1132.4 1553.29 1134.49 1553.29 Q1134.56 1553.29 1134.68 1553.29 Q1135.39 1553.29 1135.68 1553.32 Q1135.97 1553.32 1136.26 1553.39 Q1136.55 1553.45 1136.62 1553.61 Q1136.71 1553.74 1136.71 1554 Q1136.71 1554.61 1136.46 1554.93 Q1136.2 1555.22 1135.94 1555.29 Q1135.71 1555.32 1135.26 1555.32 Q1134.36 1555.32 1132.43 1555.26 Q1130.5 1555.19 1129.53 1555.19 L1124.06 1555.13 L1118.45 1555.19 Q1117.58 1555.19 1115.75 1555.26 Q1113.91 1555.32 1113.04 1555.32 Q1111.91 1555.32 1111.91 1554.52 Q1111.91 1553.61 1112.33 1553.45 Q1112.78 1553.29 1114.68 1553.29 Q1117.36 1553.29 1118.81 1553.16 Q1120.26 1553.03 1121.03 1552.58 Q1121.83 1552.13 1122.06 1551.68 Q1122.28 1551.2 1122.54 1550.1 L1131.4 1514.9 Q1131.66 1514.13 1131.66 1513.52 Q1131.66 1513.2 1131.56 1513.07 Q1131.5 1512.94 1131.08 1512.84 Q1130.66 1512.71 1129.79 1512.71 L1127.21 1512.71 Q1124.57 1512.71 1122.93 1512.84 Q1121.32 1512.94 1119.77 1513.42 Q1118.26 1513.9 1117.36 1514.58 Q1116.49 1515.26 1115.52 1516.64 Q1114.56 1518.03 1113.85 1519.7 Q1113.17 1521.38 1112.2 1524.11 Q1111.88 1525.01 1111.69 1525.27 Q1111.53 1525.5 1111.08 1525.5 Q1110.75 1525.5 1110.5 1525.3 Q1110.27 1525.08 1110.27 1524.79 Q1110.59 1523.73 1110.66 1523.6 L1114.62 1511.97 Q1114.94 1511.04 1115.23 1510.88 Q1115.55 1510.68 1116.75 1510.68 L1153.33 1510.68 Q1153.91 1510.68 1154.1 1510.68 Q1154.3 1510.68 1154.62 1510.75 Q1154.94 1510.81 1155.04 1510.97 Q1155.13 1511.13 1155.13 1511.39 Z" fill="#000000" fill-rule="nonzero" fill-opacity="1" /><path clip-path="url(#clip380)" d="M1178.73 1551.01 Q1178.73 1552.28 1178.1 1552.95 Q1177.47 1553.61 1176.61 1553.61 Q1175.91 1553.61 1175.53 1553.2 Q1175.17 1552.79 1175.17 1552.25 Q1175.17 1551.46 1175.8 1550.83 Q1176.45 1550.2 1177.4 1550.18 Q1177.09 1549.35 1176.25 1548.85 Q1175.42 1548.33 1174.67 1548.2 Q1173.95 1548.06 1173.23 1548.06 Q1171.81 1548.06 1170.73 1548.51 Q1169.65 1548.96 1169.11 1549.66 Q1168.56 1550.34 1168.32 1550.99 Q1168.07 1551.64 1168.07 1552.21 Q1168.07 1552.7 1168.18 1553.11 Q1168.32 1553.49 1168.63 1553.79 Q1168.95 1554.06 1169.17 1554.24 Q1169.42 1554.42 1169.96 1554.58 Q1170.5 1554.73 1170.73 1554.8 Q1170.95 1554.85 1171.59 1554.98 Q1172.89 1555.25 1173.48 1555.41 Q1174.07 1555.54 1174.83 1555.93 Q1175.62 1556.31 1176.21 1556.92 Q1177.63 1558.34 1177.63 1560.3 Q1177.63 1561.02 1177.38 1561.9 Q1177.15 1562.78 1176.5 1563.89 Q1175.85 1564.99 1174.85 1565.87 Q1173.86 1566.75 1172.15 1567.36 Q1170.46 1567.97 1168.34 1567.97 Q1165.39 1567.97 1163.56 1566.73 Q1161.73 1565.46 1161.73 1563.48 Q1161.73 1562.04 1162.52 1561.25 Q1163.31 1560.44 1164.33 1560.44 Q1165.09 1560.44 1165.57 1560.87 Q1166.04 1561.27 1166.04 1562.04 Q1166.04 1563.07 1165.21 1563.86 Q1164.37 1564.65 1163.13 1564.49 Q1164.19 1566.93 1168.38 1566.93 Q1169.96 1566.93 1171.18 1566.52 Q1172.42 1566.1 1173.1 1565.51 Q1173.79 1564.9 1174.25 1564.16 Q1174.7 1563.41 1174.83 1562.85 Q1174.99 1562.29 1174.99 1561.86 Q1174.99 1561.11 1174.7 1560.55 Q1174.4 1559.99 1174 1559.67 Q1173.61 1559.33 1172.87 1559.06 Q1172.15 1558.77 1171.63 1558.66 Q1171.11 1558.54 1170.19 1558.36 Q1169.76 1558.27 1169.49 1558.23 Q1169.22 1558.16 1168.65 1557.98 Q1168.11 1557.78 1167.73 1557.57 Q1167.37 1557.37 1166.9 1557.01 Q1166.42 1556.65 1166.13 1556.22 Q1165.84 1555.79 1165.63 1555.16 Q1165.43 1554.53 1165.43 1553.79 Q1165.43 1553.11 1165.63 1552.3 Q1165.86 1551.49 1166.42 1550.54 Q1167.01 1549.59 1167.84 1548.83 Q1168.68 1548.06 1170.07 1547.56 Q1171.5 1547.05 1173.23 1547.05 Q1175.76 1547.05 1177.24 1548.22 Q1178.73 1549.37 1178.73 1551.01 Z" fill="#000000" fill-rule="nonzero" fill-opacity="1" /><path clip-path="url(#clip380)" d="M1186.54 1546.61 Q1185.61 1545.55 1185.61 1544.16 Q1185.61 1542.78 1186.51 1541.75 Q1187.44 1540.68 1189.12 1540.68 Q1191.08 1540.68 1192.21 1542.58 Q1193.34 1544.45 1193.34 1547.61 Q1193.34 1551.02 1191.95 1554.18 Q1190.57 1557.37 1189.21 1558.88 Q1187.86 1560.39 1187.31 1560.39 Q1186.67 1560.39 1186.67 1559.69 Q1186.67 1559.43 1187.12 1558.94 Q1191.85 1553.86 1191.89 1547.61 Q1191.89 1546.61 1191.76 1546.61 L1191.6 1546.74 Q1190.47 1547.67 1189.12 1547.67 Q1187.47 1547.67 1186.54 1546.61 Z" fill="#000000" fill-rule="nonzero" fill-opacity="1" /><path clip-path="url(#clip380)" d="M1239.56 1540.04 Q1239.82 1540.33 1239.82 1540.62 Q1239.82 1540.91 1239.18 1541.75 Q1238.56 1542.58 1237.24 1543.71 Q1235.92 1544.84 1234.22 1545.9 Q1232.51 1546.96 1230 1547.67 Q1227.48 1548.41 1224.84 1548.41 Q1219.92 1548.41 1217.02 1545.16 Q1214.15 1541.91 1214.15 1537.24 Q1214.15 1532.7 1216.7 1528.35 Q1219.24 1523.97 1223.36 1521.26 Q1227.48 1518.53 1231.83 1518.53 Q1235.28 1518.53 1237.44 1520.14 Q1239.59 1521.75 1239.59 1524.19 Q1239.59 1526.09 1238.5 1527.25 Q1237.4 1528.41 1235.92 1528.41 Q1234.89 1528.41 1234.18 1527.83 Q1233.48 1527.22 1233.48 1526.09 Q1233.48 1524.65 1234.67 1523.52 Q1235.12 1523.07 1235.63 1522.87 Q1236.18 1522.65 1236.5 1522.65 Q1236.82 1522.62 1237.57 1522.62 Q1236.89 1521.36 1235.28 1520.68 Q1233.7 1519.98 1231.9 1519.98 Q1229.22 1519.98 1226.68 1521.84 Q1224.14 1523.68 1222.59 1526.58 Q1221.04 1529.41 1220.05 1533.44 Q1219.05 1537.43 1219.05 1539.75 Q1219.05 1542.94 1220.53 1544.93 Q1222.01 1546.93 1224.97 1546.93 Q1225.55 1546.93 1226.16 1546.9 Q1226.81 1546.87 1228.42 1546.51 Q1230.06 1546.16 1231.51 1545.55 Q1232.96 1544.93 1234.8 1543.61 Q1236.66 1542.26 1238.14 1540.43 Q1238.66 1539.75 1239.01 1539.75 Q1239.3 1539.75 1239.56 1540.04 Z" fill="#000000" fill-rule="nonzero" fill-opacity="1" /><polyline clip-path="url(#clip380)" style="stroke:#000000; stroke-linecap:round; stroke-linejoin:round; stroke-width:4; stroke-opacity:1; fill:none" points="202.714,1423.18 202.714,47.2441 "/>
<polyline clip-path="url(#clip380)" style="stroke:#000000; stroke-linecap:round; stroke-linejoin:round; stroke-width:4; stroke-opacity:1; fill:none" points="202.714,1256.26 183.816,1256.26 "/>
<polyline clip-path="url(#clip380)" style="stroke:#000000; stroke-linecap:round; stroke-linejoin:round; stroke-width:4; stroke-opacity:1; fill:none" points="202.714,924.543 183.816,924.543 "/>
<polyline clip-path="url(#clip380)" style="stroke:#000000; stroke-linecap:round; stroke-linejoin:round; stroke-width:4; stroke-opacity:1; fill:none" points="202.714,592.823 183.816,592.823 "/>
<polyline clip-path="url(#clip380)" style="stroke:#000000; stroke-linecap:round; stroke-linejoin:round; stroke-width:4; stroke-opacity:1; fill:none" points="202.714,261.102 183.816,261.102 "/>
<path clip-path="url(#clip380)" d="M136.862 1257.13 Q133.528 1257.13 131.607 1258.91 Q129.709 1260.7 129.709 1263.82 Q129.709 1266.95 131.607 1268.73 Q133.528 1270.51 136.862 1270.51 Q140.195 1270.51 142.116 1268.73 Q144.038 1266.92 144.038 1263.82 Q144.038 1260.7 142.116 1258.91 Q140.218 1257.13 136.862 1257.13 M132.186 1255.14 Q129.177 1254.4 127.487 1252.34 Q125.82 1250.28 125.82 1247.32 Q125.82 1243.17 128.76 1240.77 Q131.723 1238.36 136.862 1238.36 Q142.024 1238.36 144.964 1240.77 Q147.903 1243.17 147.903 1247.32 Q147.903 1250.28 146.214 1252.34 Q144.547 1254.4 141.561 1255.14 Q144.94 1255.93 146.815 1258.22 Q148.714 1260.51 148.714 1263.82 Q148.714 1268.84 145.635 1271.53 Q142.579 1274.21 136.862 1274.21 Q131.144 1274.21 128.066 1271.53 Q125.01 1268.84 125.01 1263.82 Q125.01 1260.51 126.908 1258.22 Q128.806 1255.93 132.186 1255.14 M130.473 1247.76 Q130.473 1250.44 132.14 1251.95 Q133.829 1253.45 136.862 1253.45 Q139.871 1253.45 141.561 1251.95 Q143.274 1250.44 143.274 1247.76 Q143.274 1245.07 141.561 1243.57 Q139.871 1242.06 136.862 1242.06 Q133.829 1242.06 132.14 1243.57 Q130.473 1245.07 130.473 1247.76 Z" fill="#000000" fill-rule="nonzero" fill-opacity="1" /><path clip-path="url(#clip380)" d="M97.4176 937.888 L105.056 937.888 L105.056 911.522 L96.7463 913.189 L96.7463 908.93 L105.01 907.263 L109.686 907.263 L109.686 937.888 L117.325 937.888 L117.325 941.823 L97.4176 941.823 L97.4176 937.888 Z" fill="#000000" fill-rule="nonzero" fill-opacity="1" /><path clip-path="url(#clip380)" d="M136.769 910.342 Q133.158 910.342 131.329 913.906 Q129.524 917.448 129.524 924.578 Q129.524 931.684 131.329 935.249 Q133.158 938.791 136.769 938.791 Q140.403 938.791 142.209 935.249 Q144.038 931.684 144.038 924.578 Q144.038 917.448 142.209 913.906 Q140.403 910.342 136.769 910.342 M136.769 906.638 Q142.579 906.638 145.635 911.244 Q148.714 915.828 148.714 924.578 Q148.714 933.304 145.635 937.911 Q142.579 942.494 136.769 942.494 Q130.959 942.494 127.88 937.911 Q124.825 933.304 124.825 924.578 Q124.825 915.828 127.88 911.244 Q130.959 906.638 136.769 906.638 Z" fill="#000000" fill-rule="nonzero" fill-opacity="1" /><path clip-path="url(#clip380)" d="M99.0148 606.167 L106.654 606.167 L106.654 579.802 L98.3435 581.469 L98.3435 577.209 L106.607 575.543 L111.283 575.543 L111.283 606.167 L118.922 606.167 L118.922 610.103 L99.0148 610.103 L99.0148 606.167 Z" fill="#000000" fill-rule="nonzero" fill-opacity="1" /><path clip-path="url(#clip380)" d="M132.394 606.167 L148.714 606.167 L148.714 610.103 L126.769 610.103 L126.769 606.167 Q129.431 603.413 134.015 598.783 Q138.621 594.131 139.802 592.788 Q142.047 590.265 142.927 588.529 Q143.829 586.769 143.829 585.08 Q143.829 582.325 141.885 580.589 Q139.964 578.853 136.862 578.853 Q134.663 578.853 132.209 579.617 Q129.778 580.381 127.001 581.932 L127.001 577.209 Q129.825 576.075 132.278 575.496 Q134.732 574.918 136.769 574.918 Q142.14 574.918 145.334 577.603 Q148.528 580.288 148.528 584.779 Q148.528 586.908 147.718 588.83 Q146.931 590.728 144.825 593.32 Q144.246 593.992 141.144 597.209 Q138.042 600.404 132.394 606.167 Z" fill="#000000" fill-rule="nonzero" fill-opacity="1" /><path clip-path="url(#clip380)" d="M96.9315 274.447 L104.57 274.447 L104.57 248.082 L96.2602 249.748 L96.2602 245.489 L104.524 243.822 L109.2 243.822 L109.2 274.447 L116.839 274.447 L116.839 278.382 L96.9315 278.382 L96.9315 274.447 Z" fill="#000000" fill-rule="nonzero" fill-opacity="1" /><path clip-path="url(#clip380)" d="M139.13 247.896 L127.325 266.345 L139.13 266.345 L139.13 247.896 M137.903 243.822 L143.783 243.822 L143.783 266.345 L148.714 266.345 L148.714 270.234 L143.783 270.234 L143.783 278.382 L139.13 278.382 L139.13 270.234 L123.529 270.234 L123.529 265.72 L137.903 243.822 Z" fill="#000000" fill-rule="nonzero" fill-opacity="1" /><path clip-path="url(#clip380)" d="M36.1996 771.925 Q37.1013 771.925 37.3268 772.343 Q37.52 772.762 37.52 773.921 L37.52 780.105 L56.9723 785 Q58.6792 785.387 60.1285 785.387 Q61.7388 785.387 62.4473 784.904 Q63.1559 784.388 63.1559 783.325 Q63.1559 781.232 61.2557 778.978 Q59.3556 776.691 54.7179 774.759 Q54.106 774.501 53.9772 774.372 Q53.8162 774.211 53.8162 773.793 Q53.8162 772.987 54.4603 772.987 Q54.6857 772.987 55.7163 773.438 Q56.7469 773.857 58.2606 774.791 Q59.7742 775.693 61.1913 776.884 Q62.6084 778.044 63.6389 779.815 Q64.6373 781.586 64.6373 783.487 Q64.6373 786.16 62.9304 787.867 Q61.2235 789.541 58.5504 789.541 Q57.6809 789.541 54.9112 788.865 Q52.1092 788.189 37.52 784.517 L37.52 790.346 Q37.52 791.152 37.4878 791.474 Q37.4556 791.763 37.2946 791.989 Q37.1013 792.182 36.7148 792.182 Q36.1029 792.182 35.8453 791.924 Q35.5554 791.667 35.5232 791.345 Q35.4588 790.99 35.4588 790.185 L35.4588 784.002 L24.9919 781.425 Q23.9613 781.168 23.3816 780.524 Q22.7697 779.847 22.7053 779.461 Q22.6087 779.074 22.6087 778.784 Q22.6087 777.915 23.0918 777.4 Q23.5427 776.884 24.38 776.884 Q24.8309 776.884 35.4588 779.59 L35.4588 773.793 Q35.4588 773.052 35.491 772.762 Q35.5232 772.44 35.6843 772.182 Q35.8453 771.925 36.1996 771.925 Z" fill="#000000" fill-rule="nonzero" fill-opacity="1" /><path clip-path="url(#clip380)" d="M76.4369 765.08 L75.3773 765.08 L75.3773 764.696 Q75.3773 762.667 74.9941 762.081 Q74.5883 761.473 73.2582 761.473 L59.7317 761.473 Q58.4016 761.518 57.9958 762.126 Q57.59 762.712 57.59 764.741 L57.59 765.08 L56.5756 765.08 L56.5756 741.859 L57.59 741.859 L57.59 742.175 Q57.59 744.249 57.9958 744.835 Q58.3791 745.399 59.7317 745.444 L73.2582 745.444 Q74.5883 745.399 74.9941 744.835 Q75.3773 744.249 75.3773 742.22 L75.3773 741.859 L76.4369 741.859 Q76.3016 744.542 76.3016 747.202 L76.3016 747.382 Q76.3016 749.547 76.4369 752.229 L75.3773 752.229 L75.3773 751.959 Q75.3773 749.659 74.9039 749.163 Q74.4079 748.645 72.6495 748.645 Q72.4691 748.645 72.0634 748.667 Q71.635 748.69 71.4547 748.69 L59.6866 748.69 Q58.3114 748.69 57.9507 749.096 Q57.59 749.479 57.59 750.99 L57.59 756.49 Q57.59 757.55 57.9733 757.888 Q58.334 758.204 59.3485 758.249 L73.2582 758.249 Q74.5883 758.204 74.9941 757.618 Q75.3773 757.031 75.3773 755.002 L75.3773 754.687 L76.4369 754.687 Q76.3016 757.37 76.3016 760.052 L76.3016 760.233 Q76.3016 762.397 76.4369 765.08 Z" fill="#000000" fill-rule="nonzero" fill-opacity="1" /><path clip-path="url(#clip380)" d="M62.8338 734.115 Q61.771 735.049 60.3862 735.049 Q59.0013 735.049 57.9707 734.147 Q56.9079 733.213 56.9079 731.539 Q56.9079 729.574 58.8081 728.447 Q60.676 727.32 63.8322 727.32 Q67.246 727.32 70.4022 728.704 Q73.5906 730.089 75.1042 731.442 Q76.6179 732.795 76.6179 733.342 Q76.6179 733.986 75.9094 733.986 Q75.6517 733.986 75.1686 733.535 Q70.0801 728.801 63.8322 728.769 Q62.8338 728.769 62.8338 728.898 L62.9626 729.059 Q63.8966 730.186 63.8966 731.539 Q63.8966 733.181 62.8338 734.115 Z" fill="#000000" fill-rule="nonzero" fill-opacity="1" /><path clip-path="url(#clip380)" d="M56.2638 681.093 Q56.5537 680.836 56.8435 680.836 Q57.1334 680.836 57.9707 681.48 Q58.8081 682.092 59.9353 683.412 Q61.0625 684.733 62.1253 686.44 Q63.1881 688.147 63.8966 690.659 Q64.6373 693.171 64.6373 695.812 Q64.6373 700.739 61.3845 703.638 Q58.1317 706.504 53.4619 706.504 Q48.9209 706.504 44.5731 703.96 Q40.1931 701.415 37.4878 697.293 Q34.7503 693.171 34.7503 688.823 Q34.7503 685.377 36.3606 683.219 Q37.9709 681.061 40.4185 681.061 Q42.3187 681.061 43.4781 682.156 Q44.6375 683.251 44.6375 684.733 Q44.6375 685.763 44.0578 686.472 Q43.4459 687.18 42.3187 687.18 Q40.8694 687.18 39.7422 685.989 Q39.2913 685.538 39.0981 685.023 Q38.8726 684.475 38.8726 684.153 Q38.8404 683.831 38.8404 683.09 Q37.5844 683.767 36.9081 685.377 Q36.1996 686.955 36.1996 688.758 Q36.1996 691.432 38.0675 693.976 Q39.9032 696.52 42.8018 698.066 Q45.6359 699.612 49.6616 700.61 Q53.6551 701.609 55.974 701.609 Q59.1623 701.609 61.1591 700.127 Q63.1559 698.646 63.1559 695.683 Q63.1559 695.103 63.1237 694.491 Q63.0914 693.847 62.7372 692.237 Q62.3829 690.594 61.771 689.145 Q61.1591 687.696 59.8387 685.86 Q58.486 683.992 56.6503 682.511 Q55.974 681.995 55.974 681.641 Q55.974 681.351 56.2638 681.093 Z" fill="#000000" fill-rule="nonzero" fill-opacity="1" /><polyline clip-path="url(#clip382)" style="stroke:#ff0000; stroke-linecap:round; stroke-linejoin:round; stroke-width:4; stroke-opacity:1; fill:none" points="257.825,1384.24 270.154,1378.37 282.483,1350.36 294.812,1345.16 307.141,1375.87 319.47,1339.88 331.799,1336.45 344.128,1367.04 356.457,1365.1 368.787,1329.14 381.116,1328.98 393.445,1328.19 405.774,1354.03 418.103,1325.05 430.432,1323.63 442.761,1321.09 455.09,1315.65 467.419,1315.89 479.748,1311.22 492.078,1338.46 504.407,1338.25 516.736,1305.04 529.065,1304.57 541.394,1329.46 553.723,1296.65 566.052,1325.98 578.381,1300.24 590.71,1292 603.04,1296.04 615.369,1268.37 627.698,1293.27 640.027,1286.26 652.356,1281.35 664.685,1257.88 677.014,1278 689.343,1275.39 701.672,1276.11 714.001,1271.51 726.331,1272.36 738.66,1270.2 750.989,1242.95 763.318,1265.23 775.647,1240.3 787.976,1236.4 800.305,1258.01 812.634,1258.75 824.963,1260.47 837.292,1255.69 849.622,968.024 861.951,971.412 874.28,904.538 886.609,902.592 898.938,927.621 911.267,891.845 923.596,927.964 935.925,888.085 948.254,885.758 960.583,918.68 972.913,881.356 985.242,880.922 997.571,880.792 1009.9,879.511 1022.23,844.034 1034.56,880.461 1046.89,877.309 1059.22,871.365 1071.55,866.139 1083.87,801.519 1096.2,804.129 1108.53,795.692 1120.86,825.303 1133.19,792.155 1145.52,789.973 1157.85,784.692 1170.18,789.359 1182.51,784.037 1194.84,783.202 1207.17,783.156 1219.49,807.765 1231.82,780.194 1244.15,769.956 1256.48,777.391 1268.81,768.827 1281.14,766.666 1293.47,767.875 1305.8,770.641 1318.13,723.612 1330.46,724.648 1342.79,754.666 1355.11,718.79 1367.44,751.342 1379.77,751.212 1392.1,748.478 1404.43,750.866 1416.76,749.03 1429.09,746.256 1441.42,742.113 1453.75,703.385 1466.08,676.2 1478.41,700.684 1490.73,729.615 1503.06,666.943 1515.39,660.893 1527.72,667.144 1540.05,661.404 1552.38,655.072 1564.71,662.282 1577.04,653.036 1589.37,681.846 1601.7,648.051 1614.03,645.635 1626.35,647.135 1638.68,638.067 1651.01,644.836 1663.34,639.882 1675.67,665.659 1688,642.615 1700.33,633.823 1712.66,631.766 1724.99,635.237 1737.32,625.838 1749.65,627.59 1761.98,652.536 1774.3,624.445 1786.63,614.2 1798.96,624.495 1811.29,622.47 1823.62,576.28 1835.95,573.978 1848.28,247.731 1860.61,208.335 1872.94,261.017 1885.27,203.654 1897.6,177.158 1909.92,175.174 1922.25,168.188 1934.58,163.089 1946.91,149.697 1959.24,158.191 1971.57,188.733 1983.9,156.296 1996.23,144.4 2008.56,186.146 2020.89,152.153 2033.22,135.475 2045.54,90.9166 2057.87,90.6288 2070.2,86.1857 2082.53,149.585 2094.86,139.562 "/>
<path clip-path="url(#clip380)" d="M267.622 806.996 L503.879 806.996 L503.879 703.316 L267.622 703.316  Z" fill="#ffffff" fill-rule="evenodd" fill-opacity="1"/>
<polyline clip-path="url(#clip380)" style="stroke:#000000; stroke-linecap:round; stroke-linejoin:round; stroke-width:4; stroke-opacity:1; fill:none" points="267.622,806.996 503.879,806.996 503.879,703.316 267.622,703.316 267.622,806.996 "/>
<polyline clip-path="url(#clip380)" style="stroke:#ff0000; stroke-linecap:round; stroke-linejoin:round; stroke-width:4; stroke-opacity:1; fill:none" points="289.258,755.156 419.076,755.156 "/>
<path clip-path="url(#clip380)" d="M455.445 745.323 Q455.445 745.979 455.14 746.143 Q454.836 746.283 453.992 746.283 L449.495 746.283 L445.935 760.43 Q445.654 761.672 445.654 762.726 Q445.654 763.897 446.005 764.412 Q446.38 764.927 447.153 764.927 Q448.675 764.927 450.315 763.546 Q451.978 762.164 453.383 758.791 Q453.571 758.346 453.664 758.252 Q453.782 758.135 454.086 758.135 Q454.672 758.135 454.672 758.603 Q454.672 758.767 454.344 759.517 Q454.039 760.266 453.36 761.367 Q452.704 762.468 451.837 763.499 Q450.994 764.529 449.706 765.279 Q448.418 766.005 447.036 766.005 Q445.092 766.005 443.85 764.764 Q442.632 763.522 442.632 761.578 Q442.632 760.946 443.124 758.931 Q443.616 756.894 446.286 746.283 L442.047 746.283 Q441.461 746.283 441.227 746.26 Q441.016 746.236 440.852 746.119 Q440.712 745.979 440.712 745.698 Q440.712 745.253 440.899 745.065 Q441.087 744.854 441.321 744.831 Q441.578 744.784 442.164 744.784 L446.661 744.784 L448.535 737.172 Q448.722 736.422 449.191 736.001 Q449.683 735.556 449.964 735.509 Q450.245 735.439 450.456 735.439 Q451.088 735.439 451.463 735.79 Q451.837 736.118 451.837 736.727 Q451.837 737.055 449.87 744.784 L454.086 744.784 Q454.625 744.784 454.836 744.808 Q455.07 744.831 455.257 744.948 Q455.445 745.065 455.445 745.323 Z" fill="#000000" fill-rule="nonzero" fill-opacity="1" /><path clip-path="url(#clip380)" d="M460.41 774.581 L460.41 773.811 L460.689 773.811 Q462.164 773.811 462.591 773.532 Q463.033 773.237 463.033 772.269 L463.033 762.432 Q463 761.465 462.558 761.169 Q462.131 760.874 460.656 760.874 L460.41 760.874 L460.41 760.137 L477.298 760.137 L477.298 760.874 L477.068 760.874 Q475.56 760.874 475.133 761.169 Q474.723 761.448 474.691 762.432 L474.691 772.269 Q474.723 773.237 475.133 773.532 Q475.56 773.811 477.035 773.811 L477.298 773.811 L477.298 774.581 Q475.346 774.483 473.412 774.483 L473.281 774.483 Q471.707 774.483 469.755 774.581 L469.755 773.811 L469.952 773.811 Q471.625 773.811 471.985 773.466 Q472.362 773.106 472.362 771.827 Q472.362 771.696 472.346 771.4 Q472.33 771.089 472.33 770.958 L472.33 762.399 Q472.33 761.399 472.034 761.137 Q471.756 760.874 470.657 760.874 L466.657 760.874 Q465.886 760.874 465.64 761.153 Q465.411 761.415 465.378 762.153 L465.378 772.269 Q465.411 773.237 465.837 773.532 Q466.263 773.811 467.739 773.811 L467.968 773.811 L467.968 774.581 Q466.017 774.483 464.066 774.483 L463.935 774.483 Q462.361 774.483 460.41 774.581 Z" fill="#000000" fill-rule="nonzero" fill-opacity="1" /><polyline clip-path="url(#clip380)" style="stroke:#000000; stroke-linecap:round; stroke-linejoin:round; stroke-width:4; stroke-opacity:1; fill:none" points="2149.97,1423.18 2149.97,47.2441 "/>
<polyline clip-path="url(#clip380)" style="stroke:#000000; stroke-linecap:round; stroke-linejoin:round; stroke-width:4; stroke-opacity:1; fill:none" points="2149.97,1384.1 2168.87,1384.1 "/>
<polyline clip-path="url(#clip380)" style="stroke:#000000; stroke-linecap:round; stroke-linejoin:round; stroke-width:4; stroke-opacity:1; fill:none" points="2149.97,1074.96 2168.87,1074.96 "/>
<polyline clip-path="url(#clip380)" style="stroke:#000000; stroke-linecap:round; stroke-linejoin:round; stroke-width:4; stroke-opacity:1; fill:none" points="2149.97,765.83 2168.87,765.83 "/>
<polyline clip-path="url(#clip380)" style="stroke:#000000; stroke-linecap:round; stroke-linejoin:round; stroke-width:4; stroke-opacity:1; fill:none" points="2149.97,456.697 2168.87,456.697 "/>
<polyline clip-path="url(#clip380)" style="stroke:#000000; stroke-linecap:round; stroke-linejoin:round; stroke-width:4; stroke-opacity:1; fill:none" points="2149.97,147.564 2168.87,147.564 "/>
<path clip-path="url(#clip380)" d="M2215.92 1369.89 Q2212.31 1369.89 2210.48 1373.46 Q2208.67 1377 2208.67 1384.13 Q2208.67 1391.24 2210.48 1394.8 Q2212.31 1398.34 2215.92 1398.34 Q2219.55 1398.34 2221.36 1394.8 Q2223.18 1391.24 2223.18 1384.13 Q2223.18 1377 2221.36 1373.46 Q2219.55 1369.89 2215.92 1369.89 M2215.92 1366.19 Q2221.73 1366.19 2224.78 1370.8 Q2227.86 1375.38 2227.86 1384.13 Q2227.86 1392.86 2224.78 1397.46 Q2221.73 1402.05 2215.92 1402.05 Q2210.11 1402.05 2207.03 1397.46 Q2203.97 1392.86 2203.97 1384.13 Q2203.97 1375.38 2207.03 1370.8 Q2210.11 1366.19 2215.92 1366.19 Z" fill="#000000" fill-rule="nonzero" fill-opacity="1" /><path clip-path="url(#clip380)" d="M2236.08 1395.5 L2240.96 1395.5 L2240.96 1401.38 L2236.08 1401.38 L2236.08 1395.5 Z" fill="#000000" fill-rule="nonzero" fill-opacity="1" /><path clip-path="url(#clip380)" d="M2251.96 1397.44 L2259.6 1397.44 L2259.6 1371.07 L2251.29 1372.74 L2251.29 1368.48 L2259.55 1366.82 L2264.23 1366.82 L2264.23 1397.44 L2271.87 1397.44 L2271.87 1401.38 L2251.96 1401.38 L2251.96 1397.44 Z" fill="#000000" fill-rule="nonzero" fill-opacity="1" /><path clip-path="url(#clip380)" d="M2285.34 1397.44 L2301.66 1397.44 L2301.66 1401.38 L2279.71 1401.38 L2279.71 1397.44 Q2282.37 1394.69 2286.96 1390.06 Q2291.56 1385.4 2292.74 1384.06 Q2294.99 1381.54 2295.87 1379.8 Q2296.77 1378.04 2296.77 1376.35 Q2296.77 1373.6 2294.83 1371.86 Q2292.91 1370.13 2289.8 1370.13 Q2287.61 1370.13 2285.15 1370.89 Q2282.72 1371.65 2279.94 1373.2 L2279.94 1368.48 Q2282.77 1367.35 2285.22 1366.77 Q2287.68 1366.19 2289.71 1366.19 Q2295.08 1366.19 2298.28 1368.88 Q2301.47 1371.56 2301.47 1376.05 Q2301.47 1378.18 2300.66 1380.1 Q2299.87 1382 2297.77 1384.59 Q2297.19 1385.26 2294.09 1388.48 Q2290.99 1391.68 2285.34 1397.44 Z" fill="#000000" fill-rule="nonzero" fill-opacity="1" /><path clip-path="url(#clip380)" d="M2215.92 1060.76 Q2212.31 1060.76 2210.48 1064.33 Q2208.67 1067.87 2208.67 1075 Q2208.67 1082.1 2210.48 1085.67 Q2212.31 1089.21 2215.92 1089.21 Q2219.55 1089.21 2221.36 1085.67 Q2223.18 1082.1 2223.18 1075 Q2223.18 1067.87 2221.36 1064.33 Q2219.55 1060.76 2215.92 1060.76 M2215.92 1057.06 Q2221.73 1057.06 2224.78 1061.66 Q2227.86 1066.25 2227.86 1075 Q2227.86 1083.72 2224.78 1088.33 Q2221.73 1092.91 2215.92 1092.91 Q2210.11 1092.91 2207.03 1088.33 Q2203.97 1083.72 2203.97 1075 Q2203.97 1066.25 2207.03 1061.66 Q2210.11 1057.06 2215.92 1057.06 Z" fill="#000000" fill-rule="nonzero" fill-opacity="1" /><path clip-path="url(#clip380)" d="M2236.08 1086.36 L2240.96 1086.36 L2240.96 1092.24 L2236.08 1092.24 L2236.08 1086.36 Z" fill="#000000" fill-rule="nonzero" fill-opacity="1" /><path clip-path="url(#clip380)" d="M2251.96 1088.31 L2259.6 1088.31 L2259.6 1061.94 L2251.29 1063.61 L2251.29 1059.35 L2259.55 1057.68 L2264.23 1057.68 L2264.23 1088.31 L2271.87 1088.31 L2271.87 1092.24 L2251.96 1092.24 L2251.96 1088.31 Z" fill="#000000" fill-rule="nonzero" fill-opacity="1" /><path clip-path="url(#clip380)" d="M2294.16 1061.76 L2282.35 1080.21 L2294.16 1080.21 L2294.16 1061.76 M2292.93 1057.68 L2298.81 1057.68 L2298.81 1080.21 L2303.74 1080.21 L2303.74 1084.09 L2298.81 1084.09 L2298.81 1092.24 L2294.16 1092.24 L2294.16 1084.09 L2278.55 1084.09 L2278.55 1079.58 L2292.93 1057.68 Z" fill="#000000" fill-rule="nonzero" fill-opacity="1" /><path clip-path="url(#clip380)" d="M2215.92 751.629 Q2212.31 751.629 2210.48 755.193 Q2208.67 758.735 2208.67 765.865 Q2208.67 772.971 2210.48 776.536 Q2212.31 780.078 2215.92 780.078 Q2219.55 780.078 2221.36 776.536 Q2223.18 772.971 2223.18 765.865 Q2223.18 758.735 2221.36 755.193 Q2219.55 751.629 2215.92 751.629 M2215.92 747.925 Q2221.73 747.925 2224.78 752.531 Q2227.86 757.115 2227.86 765.865 Q2227.86 774.591 2224.78 779.198 Q2221.73 783.781 2215.92 783.781 Q2210.11 783.781 2207.03 779.198 Q2203.97 774.591 2203.97 765.865 Q2203.97 757.115 2207.03 752.531 Q2210.11 747.925 2215.92 747.925 Z" fill="#000000" fill-rule="nonzero" fill-opacity="1" /><path clip-path="url(#clip380)" d="M2236.08 777.23 L2240.96 777.23 L2240.96 783.11 L2236.08 783.11 L2236.08 777.23 Z" fill="#000000" fill-rule="nonzero" fill-opacity="1" /><path clip-path="url(#clip380)" d="M2251.96 779.175 L2259.6 779.175 L2259.6 752.809 L2251.29 754.476 L2251.29 750.217 L2259.55 748.55 L2264.23 748.55 L2264.23 779.175 L2271.87 779.175 L2271.87 783.11 L2251.96 783.11 L2251.96 779.175 Z" fill="#000000" fill-rule="nonzero" fill-opacity="1" /><path clip-path="url(#clip380)" d="M2291.89 763.967 Q2288.74 763.967 2286.89 766.119 Q2285.06 768.272 2285.06 772.022 Q2285.06 775.749 2286.89 777.925 Q2288.74 780.078 2291.89 780.078 Q2295.04 780.078 2296.86 777.925 Q2298.72 775.749 2298.72 772.022 Q2298.72 768.272 2296.86 766.119 Q2295.04 763.967 2291.89 763.967 M2301.17 749.314 L2301.17 753.573 Q2299.41 752.74 2297.61 752.3 Q2295.82 751.86 2294.06 751.86 Q2289.43 751.86 2286.98 754.985 Q2284.55 758.11 2284.2 764.429 Q2285.57 762.416 2287.63 761.351 Q2289.69 760.263 2292.17 760.263 Q2297.37 760.263 2300.38 763.434 Q2303.42 766.582 2303.42 772.022 Q2303.42 777.346 2300.27 780.564 Q2297.12 783.781 2291.89 783.781 Q2285.89 783.781 2282.72 779.198 Q2279.55 774.591 2279.55 765.865 Q2279.55 757.67 2283.44 752.809 Q2287.33 747.925 2293.88 747.925 Q2295.64 747.925 2297.42 748.272 Q2299.23 748.619 2301.17 749.314 Z" fill="#000000" fill-rule="nonzero" fill-opacity="1" /><path clip-path="url(#clip380)" d="M2215.92 442.496 Q2212.31 442.496 2210.48 446.061 Q2208.67 449.602 2208.67 456.732 Q2208.67 463.838 2210.48 467.403 Q2212.31 470.945 2215.92 470.945 Q2219.55 470.945 2221.36 467.403 Q2223.18 463.838 2223.18 456.732 Q2223.18 449.602 2221.36 446.061 Q2219.55 442.496 2215.92 442.496 M2215.92 438.792 Q2221.73 438.792 2224.78 443.399 Q2227.86 447.982 2227.86 456.732 Q2227.86 465.459 2224.78 470.065 Q2221.73 474.648 2215.92 474.648 Q2210.11 474.648 2207.03 470.065 Q2203.97 465.459 2203.97 456.732 Q2203.97 447.982 2207.03 443.399 Q2210.11 438.792 2215.92 438.792 Z" fill="#000000" fill-rule="nonzero" fill-opacity="1" /><path clip-path="url(#clip380)" d="M2236.08 468.098 L2240.96 468.098 L2240.96 473.977 L2236.08 473.977 L2236.08 468.098 Z" fill="#000000" fill-rule="nonzero" fill-opacity="1" /><path clip-path="url(#clip380)" d="M2251.96 470.042 L2259.6 470.042 L2259.6 443.676 L2251.29 445.343 L2251.29 441.084 L2259.55 439.417 L2264.23 439.417 L2264.23 470.042 L2271.87 470.042 L2271.87 473.977 L2251.96 473.977 L2251.96 470.042 Z" fill="#000000" fill-rule="nonzero" fill-opacity="1" /><path clip-path="url(#clip380)" d="M2291.31 457.565 Q2287.98 457.565 2286.05 459.348 Q2284.16 461.13 2284.16 464.255 Q2284.16 467.38 2286.05 469.162 Q2287.98 470.945 2291.31 470.945 Q2294.64 470.945 2296.56 469.162 Q2298.49 467.357 2298.49 464.255 Q2298.49 461.13 2296.56 459.348 Q2294.67 457.565 2291.31 457.565 M2286.63 455.575 Q2283.62 454.834 2281.93 452.774 Q2280.27 450.713 2280.27 447.75 Q2280.27 443.607 2283.21 441.2 Q2286.17 438.792 2291.31 438.792 Q2296.47 438.792 2299.41 441.2 Q2302.35 443.607 2302.35 447.75 Q2302.35 450.713 2300.66 452.774 Q2298.99 454.834 2296.01 455.575 Q2299.39 456.362 2301.26 458.653 Q2303.16 460.945 2303.16 464.255 Q2303.16 469.278 2300.08 471.963 Q2297.03 474.648 2291.31 474.648 Q2285.59 474.648 2282.51 471.963 Q2279.46 469.278 2279.46 464.255 Q2279.46 460.945 2281.36 458.653 Q2283.25 456.362 2286.63 455.575 M2284.92 448.19 Q2284.92 450.875 2286.59 452.38 Q2288.28 453.885 2291.31 453.885 Q2294.32 453.885 2296.01 452.38 Q2297.72 450.875 2297.72 448.19 Q2297.72 445.505 2296.01 444 Q2294.32 442.496 2291.31 442.496 Q2288.28 442.496 2286.59 444 Q2284.92 445.505 2284.92 448.19 Z" fill="#000000" fill-rule="nonzero" fill-opacity="1" /><path clip-path="url(#clip380)" d="M2215.92 133.363 Q2212.31 133.363 2210.48 136.928 Q2208.67 140.47 2208.67 147.599 Q2208.67 154.706 2210.48 158.27 Q2212.31 161.812 2215.92 161.812 Q2219.55 161.812 2221.36 158.27 Q2223.18 154.706 2223.18 147.599 Q2223.18 140.47 2221.36 136.928 Q2219.55 133.363 2215.92 133.363 M2215.92 129.659 Q2221.73 129.659 2224.78 134.266 Q2227.86 138.849 2227.86 147.599 Q2227.86 156.326 2224.78 160.932 Q2221.73 165.516 2215.92 165.516 Q2210.11 165.516 2207.03 160.932 Q2203.97 156.326 2203.97 147.599 Q2203.97 138.849 2207.03 134.266 Q2210.11 129.659 2215.92 129.659 Z" fill="#000000" fill-rule="nonzero" fill-opacity="1" /><path clip-path="url(#clip380)" d="M2236.08 158.965 L2240.96 158.965 L2240.96 164.844 L2236.08 164.844 L2236.08 158.965 Z" fill="#000000" fill-rule="nonzero" fill-opacity="1" /><path clip-path="url(#clip380)" d="M2255.18 160.909 L2271.49 160.909 L2271.49 164.844 L2249.55 164.844 L2249.55 160.909 Q2252.21 158.155 2256.8 153.525 Q2261.4 148.872 2262.58 147.53 Q2264.83 145.007 2265.71 143.27 Q2266.61 141.511 2266.61 139.821 Q2266.61 137.067 2264.67 135.331 Q2262.74 133.595 2259.64 133.595 Q2257.44 133.595 2254.99 134.358 Q2252.56 135.122 2249.78 136.673 L2249.78 131.951 Q2252.61 130.817 2255.06 130.238 Q2257.51 129.659 2259.55 129.659 Q2264.92 129.659 2268.12 132.345 Q2271.31 135.03 2271.31 139.52 Q2271.31 141.65 2270.5 143.571 Q2269.71 145.47 2267.61 148.062 Q2267.03 148.733 2263.93 151.951 Q2260.82 155.145 2255.18 160.909 Z" fill="#000000" fill-rule="nonzero" fill-opacity="1" /><path clip-path="url(#clip380)" d="M2291.31 133.363 Q2287.7 133.363 2285.87 136.928 Q2284.06 140.47 2284.06 147.599 Q2284.06 154.706 2285.87 158.27 Q2287.7 161.812 2291.31 161.812 Q2294.94 161.812 2296.75 158.27 Q2298.58 154.706 2298.58 147.599 Q2298.58 140.47 2296.75 136.928 Q2294.94 133.363 2291.31 133.363 M2291.31 129.659 Q2297.12 129.659 2300.18 134.266 Q2303.25 138.849 2303.25 147.599 Q2303.25 156.326 2300.18 160.932 Q2297.12 165.516 2291.31 165.516 Q2285.5 165.516 2282.42 160.932 Q2279.36 156.326 2279.36 147.599 Q2279.36 138.849 2282.42 134.266 Q2285.5 129.659 2291.31 129.659 Z" fill="#000000" fill-rule="nonzero" fill-opacity="1" /><path clip-path="url(#clip380)" d="M2337.51 719.016 Q2341.34 719.016 2345.14 720.787 Q2348.94 722.559 2351.84 725.457 Q2354.71 728.323 2356.51 732.253 Q2358.31 736.149 2358.31 740.143 Q2358.31 740.852 2358.15 742.301 Q2370.04 744.555 2370.23 744.62 Q2370.91 744.909 2371.32 745.489 Q2371.74 746.037 2371.84 746.423 Q2371.94 746.81 2371.94 747.067 Q2371.94 747.711 2371.49 748.356 Q2371.07 748.967 2370.1 748.967 Q2369.87 748.967 2368.78 748.645 L2357.7 745.135 Q2356.48 750.449 2353.1 753.508 Q2349.68 756.568 2345.04 756.568 Q2342.08 756.568 2338.22 755.215 Q2334.35 753.863 2331.74 752.22 Q2329.13 750.578 2329.13 749.644 Q2329.13 748.839 2329.81 748.839 Q2330.07 748.839 2330.65 749.354 Q2333.64 751.963 2337.96 753.412 Q2342.24 754.829 2344.3 754.829 Q2347.91 754.829 2350.52 752.059 Q2353.1 749.257 2354.06 744.008 Q2343.95 740.884 2339.7 739.016 Q2331.26 735.248 2329.2 730.352 Q2328.43 728.549 2328.43 726.552 Q2328.43 722.945 2330.97 720.981 Q2333.48 719.016 2337.51 719.016 M2338.96 720.884 Q2337.25 720.884 2335.8 721.496 Q2334.35 722.076 2333.32 723.557 Q2332.26 725.038 2332.26 727.196 Q2332.26 731.512 2336.41 735.119 Q2340.57 738.726 2347.01 740.272 L2354.16 741.592 Q2354.42 741.592 2354.42 740.723 Q2354.48 740.207 2354.48 739.531 Q2354.48 735.86 2353.1 732.381 Q2351.71 728.871 2349.52 726.391 Q2347.33 723.911 2344.53 722.398 Q2341.73 720.884 2338.96 720.884 Z" fill="#000000" fill-rule="nonzero" fill-opacity="1" /><polyline clip-path="url(#clip382)" style="stroke:#0000ff; stroke-linecap:round; stroke-linejoin:round; stroke-width:4; stroke-opacity:1; fill:none" points="257.825,770.142 270.154,763.08 282.483,756.019 294.812,751.576 307.141,747.729 319.47,741.702 331.799,737.089 344.128,730.33 356.457,724.924 368.787,722.555 381.116,716.739 393.445,711.289 405.774,702.772 418.103,700.91 430.432,695.729 442.761,690.953 455.09,687.725 467.419,681.671 479.748,677.444 492.078,665.911 504.407,660.879 516.736,661.356 529.065,656.87 541.394,645.358 553.723,644.455 566.052,635.203 578.381,636.986 590.71,629.37 603.04,627.129 615.369,615.048 627.698,617.343 640.027,609.668 652.356,603.315 664.685,595.364 677.014,593.318 689.343,588.004 701.672,583.968 714.001,577.938 726.331,573.942 738.66,568.774 750.989,561.449 763.318,558.366 775.647,551.58 787.976,547.22 800.305,543.06 812.634,538.992 824.963,535.468 837.292,529.375 849.622,523.495 861.951,519.897 874.28,515.84 886.609,511.024 898.938,505.15 911.267,499.575 923.596,494.843 935.925,490.022 948.254,485.181 960.583,481.796 972.913,475.623 985.242,471.171 997.571,466.857 1009.9,462.265 1022.23,458.216 1034.56,454.085 1046.89,449.054 1059.22,443.453 1071.55,438.185 1083.87,434.156 1096.2,430.665 1108.53,424.533 1120.86,422.875 1133.19,415.426 1145.52,410.829 1157.85,405.779 1170.18,402.394 1182.51,397.168 1194.84,392.822 1207.17,388.679 1219.49,388.062 1231.82,379.88 1244.15,374.053 1256.48,371.148 1268.81,365.429 1281.14,360.963 1293.47,356.999 1305.8,353.551 1318.13,354.177 1330.46,348.454 1342.79,338.568 1355.11,340.685 1367.44,329.835 1379.77,325.659 1392.1,321.177 1404.43,317.397 1416.76,313.061 1429.09,308.572 1441.42,303.944 1453.75,306.356 1466.08,296.067 1478.41,297.298 1490.73,286.343 1503.06,282.591 1515.39,277.899 1527.72,274.713 1540.05,269.834 1552.38,265.135 1564.71,262.124 1577.04,256.796 1589.37,260.335 1601.7,248.266 1614.03,244.029 1626.35,240.138 1638.68,235.513 1651.01,231.939 1663.34,227.418 1675.67,231.492 1688,220.005 1700.33,214.908 1712.66,210.761 1724.99,207.259 1737.32,202.363 1749.65,198.51 1761.98,202.455 1774.3,190.345 1786.63,185.904 1798.96,182.666 1811.29,178.575 1823.62,182.949 1835.95,178.673 1848.28,165.642 1860.61,169.919 1872.94,158.453 1885.27,161.474 1897.6,150.517 1909.92,146.49 1922.25,141.825 1934.58,137.558 1946.91,133.492 1959.24,129.506 1971.57,132.844 1983.9,121.644 1996.23,117.5 2008.56,122.361 2020.89,109.871 2033.22,105.817 2045.54,108.982 2057.87,105.67 2070.2,100.752 2082.53,91.0497 2094.86,86.1857 "/>
<polyline clip-path="url(#clip382)" style="stroke:#008000; stroke-linecap:round; stroke-linejoin:round; stroke-width:4; stroke-opacity:1; fill:none" points="257.825,1384.09 270.154,1384.1 282.483,1384.1 294.812,1384.1 307.141,1384.1 319.47,1384.1 331.799,1384.1 344.128,1384.1 356.457,1384.1 368.787,1384.1 381.116,1384.09 393.445,1384.09 405.774,1384.09 418.103,1384.09 430.432,1384.09 442.761,1384.09 455.09,1384.09 467.419,1384.09 479.748,1384.09 492.078,1384.09 504.407,1384.09 516.736,1384.09 529.065,1384.09 541.394,1384.09 553.723,1384.09 566.052,1384.09 578.381,1384.09 590.71,1384.09 603.04,1384.09 615.369,1384.09 627.698,1384.09 640.027,1384.09 652.356,1384.09 664.685,1384.09 677.014,1384.09 689.343,1384.09 701.672,1384.09 714.001,1384.09 726.331,1384.09 738.66,1384.09 750.989,1384.09 763.318,1384.09 775.647,1384.09 787.976,1384.09 800.305,1384.1 812.634,1384.1 824.963,1384.1 837.292,1384.1 849.622,1384.1 861.951,1384.1 874.28,1384.11 886.609,1384.11 898.938,1384.11 911.267,1384.11 923.596,1384.12 935.925,1384.12 948.254,1384.12 960.583,1384.13 972.913,1384.13 985.242,1384.13 997.571,1384.14 1009.9,1384.14 1022.23,1384.15 1034.56,1384.15 1046.89,1384.16 1059.22,1384.16 1071.55,1384.17 1083.87,1384.17 1096.2,1384.18 1108.53,1384.18 1120.86,1384.19 1133.19,1384.19 1145.52,1384.2 1157.85,1384.2 1170.18,1384.21 1182.51,1384.21 1194.84,1384.22 1207.17,1384.22 1219.49,1384.23 1231.82,1384.23 1244.15,1384.23 1256.48,1384.24 1268.81,1384.24 1281.14,1384.24 1293.47,1384.24 1305.8,1384.24 1318.13,1384.24 1330.46,1384.24 1342.79,1384.23 1355.11,1384.23 1367.44,1384.22 1379.77,1384.22 1392.1,1384.21 1404.43,1384.2 1416.76,1384.19 1429.09,1384.18 1441.42,1384.17 1453.75,1384.16 1466.08,1384.14 1478.41,1384.12 1490.73,1384.11 1503.06,1384.09 1515.39,1384.07 1527.72,1384.04 1540.05,1384.02 1552.38,1383.99 1564.71,1383.97 1577.04,1383.94 1589.37,1383.91 1601.7,1383.88 1614.03,1383.84 1626.35,1383.81 1638.68,1383.77 1651.01,1383.74 1663.34,1383.7 1675.67,1383.66 1688,1383.61 1700.33,1383.57 1712.66,1383.53 1724.99,1383.48 1737.32,1383.44 1749.65,1383.39 1761.98,1383.35 1774.3,1383.3 1786.63,1383.25 1798.96,1383.2 1811.29,1383.15 1823.62,1383.1 1835.95,1383.06 1848.28,1383.01 1860.61,1382.96 1872.94,1382.91 1885.27,1382.86 1897.6,1382.82 1909.92,1382.77 1922.25,1382.73 1934.58,1382.69 1946.91,1382.64 1959.24,1382.6 1971.57,1382.57 1983.9,1382.53 1996.23,1382.5 2008.56,1382.47 2020.89,1382.44 2033.22,1382.41 2045.54,1382.39 2057.87,1382.37 2070.2,1382.36 2082.53,1382.34 2094.86,1382.34 "/>
<path clip-path="url(#clip380)" d="M1787.68 832.916 L2085.06 832.916 L2085.06 677.396 L1787.68 677.396  Z" fill="#ffffff" fill-rule="evenodd" fill-opacity="1"/>
<polyline clip-path="url(#clip380)" style="stroke:#000000; stroke-linecap:round; stroke-linejoin:round; stroke-width:4; stroke-opacity:1; fill:none" points="1787.68,832.916 2085.06,832.916 2085.06,677.396 1787.68,677.396 1787.68,832.916 "/>
<polyline clip-path="url(#clip380)" style="stroke:#0000ff; stroke-linecap:round; stroke-linejoin:round; stroke-width:4; stroke-opacity:1; fill:none" points="1809.32,729.236 1939.14,729.236 "/>
<path clip-path="url(#clip380)" d="M1988.08 715.372 Q1988.08 718.159 1986.8 720.923 Q1985.51 723.687 1983.4 725.795 Q1981.31 727.88 1978.46 729.191 Q1975.62 730.503 1972.72 730.503 Q1972.2 730.503 1971.15 730.386 Q1969.51 739.029 1969.46 739.169 Q1969.25 739.661 1968.83 739.966 Q1968.43 740.27 1968.15 740.34 Q1967.87 740.411 1967.68 740.411 Q1967.21 740.411 1966.75 740.083 Q1966.3 739.778 1966.3 739.075 Q1966.3 738.912 1966.54 738.115 L1969.09 730.058 Q1965.22 729.168 1963 726.708 Q1960.77 724.226 1960.77 720.853 Q1960.77 718.698 1961.76 715.887 Q1962.74 713.077 1963.94 711.179 Q1965.13 709.282 1965.81 709.282 Q1966.39 709.282 1966.39 709.774 Q1966.39 709.961 1966.02 710.383 Q1964.12 712.561 1963.07 715.7 Q1962.04 718.815 1962.04 720.314 Q1962.04 722.937 1964.05 724.835 Q1966.09 726.708 1969.91 727.411 Q1972.18 720.056 1973.54 716.965 Q1976.28 710.828 1979.84 709.329 Q1981.15 708.767 1982.6 708.767 Q1985.23 708.767 1986.66 710.617 Q1988.08 712.444 1988.08 715.372 M1986.73 716.426 Q1986.73 715.185 1986.28 714.131 Q1985.86 713.077 1984.78 712.327 Q1983.7 711.554 1982.13 711.554 Q1979 711.554 1976.37 714.576 Q1973.75 717.597 1972.63 722.282 L1971.66 727.481 Q1971.66 727.669 1972.3 727.669 Q1972.67 727.716 1973.16 727.716 Q1975.83 727.716 1978.36 726.708 Q1980.92 725.701 1982.72 724.109 Q1984.52 722.516 1985.62 720.478 Q1986.73 718.44 1986.73 716.426 Z" fill="#000000" fill-rule="nonzero" fill-opacity="1" /><path clip-path="url(#clip380)" d="M2020.44 744.317 Q2020.44 744.449 2020.29 744.957 Q2020.14 745.465 2019.78 746.252 Q2019.44 747.039 2018.94 747.76 Q2018.47 748.466 2017.68 748.99 Q2016.91 749.498 2016.03 749.498 Q2014.85 749.498 2014.06 748.711 Q2013.27 747.924 2013.27 746.744 Q2013.27 746.105 2013.71 744.891 Q2015.8 739.349 2015.8 737.366 Q2015.8 735.021 2013.98 735.021 Q2012.94 735.021 2012.01 735.447 Q2011.07 735.874 2010.47 736.464 Q2009.86 737.054 2009.39 737.726 Q2008.91 738.399 2008.7 738.841 Q2008.5 739.284 2008.45 739.481 L2006.43 747.58 Q2006.27 748.269 2006.16 748.597 Q2006.04 748.925 2005.73 749.203 Q2005.42 749.498 2004.93 749.498 Q2004.52 749.498 2004.22 749.253 Q2003.94 749.007 2003.94 748.58 Q2003.94 748.515 2004.02 748.17 Q2004.11 747.826 2004.22 747.351 Q2004.34 746.875 2004.39 746.596 Q2004.98 744.367 2005.06 744.055 L2005.99 740.153 Q2006.5 738.218 2006.5 737.366 Q2006.5 735.021 2004.68 735.021 Q2003.78 735.021 2002.93 735.365 Q2002.09 735.693 2001.52 736.152 Q2000.94 736.611 2000.42 737.251 Q1999.91 737.874 1999.65 738.3 Q1999.4 738.71 1999.2 739.12 L1998.78 740.792 Q1998.68 741.251 1998.2 743.039 L1997.47 746.072 Q1996.94 748.334 1996.83 748.547 Q1996.66 749.007 1996.3 749.253 Q1995.94 749.498 1995.58 749.498 Q1995.17 749.498 1994.89 749.253 Q1994.61 749.007 1994.61 748.58 Q1994.61 748.515 1994.66 748.269 Q1994.71 748.023 1994.79 747.679 Q1994.88 747.334 1994.91 747.137 L1996.86 739.382 Q1997.22 737.972 1997.3 737.53 Q1997.4 737.07 1997.4 736.562 Q1997.4 735.021 1996.35 735.021 Q1995.5 735.021 1994.94 736.038 Q1994.38 737.054 1993.91 739.022 Q1993.76 739.563 1993.66 739.677 Q1993.58 739.792 1993.33 739.792 Q1992.92 739.776 1992.92 739.448 Q1992.92 739.366 1993.06 738.841 Q1993.19 738.317 1993.43 737.53 Q1993.7 736.726 1993.97 736.202 Q1994.14 735.857 1994.29 735.628 Q1994.43 735.398 1994.73 735.037 Q1995.02 734.677 1995.47 734.48 Q1995.91 734.283 1996.45 734.283 Q1997.65 734.283 1998.53 735.054 Q1999.43 735.824 1999.55 737.202 Q2001.73 734.283 2004.78 734.283 Q2006.5 734.283 2007.53 735.152 Q2008.5 735.988 2008.62 737.53 Q2010.88 734.283 2014.09 734.283 Q2015.94 734.283 2016.94 735.251 Q2017.94 736.202 2017.94 737.874 Q2017.94 738.743 2017.5 740.399 Q2017.06 742.038 2016.76 742.858 Q2016.47 743.678 2015.89 745.252 Q2015.29 746.76 2015.29 747.646 Q2015.29 748.22 2015.49 748.482 Q2015.68 748.744 2016.11 748.744 Q2016.76 748.744 2017.34 748.367 Q2017.91 747.974 2018.32 747.334 Q2018.75 746.678 2019.03 746.023 Q2019.31 745.35 2019.52 744.596 Q2019.65 744.186 2019.72 744.088 Q2019.8 743.989 2020.03 743.989 Q2020.44 743.989 2020.44 744.317 Z" fill="#000000" fill-rule="nonzero" fill-opacity="1" /><path clip-path="url(#clip380)" d="M2037.9 744.317 Q2037.46 746.432 2036.88 747.646 Q2035.96 749.498 2034.41 749.498 Q2033.23 749.498 2032.39 748.777 Q2031.55 748.056 2031.36 746.973 Q2029.21 749.498 2026.98 749.498 Q2025.01 749.498 2023.77 748.006 Q2022.52 746.498 2022.52 744.121 Q2022.52 741.727 2023.7 739.431 Q2024.9 737.136 2026.78 735.71 Q2028.67 734.283 2030.6 734.283 Q2032.65 734.283 2033.7 736.431 Q2033.78 735.841 2034.16 735.398 Q2034.54 734.955 2035.11 734.955 Q2035.55 734.955 2035.82 735.201 Q2036.08 735.431 2036.08 735.857 Q2036.08 736.07 2035.85 737.005 L2034.64 741.694 L2033.9 744.727 Q2033.62 745.842 2033.54 746.252 Q2033.47 746.662 2033.47 747.203 Q2033.47 748.744 2034.47 748.744 Q2034.96 748.744 2035.36 748.433 Q2035.75 748.121 2036.06 747.465 Q2036.37 746.81 2036.57 746.203 Q2036.77 745.58 2037.03 744.596 Q2037.11 744.203 2037.18 744.104 Q2037.26 743.989 2037.49 743.989 Q2037.9 743.989 2037.9 744.317 M2033.29 737.972 Q2033.29 737.825 2033.18 737.415 Q2033.06 737.005 2032.8 736.431 Q2032.54 735.857 2031.96 735.447 Q2031.41 735.021 2030.65 735.021 Q2029.63 735.021 2028.57 735.89 Q2027.52 736.759 2026.75 738.235 Q2026.16 739.415 2025.52 741.891 Q2024.9 744.367 2024.9 745.596 Q2024.9 746.35 2025.06 747.023 Q2025.24 747.679 2025.75 748.22 Q2026.26 748.744 2027.04 748.744 Q2028.96 748.744 2030.85 746.367 Q2031.21 745.957 2031.29 745.793 Q2031.39 745.613 2031.52 745.121 L2033.19 738.546 Q2033.29 738.054 2033.29 737.972 Z" fill="#000000" fill-rule="nonzero" fill-opacity="1" /><path clip-path="url(#clip380)" d="M2056.02 736.497 Q2056.02 737.415 2055.45 737.939 Q2054.87 738.448 2054.22 738.448 Q2053.59 738.448 2053.26 738.087 Q2052.94 737.726 2052.94 737.267 Q2052.94 736.644 2053.4 736.103 Q2053.85 735.562 2054.54 735.447 Q2053.87 735.021 2052.87 735.021 Q2052.22 735.021 2051.64 735.365 Q2051.08 735.71 2050.74 736.152 Q2050.41 736.595 2050.12 737.234 Q2049.84 737.857 2049.72 738.235 Q2049.62 738.595 2049.54 738.989 L2048.4 743.58 Q2047.84 745.76 2047.84 746.531 Q2047.84 747.482 2048.3 748.121 Q2048.76 748.744 2049.67 748.744 Q2050.03 748.744 2050.44 748.646 Q2050.85 748.531 2051.38 748.236 Q2051.92 747.924 2052.4 747.465 Q2052.89 746.99 2053.36 746.187 Q2053.84 745.383 2054.15 744.35 Q2054.25 743.989 2054.58 743.989 Q2054.99 743.989 2054.99 744.317 Q2054.99 744.596 2054.76 745.186 Q2054.54 745.76 2054.07 746.514 Q2053.61 747.252 2053 747.924 Q2052.4 748.58 2051.49 749.039 Q2050.59 749.498 2049.61 749.498 Q2048.2 749.498 2047.26 748.744 Q2046.33 747.99 2045.98 746.941 Q2045.9 747.088 2045.79 747.285 Q2045.67 747.482 2045.33 747.924 Q2045 748.351 2044.62 748.679 Q2044.25 748.99 2043.66 749.236 Q2043.08 749.498 2042.46 749.498 Q2041.67 749.498 2040.97 749.269 Q2040.28 749.039 2039.79 748.515 Q2039.3 747.99 2039.3 747.269 Q2039.3 746.465 2039.84 745.908 Q2040.39 745.334 2041.15 745.334 Q2041.62 745.334 2042 745.613 Q2042.39 745.891 2042.39 746.498 Q2042.39 747.17 2041.94 747.679 Q2041.48 748.187 2040.82 748.318 Q2041.49 748.744 2042.49 748.744 Q2043.57 748.744 2044.43 747.793 Q2045.28 746.842 2045.69 745.252 Q2046.71 741.432 2047.1 739.727 Q2047.49 738.005 2047.49 737.267 Q2047.49 736.579 2047.31 736.103 Q2047.13 735.628 2046.82 735.415 Q2046.53 735.185 2046.25 735.103 Q2045.98 735.021 2045.69 735.021 Q2045.2 735.021 2044.64 735.218 Q2044.1 735.415 2043.44 735.874 Q2042.8 736.316 2042.2 737.234 Q2041.59 738.153 2041.18 739.415 Q2041.1 739.792 2040.74 739.792 Q2040.34 739.776 2040.34 739.448 Q2040.34 739.169 2040.56 738.595 Q2040.79 738.005 2041.25 737.267 Q2041.72 736.529 2042.33 735.874 Q2042.95 735.201 2043.85 734.742 Q2044.77 734.283 2045.76 734.283 Q2046.2 734.283 2046.62 734.382 Q2047.07 734.464 2047.59 734.71 Q2048.13 734.955 2048.61 735.497 Q2049.08 736.038 2049.38 736.825 Q2049.58 736.447 2049.84 736.087 Q2050.12 735.726 2050.54 735.283 Q2050.99 734.824 2051.59 734.562 Q2052.22 734.283 2052.9 734.283 Q2053.58 734.283 2054.23 734.464 Q2054.89 734.628 2055.45 735.169 Q2056.02 735.693 2056.02 736.497 Z" fill="#000000" fill-rule="nonzero" fill-opacity="1" /><polyline clip-path="url(#clip380)" style="stroke:#008000; stroke-linecap:round; stroke-linejoin:round; stroke-width:4; stroke-opacity:1; fill:none" points="1809.32,781.076 1939.14,781.076 "/>
<path clip-path="url(#clip380)" d="M1988.08 767.212 Q1988.08 769.999 1986.8 772.763 Q1985.51 775.527 1983.4 777.635 Q1981.31 779.72 1978.46 781.031 Q1975.62 782.343 1972.72 782.343 Q1972.2 782.343 1971.15 782.226 Q1969.51 790.869 1969.46 791.009 Q1969.25 791.501 1968.83 791.806 Q1968.43 792.11 1968.15 792.18 Q1967.87 792.251 1967.68 792.251 Q1967.21 792.251 1966.75 791.923 Q1966.3 791.618 1966.3 790.915 Q1966.3 790.752 1966.54 789.955 L1969.09 781.898 Q1965.22 781.008 1963 778.548 Q1960.77 776.066 1960.77 772.693 Q1960.77 770.538 1961.76 767.727 Q1962.74 764.917 1963.94 763.019 Q1965.13 761.122 1965.81 761.122 Q1966.39 761.122 1966.39 761.614 Q1966.39 761.801 1966.02 762.223 Q1964.12 764.401 1963.07 767.54 Q1962.04 770.655 1962.04 772.154 Q1962.04 774.777 1964.05 776.675 Q1966.09 778.548 1969.91 779.251 Q1972.18 771.896 1973.54 768.805 Q1976.28 762.668 1979.84 761.169 Q1981.15 760.607 1982.6 760.607 Q1985.23 760.607 1986.66 762.457 Q1988.08 764.284 1988.08 767.212 M1986.73 768.266 Q1986.73 767.025 1986.28 765.971 Q1985.86 764.917 1984.78 764.167 Q1983.7 763.394 1982.13 763.394 Q1979 763.394 1976.37 766.416 Q1973.75 769.437 1972.63 774.122 L1971.66 779.321 Q1971.66 779.509 1972.3 779.509 Q1972.67 779.556 1973.16 779.556 Q1975.83 779.556 1978.36 778.548 Q1980.92 777.541 1982.72 775.949 Q1984.52 774.356 1985.62 772.318 Q1986.73 770.28 1986.73 768.266 Z" fill="#000000" fill-rule="nonzero" fill-opacity="1" /><path clip-path="url(#clip380)" d="M2022.7 793.714 Q2022.7 795.715 2021.91 797.453 Q2021.14 799.174 2019.63 800.256 Q2018.14 801.338 2016.26 801.338 Q2013.34 801.338 2010.55 799.01 Q2009.99 798.535 2009.6 798.092 Q2009.21 797.649 2007.53 795.616 Q2007.25 796.092 2006.96 796.534 Q2006.66 796.961 2005.83 797.928 Q2004.99 798.895 2004.12 799.568 Q2003.27 800.24 2001.94 800.797 Q2000.63 801.338 1999.27 801.338 Q1997.83 801.338 1996.6 800.683 Q1995.38 800.01 1994.58 798.945 Q1993.79 797.863 1993.35 796.518 Q1992.92 795.157 1992.92 793.747 Q1992.92 791.747 1993.7 790.025 Q1994.48 788.287 1995.97 787.205 Q1997.48 786.123 1999.37 786.123 Q2002.3 786.123 2005.07 788.435 Q2005.63 788.91 2006.02 789.353 Q2006.42 789.796 2008.09 791.829 Q2008.3 791.468 2008.53 791.14 Q2008.76 790.796 2009.34 790.042 Q2009.91 789.288 2010.58 788.681 Q2011.27 788.074 2012.14 787.451 Q2013.01 786.828 2014.11 786.484 Q2015.21 786.123 2016.35 786.123 Q2017.8 786.123 2019.01 786.795 Q2020.24 787.451 2021.03 788.533 Q2021.83 789.599 2022.26 790.96 Q2022.7 792.304 2022.7 793.714 M2021.96 793.714 Q2021.96 792.55 2021.62 791.419 Q2021.27 790.288 2020.62 789.337 Q2019.98 788.369 2018.93 787.779 Q2017.88 787.189 2016.6 787.189 Q2015.26 787.189 2014.01 787.763 Q2012.78 788.32 2011.81 789.271 Q2010.86 790.222 2010.21 791.108 Q2009.55 791.993 2008.98 793.009 Q2009.27 793.37 2010.53 795.042 Q2011.81 796.715 2012.35 797.305 Q2014.57 799.715 2016.8 799.715 Q2018.93 799.715 2020.44 797.977 Q2021.96 796.223 2021.96 793.714 M2006.65 794.452 Q2006.37 794.108 2005.07 792.436 Q2003.79 790.747 2003.25 790.157 Q2001.02 787.73 1998.83 787.73 Q1996.7 787.73 1995.17 789.484 Q1993.66 791.239 1993.66 793.747 Q1993.66 794.911 1994.01 796.043 Q1994.35 797.174 1994.99 798.125 Q1995.65 799.076 1996.7 799.666 Q1997.74 800.256 1999.02 800.256 Q2000.11 800.256 2001.14 799.863 Q2002.19 799.469 2002.98 798.879 Q2003.76 798.289 2004.5 797.469 Q2005.24 796.649 2005.71 795.944 Q2006.21 795.239 2006.65 794.452 Z" fill="#000000" fill-rule="nonzero" fill-opacity="1" /></svg>
