<?xml version="1.0" encoding="utf-8"?>
<svg xmlns="http://www.w3.org/2000/svg" xmlns:xlink="http://www.w3.org/1999/xlink" width="600" height="400" viewBox="0 0 2400 1600">
<defs>
  <clipPath id="clip460">
    <rect x="0" y="0" width="2400" height="1600"/>
  </clipPath>
</defs>
<path clip-path="url(#clip460)" d="M0 1600 L2400 1600 L2400 0 L0 0  Z" fill="#ffffff" fill-rule="evenodd" fill-opacity="1"/>
<defs>
  <clipPath id="clip461">
    <rect x="480" y="0" width="1681" height="1600"/>
  </clipPath>
</defs>
<path clip-path="url(#clip460)" d="M202.714 1423.18 L2149.97 1423.18 L2149.97 47.2441 L202.714 47.2441  Z" fill="#ffffff" fill-rule="evenodd" fill-opacity="1"/>
<defs>
  <clipPath id="clip462">
    <rect x="202" y="47" width="1948" height="1377"/>
  </clipPath>
</defs>
<polyline clip-path="url(#clip462)" style="stroke:#000000; stroke-linecap:round; stroke-linejoin:round; stroke-width:2; stroke-opacity:0.1; fill:none" points="257.825,1423.18 257.825,47.2441 "/>
<polyline clip-path="url(#clip462)" style="stroke:#000000; stroke-linecap:round; stroke-linejoin:round; stroke-width:2; stroke-opacity:0.1; fill:none" points="717.084,1423.18 717.084,47.2441 "/>
<polyline clip-path="url(#clip462)" style="stroke:#000000; stroke-linecap:round; stroke-linejoin:round; stroke-width:2; stroke-opacity:0.1; fill:none" points="1176.34,1423.18 1176.34,47.2441 "/>
<polyline clip-path="url(#clip462)" style="stroke:#000000; stroke-linecap:round; stroke-linejoin:round; stroke-width:2; stroke-opacity:0.1; fill:none" points="1635.6,1423.18 1635.6,47.2441 "/>
<polyline clip-path="url(#clip462)" style="stroke:#000000; stroke-linecap:round; stroke-linejoin:round; stroke-width:2; stroke-opacity:0.1; fill:none" points="2094.86,1423.18 2094.86,47.2441 "/>
<polyline clip-path="url(#clip460)" style="stroke:#000000; stroke-linecap:round; stroke-linejoin:round; stroke-width:4; stroke-opacity:1; fill:none" points="202.714,1423.18 2149.97,1423.18 "/>
<polyline clip-path="url(#clip460)" style="stroke:#000000; stroke-linecap:round; stroke-linejoin:round; stroke-width:4; stroke-opacity:1; fill:none" points="257.825,1423.18 257.825,1442.08 "/>
<polyline clip-path="url(#clip460)" style="stroke:#000000; stroke-linecap:round; stroke-linejoin:round; stroke-width:4; stroke-opacity:1; fill:none" points="717.084,1423.18 717.084,1442.08 "/>
<polyline clip-path="url(#clip460)" style="stroke:#000000; stroke-linecap:round; stroke-linejoin:round; stroke-width:4; stroke-opacity:1; fill:none" points="1176.34,1423.18 1176.34,1442.08 "/>
<polyline clip-path="url(#clip460)" style="stroke:#000000; stroke-linecap:round; stroke-linejoin:round; stroke-width:4; stroke-opacity:1; fill:none" points="1635.6,1423.18 1635.6,1442.08 "/>
<polyline clip-path="url(#clip460)" style="stroke:#000000; stroke-linecap:round; stroke-linejoin:round; stroke-width:4; stroke-opacity:1; fill:none" points="2094.86,1423.18 2094.86,1442.08 "/>
<path clip-path="url(#clip460)" d="M236.008 1463.7 Q232.397 1463.7 230.568 1467.26 Q228.762 1470.8 228.762 1477.93 Q228.762 1485.04 230.568 1488.61 Q232.397 1492.15 236.008 1492.15 Q239.642 1492.15 241.447 1488.61 Q243.276 1485.04 243.276 1477.93 Q243.276 1470.8 241.447 1467.26 Q239.642 1463.7 236.008 1463.7 M236.008 1459.99 Q241.818 1459.99 244.873 1464.6 Q247.952 1469.18 247.952 1477.93 Q247.952 1486.66 244.873 1491.27 Q241.818 1495.85 236.008 1495.85 Q230.197 1495.85 227.119 1491.27 Q224.063 1486.66 224.063 1477.93 Q224.063 1469.18 227.119 1464.6 Q230.197 1459.99 236.008 1459.99 Z" fill="#000000" fill-rule="nonzero" fill-opacity="1" /><path clip-path="url(#clip460)" d="M256.17 1489.3 L261.054 1489.3 L261.054 1495.18 L256.17 1495.18 L256.17 1489.3 Z" fill="#000000" fill-rule="nonzero" fill-opacity="1" /><path clip-path="url(#clip460)" d="M275.267 1491.24 L291.586 1491.24 L291.586 1495.18 L269.642 1495.18 L269.642 1491.24 Q272.304 1488.49 276.887 1483.86 Q281.494 1479.21 282.674 1477.87 Q284.919 1475.34 285.799 1473.61 Q286.702 1471.85 286.702 1470.16 Q286.702 1467.4 284.757 1465.67 Q282.836 1463.93 279.734 1463.93 Q277.535 1463.93 275.082 1464.69 Q272.651 1465.46 269.873 1467.01 L269.873 1462.29 Q272.697 1461.15 275.151 1460.57 Q277.605 1459.99 279.642 1459.99 Q285.012 1459.99 288.206 1462.68 Q291.401 1465.37 291.401 1469.86 Q291.401 1471.99 290.591 1473.91 Q289.804 1475.8 287.697 1478.4 Q287.118 1479.07 284.017 1482.29 Q280.915 1485.48 275.267 1491.24 Z" fill="#000000" fill-rule="nonzero" fill-opacity="1" /><path clip-path="url(#clip460)" d="M694.792 1463.7 Q691.181 1463.7 689.352 1467.26 Q687.547 1470.8 687.547 1477.93 Q687.547 1485.04 689.352 1488.61 Q691.181 1492.15 694.792 1492.15 Q698.426 1492.15 700.232 1488.61 Q702.061 1485.04 702.061 1477.93 Q702.061 1470.8 700.232 1467.26 Q698.426 1463.7 694.792 1463.7 M694.792 1459.99 Q700.602 1459.99 703.658 1464.6 Q706.737 1469.18 706.737 1477.93 Q706.737 1486.66 703.658 1491.27 Q700.602 1495.85 694.792 1495.85 Q688.982 1495.85 685.903 1491.27 Q682.848 1486.66 682.848 1477.93 Q682.848 1469.18 685.903 1464.6 Q688.982 1459.99 694.792 1459.99 Z" fill="#000000" fill-rule="nonzero" fill-opacity="1" /><path clip-path="url(#clip460)" d="M714.954 1489.3 L719.838 1489.3 L719.838 1495.18 L714.954 1495.18 L714.954 1489.3 Z" fill="#000000" fill-rule="nonzero" fill-opacity="1" /><path clip-path="url(#clip460)" d="M744.19 1476.55 Q747.546 1477.26 749.421 1479.53 Q751.32 1481.8 751.32 1485.13 Q751.32 1490.25 747.801 1493.05 Q744.283 1495.85 737.801 1495.85 Q735.625 1495.85 733.31 1495.41 Q731.019 1494.99 728.565 1494.14 L728.565 1489.62 Q730.51 1490.76 732.824 1491.34 Q735.139 1491.92 737.662 1491.92 Q742.06 1491.92 744.352 1490.18 Q746.667 1488.44 746.667 1485.13 Q746.667 1482.08 744.514 1480.37 Q742.384 1478.63 738.565 1478.63 L734.537 1478.63 L734.537 1474.79 L738.75 1474.79 Q742.199 1474.79 744.028 1473.42 Q745.857 1472.03 745.857 1469.44 Q745.857 1466.78 743.959 1465.37 Q742.084 1463.93 738.565 1463.93 Q736.644 1463.93 734.445 1464.35 Q732.246 1464.76 729.607 1465.64 L729.607 1461.48 Q732.269 1460.74 734.584 1460.37 Q736.922 1459.99 738.982 1459.99 Q744.306 1459.99 747.408 1462.43 Q750.509 1464.83 750.509 1468.95 Q750.509 1471.82 748.866 1473.81 Q747.222 1475.78 744.19 1476.55 Z" fill="#000000" fill-rule="nonzero" fill-opacity="1" /><path clip-path="url(#clip460)" d="M1153.48 1463.7 Q1149.87 1463.7 1148.04 1467.26 Q1146.24 1470.8 1146.24 1477.93 Q1146.24 1485.04 1148.04 1488.61 Q1149.87 1492.15 1153.48 1492.15 Q1157.12 1492.15 1158.92 1488.61 Q1160.75 1485.04 1160.75 1477.93 Q1160.75 1470.8 1158.92 1467.26 Q1157.12 1463.7 1153.48 1463.7 M1153.48 1459.99 Q1159.29 1459.99 1162.35 1464.6 Q1165.43 1469.18 1165.43 1477.93 Q1165.43 1486.66 1162.35 1491.27 Q1159.29 1495.85 1153.48 1495.85 Q1147.67 1495.85 1144.6 1491.27 Q1141.54 1486.66 1141.54 1477.93 Q1141.54 1469.18 1144.6 1464.6 Q1147.67 1459.99 1153.48 1459.99 Z" fill="#000000" fill-rule="nonzero" fill-opacity="1" /><path clip-path="url(#clip460)" d="M1173.65 1489.3 L1178.53 1489.3 L1178.53 1495.18 L1173.65 1495.18 L1173.65 1489.3 Z" fill="#000000" fill-rule="nonzero" fill-opacity="1" /><path clip-path="url(#clip460)" d="M1201.56 1464.69 L1189.76 1483.14 L1201.56 1483.14 L1201.56 1464.69 M1200.34 1460.62 L1206.22 1460.62 L1206.22 1483.14 L1211.15 1483.14 L1211.15 1487.03 L1206.22 1487.03 L1206.22 1495.18 L1201.56 1495.18 L1201.56 1487.03 L1185.96 1487.03 L1185.96 1482.52 L1200.34 1460.62 Z" fill="#000000" fill-rule="nonzero" fill-opacity="1" /><path clip-path="url(#clip460)" d="M1613.48 1463.7 Q1609.87 1463.7 1608.04 1467.26 Q1606.24 1470.8 1606.24 1477.93 Q1606.24 1485.04 1608.04 1488.61 Q1609.87 1492.15 1613.48 1492.15 Q1617.12 1492.15 1618.92 1488.61 Q1620.75 1485.04 1620.75 1477.93 Q1620.75 1470.8 1618.92 1467.26 Q1617.12 1463.7 1613.48 1463.7 M1613.48 1459.99 Q1619.29 1459.99 1622.35 1464.6 Q1625.43 1469.18 1625.43 1477.93 Q1625.43 1486.66 1622.35 1491.27 Q1619.29 1495.85 1613.48 1495.85 Q1607.67 1495.85 1604.59 1491.27 Q1601.54 1486.66 1601.54 1477.93 Q1601.54 1469.18 1604.59 1464.6 Q1607.67 1459.99 1613.48 1459.99 Z" fill="#000000" fill-rule="nonzero" fill-opacity="1" /><path clip-path="url(#clip460)" d="M1633.65 1489.3 L1638.53 1489.3 L1638.53 1495.18 L1633.65 1495.18 L1633.65 1489.3 Z" fill="#000000" fill-rule="nonzero" fill-opacity="1" /><path clip-path="url(#clip460)" d="M1648.76 1460.62 L1667.12 1460.62 L1667.12 1464.56 L1653.04 1464.56 L1653.04 1473.03 Q1654.06 1472.68 1655.08 1472.52 Q1656.1 1472.33 1657.12 1472.33 Q1662.9 1472.33 1666.28 1475.5 Q1669.66 1478.68 1669.66 1484.09 Q1669.66 1489.67 1666.19 1492.77 Q1662.72 1495.85 1656.4 1495.85 Q1654.22 1495.85 1651.96 1495.48 Q1649.71 1495.11 1647.3 1494.37 L1647.3 1489.67 Q1649.39 1490.8 1651.61 1491.36 Q1653.83 1491.92 1656.31 1491.92 Q1660.31 1491.92 1662.65 1489.81 Q1664.99 1487.7 1664.99 1484.09 Q1664.99 1480.48 1662.65 1478.37 Q1660.31 1476.27 1656.31 1476.27 Q1654.43 1476.27 1652.56 1476.68 Q1650.71 1477.1 1648.76 1477.98 L1648.76 1460.62 Z" fill="#000000" fill-rule="nonzero" fill-opacity="1" /><path clip-path="url(#clip460)" d="M2072.16 1463.7 Q2068.55 1463.7 2066.72 1467.26 Q2064.92 1470.8 2064.92 1477.93 Q2064.92 1485.04 2066.72 1488.61 Q2068.55 1492.15 2072.16 1492.15 Q2075.8 1492.15 2077.6 1488.61 Q2079.43 1485.04 2079.43 1477.93 Q2079.43 1470.8 2077.6 1467.26 Q2075.8 1463.7 2072.16 1463.7 M2072.16 1459.99 Q2077.97 1459.99 2081.03 1464.6 Q2084.11 1469.18 2084.11 1477.93 Q2084.11 1486.66 2081.03 1491.27 Q2077.97 1495.85 2072.16 1495.85 Q2066.35 1495.85 2063.28 1491.27 Q2060.22 1486.66 2060.22 1477.93 Q2060.22 1469.18 2063.28 1464.6 Q2066.35 1459.99 2072.16 1459.99 Z" fill="#000000" fill-rule="nonzero" fill-opacity="1" /><path clip-path="url(#clip460)" d="M2092.33 1489.3 L2097.21 1489.3 L2097.21 1495.18 L2092.33 1495.18 L2092.33 1489.3 Z" fill="#000000" fill-rule="nonzero" fill-opacity="1" /><path clip-path="url(#clip460)" d="M2117.97 1476.04 Q2114.83 1476.04 2112.97 1478.19 Q2111.15 1480.34 2111.15 1484.09 Q2111.15 1487.82 2112.97 1489.99 Q2114.83 1492.15 2117.97 1492.15 Q2121.12 1492.15 2122.95 1489.99 Q2124.8 1487.82 2124.8 1484.09 Q2124.8 1480.34 2122.95 1478.19 Q2121.12 1476.04 2117.97 1476.04 M2127.26 1461.38 L2127.26 1465.64 Q2125.5 1464.81 2123.69 1464.37 Q2121.91 1463.93 2120.15 1463.93 Q2115.52 1463.93 2113.07 1467.05 Q2110.64 1470.18 2110.29 1476.5 Q2111.65 1474.49 2113.71 1473.42 Q2115.78 1472.33 2118.25 1472.33 Q2123.46 1472.33 2126.47 1475.5 Q2129.5 1478.65 2129.5 1484.09 Q2129.5 1489.42 2126.35 1492.63 Q2123.21 1495.85 2117.97 1495.85 Q2111.98 1495.85 2108.81 1491.27 Q2105.64 1486.66 2105.64 1477.93 Q2105.64 1469.74 2109.53 1464.88 Q2113.41 1459.99 2119.96 1459.99 Q2121.72 1459.99 2123.51 1460.34 Q2125.31 1460.69 2127.26 1461.38 Z" fill="#000000" fill-rule="nonzero" fill-opacity="1" /><path clip-path="url(#clip460)" d="M1151.21 1511.54 Q1151.21 1512.15 1151.08 1512.67 L1149.28 1524.13 Q1149.18 1525 1148.99 1525.32 Q1148.82 1525.65 1148.31 1525.65 Q1147.5 1525.65 1147.5 1524.81 Q1147.5 1524.33 1147.7 1523.55 Q1148.25 1519.91 1148.25 1518.27 Q1148.25 1517.18 1148.02 1516.37 Q1147.83 1515.53 1147.5 1514.95 Q1147.21 1514.37 1146.54 1513.99 Q1145.86 1513.6 1145.22 1513.38 Q1144.57 1513.15 1143.41 1513.05 Q1142.25 1512.92 1141.26 1512.89 Q1140.26 1512.86 1138.62 1512.86 Q1135.04 1512.86 1134.46 1512.99 Q1133.85 1513.15 1133.53 1513.63 Q1133.24 1514.08 1132.92 1515.44 L1124.16 1550.44 L1123.9 1551.83 Q1123.9 1552.6 1124.38 1552.86 Q1124.86 1553.12 1126.35 1553.28 Q1128.47 1553.44 1130.56 1553.44 Q1130.63 1553.44 1130.76 1553.44 Q1131.47 1553.44 1131.76 1553.47 Q1132.05 1553.47 1132.34 1553.54 Q1132.63 1553.6 1132.69 1553.76 Q1132.79 1553.89 1132.79 1554.15 Q1132.79 1554.76 1132.53 1555.08 Q1132.27 1555.37 1132.01 1555.44 Q1131.79 1555.47 1131.34 1555.47 Q1130.44 1555.47 1128.5 1555.4 Q1126.57 1555.34 1125.6 1555.34 L1120.13 1555.27 L1114.53 1555.34 Q1113.66 1555.34 1111.82 1555.4 Q1109.98 1555.47 1109.11 1555.47 Q1107.99 1555.47 1107.99 1554.66 Q1107.99 1553.76 1108.41 1553.6 Q1108.86 1553.44 1110.76 1553.44 Q1113.43 1553.44 1114.88 1553.31 Q1116.33 1553.18 1117.1 1552.73 Q1117.91 1552.28 1118.13 1551.83 Q1118.36 1551.35 1118.62 1550.25 L1127.47 1515.05 Q1127.73 1514.28 1127.73 1513.66 Q1127.73 1513.34 1127.63 1513.21 Q1127.57 1513.09 1127.15 1512.99 Q1126.73 1512.86 1125.86 1512.86 L1123.29 1512.86 Q1120.64 1512.86 1119 1512.99 Q1117.39 1513.09 1115.85 1513.57 Q1114.33 1514.05 1113.43 1514.73 Q1112.56 1515.4 1111.59 1516.79 Q1110.63 1518.17 1109.92 1519.85 Q1109.24 1521.52 1108.28 1524.26 Q1107.96 1525.16 1107.76 1525.42 Q1107.6 1525.65 1107.15 1525.65 Q1106.83 1525.65 1106.57 1525.45 Q1106.35 1525.23 1106.35 1524.94 Q1106.67 1523.87 1106.73 1523.75 L1110.69 1512.12 Q1111.02 1511.19 1111.3 1511.02 Q1111.63 1510.83 1112.82 1510.83 L1149.4 1510.83 Q1149.98 1510.83 1150.18 1510.83 Q1150.37 1510.83 1150.69 1510.9 Q1151.01 1510.96 1151.11 1511.12 Q1151.21 1511.28 1151.21 1511.54 Z" fill="#000000" fill-rule="nonzero" fill-opacity="1" /><path clip-path="url(#clip460)" d="M1182.74 1548.5 Q1182.74 1550.08 1180.49 1550.08 L1175.21 1550.08 Q1174.4 1553.82 1174.4 1557.43 Q1174.4 1561.73 1175.73 1565.05 Q1176 1565.7 1176 1566.06 Q1176 1566.74 1175.39 1567.28 Q1174.81 1567.82 1174.11 1567.82 Q1173.52 1567.82 1173.14 1567.37 Q1172.78 1566.92 1172.46 1565.5 Q1172.08 1563.83 1172.08 1561.98 Q1172.08 1559.77 1172.44 1557.65 Q1172.8 1555.51 1174.02 1550.08 L1168.81 1550.08 L1166.22 1560.29 Q1165.29 1563.74 1164.98 1564.8 Q1164.77 1565.43 1164.71 1565.63 Q1164.64 1565.83 1164.44 1566.33 Q1164.25 1566.8 1164.12 1566.98 Q1163.98 1567.14 1163.76 1567.39 Q1163.53 1567.66 1163.26 1567.73 Q1162.99 1567.82 1162.65 1567.82 Q1162.14 1567.82 1161.73 1567.48 Q1161.32 1567.17 1161.32 1566.56 Q1161.32 1566.15 1161.68 1565.45 Q1165.97 1556.21 1167.59 1550.08 L1164.98 1550.08 Q1161.37 1550.08 1159.11 1553.64 Q1158.75 1554.11 1158.55 1554.16 Q1158.46 1554.18 1158.37 1554.18 Q1158.12 1554.18 1157.96 1554.07 Q1157.83 1553.95 1157.83 1553.84 L1157.81 1553.73 Q1157.81 1553.59 1158.15 1552.98 Q1158.51 1552.35 1159.18 1551.38 Q1159.88 1550.41 1160.63 1549.58 Q1161.35 1548.81 1162.05 1548.34 Q1162.77 1547.84 1163.44 1547.66 Q1164.12 1547.48 1164.5 1547.44 Q1164.89 1547.39 1165.43 1547.39 L1180.89 1547.39 Q1181.48 1547.39 1181.79 1547.44 Q1182.11 1547.46 1182.43 1547.73 Q1182.74 1547.98 1182.74 1548.5 Z" fill="#000000" fill-rule="nonzero" fill-opacity="1" /><path clip-path="url(#clip460)" d="M1190.47 1546.61 Q1189.53 1545.55 1189.53 1544.16 Q1189.53 1542.78 1190.43 1541.75 Q1191.37 1540.68 1193.04 1540.68 Q1195.01 1540.68 1196.14 1542.58 Q1197.26 1544.45 1197.26 1547.61 Q1197.26 1551.02 1195.88 1554.18 Q1194.49 1557.37 1193.14 1558.88 Q1191.79 1560.39 1191.24 1560.39 Q1190.6 1560.39 1190.6 1559.69 Q1190.6 1559.43 1191.05 1558.94 Q1195.78 1553.86 1195.81 1547.61 Q1195.81 1546.61 1195.68 1546.61 L1195.52 1546.74 Q1194.4 1547.67 1193.04 1547.67 Q1191.4 1547.67 1190.47 1546.61 Z" fill="#000000" fill-rule="nonzero" fill-opacity="1" /><path clip-path="url(#clip460)" d="M1243.49 1540.04 Q1243.75 1540.33 1243.75 1540.62 Q1243.75 1540.91 1243.1 1541.75 Q1242.49 1542.58 1241.17 1543.71 Q1239.85 1544.84 1238.14 1545.9 Q1236.44 1546.96 1233.92 1547.67 Q1231.41 1548.41 1228.77 1548.41 Q1223.84 1548.41 1220.94 1545.16 Q1218.08 1541.91 1218.08 1537.24 Q1218.08 1532.7 1220.62 1528.35 Q1223.17 1523.97 1227.29 1521.26 Q1231.41 1518.53 1235.76 1518.53 Q1239.21 1518.53 1241.36 1520.14 Q1243.52 1521.75 1243.52 1524.19 Q1243.52 1526.09 1242.43 1527.25 Q1241.33 1528.41 1239.85 1528.41 Q1238.82 1528.41 1238.11 1527.83 Q1237.4 1527.22 1237.4 1526.09 Q1237.4 1524.65 1238.59 1523.52 Q1239.04 1523.07 1239.56 1522.87 Q1240.11 1522.65 1240.43 1522.65 Q1240.75 1522.62 1241.49 1522.62 Q1240.82 1521.36 1239.21 1520.68 Q1237.63 1519.98 1235.82 1519.98 Q1233.15 1519.98 1230.61 1521.84 Q1228.06 1523.68 1226.52 1526.58 Q1224.97 1529.41 1223.97 1533.44 Q1222.97 1537.43 1222.97 1539.75 Q1222.97 1542.94 1224.45 1544.93 Q1225.94 1546.93 1228.9 1546.93 Q1229.48 1546.93 1230.09 1546.9 Q1230.74 1546.87 1232.35 1546.51 Q1233.99 1546.16 1235.44 1545.55 Q1236.89 1544.93 1238.72 1543.61 Q1240.59 1542.26 1242.07 1540.43 Q1242.59 1539.75 1242.94 1539.75 Q1243.23 1539.75 1243.49 1540.04 Z" fill="#000000" fill-rule="nonzero" fill-opacity="1" /><polyline clip-path="url(#clip460)" style="stroke:#000000; stroke-linecap:round; stroke-linejoin:round; stroke-width:4; stroke-opacity:1; fill:none" points="202.714,1423.18 202.714,47.2441 "/>
<polyline clip-path="url(#clip460)" style="stroke:#000000; stroke-linecap:round; stroke-linejoin:round; stroke-width:4; stroke-opacity:1; fill:none" points="202.714,1335.45 183.816,1335.45 "/>
<polyline clip-path="url(#clip460)" style="stroke:#000000; stroke-linecap:round; stroke-linejoin:round; stroke-width:4; stroke-opacity:1; fill:none" points="202.714,1143.98 183.816,1143.98 "/>
<polyline clip-path="url(#clip460)" style="stroke:#000000; stroke-linecap:round; stroke-linejoin:round; stroke-width:4; stroke-opacity:1; fill:none" points="202.714,952.519 183.816,952.519 "/>
<polyline clip-path="url(#clip460)" style="stroke:#000000; stroke-linecap:round; stroke-linejoin:round; stroke-width:4; stroke-opacity:1; fill:none" points="202.714,761.054 183.816,761.054 "/>
<polyline clip-path="url(#clip460)" style="stroke:#000000; stroke-linecap:round; stroke-linejoin:round; stroke-width:4; stroke-opacity:1; fill:none" points="202.714,569.589 183.816,569.589 "/>
<polyline clip-path="url(#clip460)" style="stroke:#000000; stroke-linecap:round; stroke-linejoin:round; stroke-width:4; stroke-opacity:1; fill:none" points="202.714,378.123 183.816,378.123 "/>
<polyline clip-path="url(#clip460)" style="stroke:#000000; stroke-linecap:round; stroke-linejoin:round; stroke-width:4; stroke-opacity:1; fill:none" points="202.714,186.658 183.816,186.658 "/>
<path clip-path="url(#clip460)" d="M136.862 1336.32 Q133.528 1336.32 131.607 1338.1 Q129.709 1339.88 129.709 1343.01 Q129.709 1346.13 131.607 1347.91 Q133.528 1349.7 136.862 1349.7 Q140.195 1349.7 142.116 1347.91 Q144.038 1346.11 144.038 1343.01 Q144.038 1339.88 142.116 1338.1 Q140.218 1336.32 136.862 1336.32 M132.186 1334.33 Q129.177 1333.59 127.487 1331.53 Q125.82 1329.47 125.82 1326.5 Q125.82 1322.36 128.76 1319.95 Q131.723 1317.54 136.862 1317.54 Q142.024 1317.54 144.964 1319.95 Q147.903 1322.36 147.903 1326.5 Q147.903 1329.47 146.214 1331.53 Q144.547 1333.59 141.561 1334.33 Q144.94 1335.11 146.815 1337.41 Q148.714 1339.7 148.714 1343.01 Q148.714 1348.03 145.635 1350.72 Q142.579 1353.4 136.862 1353.4 Q131.144 1353.4 128.066 1350.72 Q125.01 1348.03 125.01 1343.01 Q125.01 1339.7 126.908 1337.41 Q128.806 1335.11 132.186 1334.33 M130.473 1326.94 Q130.473 1329.63 132.14 1331.13 Q133.829 1332.64 136.862 1332.64 Q139.871 1332.64 141.561 1331.13 Q143.274 1329.63 143.274 1326.94 Q143.274 1324.26 141.561 1322.75 Q139.871 1321.25 136.862 1321.25 Q133.829 1321.25 132.14 1322.75 Q130.473 1324.26 130.473 1326.94 Z" fill="#000000" fill-rule="nonzero" fill-opacity="1" /><path clip-path="url(#clip460)" d="M127.093 1160.55 L127.093 1156.29 Q128.853 1157.12 130.658 1157.56 Q132.464 1158 134.2 1158 Q138.829 1158 141.26 1154.9 Q143.714 1151.77 144.061 1145.43 Q142.718 1147.42 140.658 1148.49 Q138.598 1149.55 136.098 1149.55 Q130.913 1149.55 127.88 1146.43 Q124.871 1143.28 124.871 1137.84 Q124.871 1132.51 128.019 1129.3 Q131.167 1126.08 136.399 1126.08 Q142.394 1126.08 145.542 1130.69 Q148.714 1135.27 148.714 1144.02 Q148.714 1152.19 144.825 1157.07 Q140.959 1161.94 134.408 1161.94 Q132.649 1161.94 130.843 1161.59 Q129.038 1161.24 127.093 1160.55 M136.399 1145.89 Q139.547 1145.89 141.376 1143.74 Q143.227 1141.59 143.227 1137.84 Q143.227 1134.11 141.376 1131.96 Q139.547 1129.78 136.399 1129.78 Q133.251 1129.78 131.399 1131.96 Q129.57 1134.11 129.57 1137.84 Q129.57 1141.59 131.399 1143.74 Q133.251 1145.89 136.399 1145.89 Z" fill="#000000" fill-rule="nonzero" fill-opacity="1" /><path clip-path="url(#clip460)" d="M97.4176 965.864 L105.056 965.864 L105.056 939.498 L96.7463 941.165 L96.7463 936.906 L105.01 935.239 L109.686 935.239 L109.686 965.864 L117.325 965.864 L117.325 969.799 L97.4176 969.799 L97.4176 965.864 Z" fill="#000000" fill-rule="nonzero" fill-opacity="1" /><path clip-path="url(#clip460)" d="M136.769 938.318 Q133.158 938.318 131.329 941.882 Q129.524 945.424 129.524 952.554 Q129.524 959.66 131.329 963.225 Q133.158 966.767 136.769 966.767 Q140.403 966.767 142.209 963.225 Q144.038 959.66 144.038 952.554 Q144.038 945.424 142.209 941.882 Q140.403 938.318 136.769 938.318 M136.769 934.614 Q142.579 934.614 145.635 939.22 Q148.714 943.804 148.714 952.554 Q148.714 961.28 145.635 965.887 Q142.579 970.47 136.769 970.47 Q130.959 970.47 127.88 965.887 Q124.825 961.28 124.825 952.554 Q124.825 943.804 127.88 939.22 Q130.959 934.614 136.769 934.614 Z" fill="#000000" fill-rule="nonzero" fill-opacity="1" /><path clip-path="url(#clip460)" d="M98.6444 774.399 L106.283 774.399 L106.283 748.033 L97.9731 749.7 L97.9731 745.44 L106.237 743.774 L110.913 743.774 L110.913 774.399 L118.552 774.399 L118.552 778.334 L98.6444 778.334 L98.6444 774.399 Z" fill="#000000" fill-rule="nonzero" fill-opacity="1" /><path clip-path="url(#clip460)" d="M128.806 774.399 L136.445 774.399 L136.445 748.033 L128.135 749.7 L128.135 745.44 L136.399 743.774 L141.075 743.774 L141.075 774.399 L148.714 774.399 L148.714 778.334 L128.806 778.334 L128.806 774.399 Z" fill="#000000" fill-rule="nonzero" fill-opacity="1" /><path clip-path="url(#clip460)" d="M99.0148 582.933 L106.654 582.933 L106.654 556.568 L98.3435 558.235 L98.3435 553.975 L106.607 552.309 L111.283 552.309 L111.283 582.933 L118.922 582.933 L118.922 586.869 L99.0148 586.869 L99.0148 582.933 Z" fill="#000000" fill-rule="nonzero" fill-opacity="1" /><path clip-path="url(#clip460)" d="M132.394 582.933 L148.714 582.933 L148.714 586.869 L126.769 586.869 L126.769 582.933 Q129.431 580.179 134.015 575.549 Q138.621 570.896 139.802 569.554 Q142.047 567.031 142.927 565.295 Q143.829 563.535 143.829 561.846 Q143.829 559.091 141.885 557.355 Q139.964 555.619 136.862 555.619 Q134.663 555.619 132.209 556.383 Q129.778 557.147 127.001 558.697 L127.001 553.975 Q129.825 552.841 132.278 552.262 Q134.732 551.684 136.769 551.684 Q142.14 551.684 145.334 554.369 Q148.528 557.054 148.528 561.545 Q148.528 563.674 147.718 565.596 Q146.931 567.494 144.825 570.086 Q144.246 570.758 141.144 573.975 Q138.042 577.17 132.394 582.933 Z" fill="#000000" fill-rule="nonzero" fill-opacity="1" /><path clip-path="url(#clip460)" d="M98.0657 391.468 L105.705 391.468 L105.705 365.103 L97.3944 366.769 L97.3944 362.51 L105.658 360.843 L110.334 360.843 L110.334 391.468 L117.973 391.468 L117.973 395.403 L98.0657 395.403 L98.0657 391.468 Z" fill="#000000" fill-rule="nonzero" fill-opacity="1" /><path clip-path="url(#clip460)" d="M141.584 376.769 Q144.94 377.487 146.815 379.755 Q148.714 382.024 148.714 385.357 Q148.714 390.473 145.195 393.274 Q141.677 396.075 135.195 396.075 Q133.019 396.075 130.704 395.635 Q128.413 395.218 125.959 394.362 L125.959 389.848 Q127.904 390.982 130.218 391.561 Q132.533 392.14 135.056 392.14 Q139.454 392.14 141.746 390.403 Q144.061 388.667 144.061 385.357 Q144.061 382.302 141.908 380.589 Q139.778 378.853 135.959 378.853 L131.931 378.853 L131.931 375.01 L136.144 375.01 Q139.593 375.01 141.422 373.644 Q143.251 372.255 143.251 369.663 Q143.251 367.001 141.353 365.589 Q139.478 364.154 135.959 364.154 Q134.038 364.154 131.839 364.57 Q129.64 364.987 127.001 365.867 L127.001 361.7 Q129.663 360.959 131.978 360.589 Q134.316 360.218 136.376 360.218 Q141.7 360.218 144.802 362.649 Q147.903 365.056 147.903 369.177 Q147.903 372.047 146.26 374.038 Q144.616 376.005 141.584 376.769 Z" fill="#000000" fill-rule="nonzero" fill-opacity="1" /><path clip-path="url(#clip460)" d="M96.9315 200.003 L104.57 200.003 L104.57 173.638 L96.2602 175.304 L96.2602 171.045 L104.524 169.378 L109.2 169.378 L109.2 200.003 L116.839 200.003 L116.839 203.938 L96.9315 203.938 L96.9315 200.003 Z" fill="#000000" fill-rule="nonzero" fill-opacity="1" /><path clip-path="url(#clip460)" d="M139.13 173.452 L127.325 191.901 L139.13 191.901 L139.13 173.452 M137.903 169.378 L143.783 169.378 L143.783 191.901 L148.714 191.901 L148.714 195.79 L143.783 195.79 L143.783 203.938 L139.13 203.938 L139.13 195.79 L123.529 195.79 L123.529 191.276 L137.903 169.378 Z" fill="#000000" fill-rule="nonzero" fill-opacity="1" /><path clip-path="url(#clip460)" d="M36.1996 771.925 Q37.1013 771.925 37.3268 772.343 Q37.52 772.762 37.52 773.921 L37.52 780.105 L56.9723 785 Q58.6792 785.387 60.1285 785.387 Q61.7388 785.387 62.4473 784.904 Q63.1559 784.388 63.1559 783.325 Q63.1559 781.232 61.2557 778.978 Q59.3556 776.691 54.7179 774.759 Q54.106 774.501 53.9772 774.372 Q53.8162 774.211 53.8162 773.793 Q53.8162 772.987 54.4603 772.987 Q54.6857 772.987 55.7163 773.438 Q56.7469 773.857 58.2606 774.791 Q59.7742 775.693 61.1913 776.884 Q62.6084 778.044 63.6389 779.815 Q64.6373 781.586 64.6373 783.487 Q64.6373 786.16 62.9304 787.867 Q61.2235 789.541 58.5504 789.541 Q57.6809 789.541 54.9112 788.865 Q52.1092 788.189 37.52 784.517 L37.52 790.346 Q37.52 791.152 37.4878 791.474 Q37.4556 791.763 37.2946 791.989 Q37.1013 792.182 36.7148 792.182 Q36.1029 792.182 35.8453 791.924 Q35.5554 791.667 35.5232 791.345 Q35.4588 790.99 35.4588 790.185 L35.4588 784.002 L24.9919 781.425 Q23.9613 781.168 23.3816 780.524 Q22.7697 779.847 22.7053 779.461 Q22.6087 779.074 22.6087 778.784 Q22.6087 777.915 23.0918 777.4 Q23.5427 776.884 24.38 776.884 Q24.8309 776.884 35.4588 779.59 L35.4588 773.793 Q35.4588 773.052 35.491 772.762 Q35.5232 772.44 35.6843 772.182 Q35.8453 771.925 36.1996 771.925 Z" fill="#000000" fill-rule="nonzero" fill-opacity="1" /><path clip-path="url(#clip460)" d="M76.4369 765.08 L75.3773 765.08 L75.3773 764.696 Q75.3773 762.667 74.9941 762.081 Q74.5883 761.473 73.2582 761.473 L59.7317 761.473 Q58.4016 761.518 57.9958 762.126 Q57.59 762.712 57.59 764.741 L57.59 765.08 L56.5756 765.08 L56.5756 741.859 L57.59 741.859 L57.59 742.175 Q57.59 744.249 57.9958 744.835 Q58.3791 745.399 59.7317 745.444 L73.2582 745.444 Q74.5883 745.399 74.9941 744.835 Q75.3773 744.249 75.3773 742.22 L75.3773 741.859 L76.4369 741.859 Q76.3016 744.542 76.3016 747.202 L76.3016 747.382 Q76.3016 749.547 76.4369 752.229 L75.3773 752.229 L75.3773 751.959 Q75.3773 749.659 74.9039 749.163 Q74.4079 748.645 72.6495 748.645 Q72.4691 748.645 72.0634 748.667 Q71.635 748.69 71.4547 748.69 L59.6866 748.69 Q58.3114 748.69 57.9507 749.096 Q57.59 749.479 57.59 750.99 L57.59 756.49 Q57.59 757.55 57.9733 757.888 Q58.334 758.204 59.3485 758.249 L73.2582 758.249 Q74.5883 758.204 74.9941 757.618 Q75.3773 757.031 75.3773 755.002 L75.3773 754.687 L76.4369 754.687 Q76.3016 757.37 76.3016 760.052 L76.3016 760.233 Q76.3016 762.397 76.4369 765.08 Z" fill="#000000" fill-rule="nonzero" fill-opacity="1" /><path clip-path="url(#clip460)" d="M62.8338 734.115 Q61.771 735.049 60.3862 735.049 Q59.0013 735.049 57.9707 734.147 Q56.9079 733.213 56.9079 731.539 Q56.9079 729.574 58.8081 728.447 Q60.676 727.32 63.8322 727.32 Q67.246 727.32 70.4022 728.704 Q73.5906 730.089 75.1042 731.442 Q76.6179 732.795 76.6179 733.342 Q76.6179 733.986 75.9094 733.986 Q75.6517 733.986 75.1686 733.535 Q70.0801 728.801 63.8322 728.769 Q62.8338 728.769 62.8338 728.898 L62.9626 729.059 Q63.8966 730.186 63.8966 731.539 Q63.8966 733.181 62.8338 734.115 Z" fill="#000000" fill-rule="nonzero" fill-opacity="1" /><path clip-path="url(#clip460)" d="M56.2638 681.093 Q56.5537 680.836 56.8435 680.836 Q57.1334 680.836 57.9707 681.48 Q58.8081 682.092 59.9353 683.412 Q61.0625 684.733 62.1253 686.44 Q63.1881 688.147 63.8966 690.659 Q64.6373 693.171 64.6373 695.812 Q64.6373 700.739 61.3845 703.638 Q58.1317 706.504 53.4619 706.504 Q48.9209 706.504 44.5731 703.96 Q40.1931 701.415 37.4878 697.293 Q34.7503 693.171 34.7503 688.823 Q34.7503 685.377 36.3606 683.219 Q37.9709 681.061 40.4185 681.061 Q42.3187 681.061 43.4781 682.156 Q44.6375 683.251 44.6375 684.733 Q44.6375 685.763 44.0578 686.472 Q43.4459 687.18 42.3187 687.18 Q40.8694 687.18 39.7422 685.989 Q39.2913 685.538 39.0981 685.023 Q38.8726 684.475 38.8726 684.153 Q38.8404 683.831 38.8404 683.09 Q37.5844 683.767 36.9081 685.377 Q36.1996 686.955 36.1996 688.758 Q36.1996 691.432 38.0675 693.976 Q39.9032 696.52 42.8018 698.066 Q45.6359 699.612 49.6616 700.61 Q53.6551 701.609 55.974 701.609 Q59.1623 701.609 61.1591 700.127 Q63.1559 698.646 63.1559 695.683 Q63.1559 695.103 63.1237 694.491 Q63.0914 693.847 62.7372 692.237 Q62.3829 690.594 61.771 689.145 Q61.1591 687.696 59.8387 685.86 Q58.486 683.992 56.6503 682.511 Q55.974 681.995 55.974 681.641 Q55.974 681.351 56.2638 681.093 Z" fill="#000000" fill-rule="nonzero" fill-opacity="1" /><polyline clip-path="url(#clip462)" style="stroke:#ff0000; stroke-linecap:round; stroke-linejoin:round; stroke-width:4; stroke-opacity:1; fill:none" points="257.825,1362 270.154,1384.24 282.483,1356.13 294.812,1380.07 307.141,1357.29 319.47,1359.08 331.799,1351.61 344.128,1353.39 356.457,1354.65 368.787,1370.98 381.116,1351.79 393.445,1327.68 405.774,1354.95 418.103,1346.22 430.432,1347.14 442.761,1342.85 455.09,1341.59 467.419,1326.27 479.748,1341.35 492.078,1321.1 504.407,1335.85 516.736,1340.09 529.065,1334.82 541.394,1333.55 553.723,1314.45 566.052,1330.57 578.381,1345.3 590.71,1344.21 603.04,1330.71 615.369,1336.36 627.698,1325.41 640.027,1331.04 652.356,1304.24 664.685,1322.41 677.014,1329.25 689.343,1300.26 701.672,1297.82 714.001,1295.53 726.331,1325.01 738.66,1291.09 750.989,1315.46 763.318,1321.34 775.647,1321.28 787.976,1319.54 800.305,1311.66 812.634,1307.93 824.963,1281.7 837.292,1279.55 849.622,1309.21 861.951,931.881 874.28,896.46 886.609,890.48 898.938,883.387 911.267,927.613 923.596,892.026 935.925,889.86 948.254,924.378 960.583,880.549 972.913,879.696 985.242,845.497 997.571,877.667 1009.9,876.78 1022.23,880.424 1034.56,841.235 1046.89,838.798 1059.22,879.021 1071.55,804.638 1083.87,872.756 1096.2,831.691 1108.53,801.385 1120.86,795.303 1133.19,797.606 1145.52,830.026 1157.85,788.978 1170.18,795.77 1182.51,791.019 1194.84,795.66 1207.17,786.39 1219.49,788.89 1231.82,782.378 1244.15,792.665 1256.48,784.18 1268.81,743.431 1281.14,779.474 1293.47,785.557 1305.8,785.414 1318.13,735.971 1330.46,773.381 1342.79,737.302 1355.11,774.456 1367.44,731.525 1379.77,779.226 1392.1,774.893 1404.43,773.707 1416.76,772.111 1429.09,764.326 1441.42,727.641 1453.75,761.356 1466.08,700.459 1478.41,690.405 1490.73,721.592 1503.06,719.563 1515.39,720.083 1527.72,687.643 1540.05,684.777 1552.38,676.845 1564.71,689.753 1577.04,682.216 1589.37,691.515 1601.7,690.333 1614.03,681.905 1626.35,682.534 1638.68,677.272 1651.01,668.104 1663.34,706.195 1675.67,665.608 1688,682.485 1700.33,681.289 1712.66,699.934 1724.99,674.694 1737.32,661.579 1749.65,667.579 1761.98,666.399 1774.3,280.212 1786.63,281.374 1798.96,281.565 1811.29,277.467 1823.62,189.57 1835.95,188.022 1848.28,225.881 1860.61,221.966 1872.94,194.598 1885.27,175.271 1897.6,217.479 1909.92,194.53 1922.25,185.033 1934.58,184.493 1946.91,124.646 1959.24,125.883 1971.57,182.963 1983.9,125.416 1996.23,99.672 2008.56,166.94 2020.89,88.6783 2033.22,87.9299 2045.54,121.264 2057.87,120.387 2070.2,89.4711 2082.53,86.1857 2094.86,90.7441 "/>
<path clip-path="url(#clip460)" d="M267.622 806.996 L503.879 806.996 L503.879 703.316 L267.622 703.316  Z" fill="#ffffff" fill-rule="evenodd" fill-opacity="1"/>
<polyline clip-path="url(#clip460)" style="stroke:#000000; stroke-linecap:round; stroke-linejoin:round; stroke-width:4; stroke-opacity:1; fill:none" points="267.622,806.996 503.879,806.996 503.879,703.316 267.622,703.316 267.622,806.996 "/>
<polyline clip-path="url(#clip460)" style="stroke:#ff0000; stroke-linecap:round; stroke-linejoin:round; stroke-width:4; stroke-opacity:1; fill:none" points="289.258,755.156 419.076,755.156 "/>
<path clip-path="url(#clip460)" d="M455.445 745.323 Q455.445 745.979 455.14 746.143 Q454.836 746.283 453.992 746.283 L449.495 746.283 L445.935 760.43 Q445.654 761.672 445.654 762.726 Q445.654 763.897 446.005 764.412 Q446.38 764.927 447.153 764.927 Q448.675 764.927 450.315 763.546 Q451.978 762.164 453.383 758.791 Q453.571 758.346 453.664 758.252 Q453.782 758.135 454.086 758.135 Q454.672 758.135 454.672 758.603 Q454.672 758.767 454.344 759.517 Q454.039 760.266 453.36 761.367 Q452.704 762.468 451.837 763.499 Q450.994 764.529 449.706 765.279 Q448.418 766.005 447.036 766.005 Q445.092 766.005 443.85 764.764 Q442.632 763.522 442.632 761.578 Q442.632 760.946 443.124 758.931 Q443.616 756.894 446.286 746.283 L442.047 746.283 Q441.461 746.283 441.227 746.26 Q441.016 746.236 440.852 746.119 Q440.712 745.979 440.712 745.698 Q440.712 745.253 440.899 745.065 Q441.087 744.854 441.321 744.831 Q441.578 744.784 442.164 744.784 L446.661 744.784 L448.535 737.172 Q448.722 736.422 449.191 736.001 Q449.683 735.556 449.964 735.509 Q450.245 735.439 450.456 735.439 Q451.088 735.439 451.463 735.79 Q451.837 736.118 451.837 736.727 Q451.837 737.055 449.87 744.784 L454.086 744.784 Q454.625 744.784 454.836 744.808 Q455.07 744.831 455.257 744.948 Q455.445 745.065 455.445 745.323 Z" fill="#000000" fill-rule="nonzero" fill-opacity="1" /><path clip-path="url(#clip460)" d="M460.41 774.581 L460.41 773.811 L460.689 773.811 Q462.164 773.811 462.591 773.532 Q463.033 773.237 463.033 772.269 L463.033 762.432 Q463 761.465 462.558 761.169 Q462.131 760.874 460.656 760.874 L460.41 760.874 L460.41 760.137 L477.298 760.137 L477.298 760.874 L477.068 760.874 Q475.56 760.874 475.133 761.169 Q474.723 761.448 474.691 762.432 L474.691 772.269 Q474.723 773.237 475.133 773.532 Q475.56 773.811 477.035 773.811 L477.298 773.811 L477.298 774.581 Q475.346 774.483 473.412 774.483 L473.281 774.483 Q471.707 774.483 469.755 774.581 L469.755 773.811 L469.952 773.811 Q471.625 773.811 471.985 773.466 Q472.362 773.106 472.362 771.827 Q472.362 771.696 472.346 771.4 Q472.33 771.089 472.33 770.958 L472.33 762.399 Q472.33 761.399 472.034 761.137 Q471.756 760.874 470.657 760.874 L466.657 760.874 Q465.886 760.874 465.64 761.153 Q465.411 761.415 465.378 762.153 L465.378 772.269 Q465.411 773.237 465.837 773.532 Q466.263 773.811 467.739 773.811 L467.968 773.811 L467.968 774.581 Q466.017 774.483 464.066 774.483 L463.935 774.483 Q462.361 774.483 460.41 774.581 Z" fill="#000000" fill-rule="nonzero" fill-opacity="1" /><polyline clip-path="url(#clip460)" style="stroke:#000000; stroke-linecap:round; stroke-linejoin:round; stroke-width:4; stroke-opacity:1; fill:none" points="2149.97,1423.18 2149.97,47.2441 "/>
<polyline clip-path="url(#clip460)" style="stroke:#000000; stroke-linecap:round; stroke-linejoin:round; stroke-width:4; stroke-opacity:1; fill:none" points="2149.97,1384 2168.87,1384 "/>
<polyline clip-path="url(#clip460)" style="stroke:#000000; stroke-linecap:round; stroke-linejoin:round; stroke-width:4; stroke-opacity:1; fill:none" points="2149.97,1061.57 2168.87,1061.57 "/>
<polyline clip-path="url(#clip460)" style="stroke:#000000; stroke-linecap:round; stroke-linejoin:round; stroke-width:4; stroke-opacity:1; fill:none" points="2149.97,739.137 2168.87,739.137 "/>
<polyline clip-path="url(#clip460)" style="stroke:#000000; stroke-linecap:round; stroke-linejoin:round; stroke-width:4; stroke-opacity:1; fill:none" points="2149.97,416.705 2168.87,416.705 "/>
<polyline clip-path="url(#clip460)" style="stroke:#000000; stroke-linecap:round; stroke-linejoin:round; stroke-width:4; stroke-opacity:1; fill:none" points="2149.97,94.2723 2168.87,94.2723 "/>
<path clip-path="url(#clip460)" d="M2215.92 1369.8 Q2212.31 1369.8 2210.48 1373.37 Q2208.67 1376.91 2208.67 1384.04 Q2208.67 1391.14 2210.48 1394.71 Q2212.31 1398.25 2215.92 1398.25 Q2219.55 1398.25 2221.36 1394.71 Q2223.18 1391.14 2223.18 1384.04 Q2223.18 1376.91 2221.36 1373.37 Q2219.55 1369.8 2215.92 1369.8 M2215.92 1366.1 Q2221.73 1366.1 2224.78 1370.7 Q2227.86 1375.29 2227.86 1384.04 Q2227.86 1392.76 2224.78 1397.37 Q2221.73 1401.95 2215.92 1401.95 Q2210.11 1401.95 2207.03 1397.37 Q2203.97 1392.76 2203.97 1384.04 Q2203.97 1375.29 2207.03 1370.7 Q2210.11 1366.1 2215.92 1366.1 Z" fill="#000000" fill-rule="nonzero" fill-opacity="1" /><path clip-path="url(#clip460)" d="M2236.08 1395.4 L2240.96 1395.4 L2240.96 1401.28 L2236.08 1401.28 L2236.08 1395.4 Z" fill="#000000" fill-rule="nonzero" fill-opacity="1" /><path clip-path="url(#clip460)" d="M2251.96 1397.35 L2259.6 1397.35 L2259.6 1370.98 L2251.29 1372.65 L2251.29 1368.39 L2259.55 1366.72 L2264.23 1366.72 L2264.23 1397.35 L2271.87 1397.35 L2271.87 1401.28 L2251.96 1401.28 L2251.96 1397.35 Z" fill="#000000" fill-rule="nonzero" fill-opacity="1" /><path clip-path="url(#clip460)" d="M2285.34 1397.35 L2301.66 1397.35 L2301.66 1401.28 L2279.71 1401.28 L2279.71 1397.35 Q2282.37 1394.59 2286.96 1389.96 Q2291.56 1385.31 2292.74 1383.97 Q2294.99 1381.44 2295.87 1379.71 Q2296.77 1377.95 2296.77 1376.26 Q2296.77 1373.5 2294.83 1371.77 Q2292.91 1370.03 2289.8 1370.03 Q2287.61 1370.03 2285.15 1370.8 Q2282.72 1371.56 2279.94 1373.11 L2279.94 1368.39 Q2282.77 1367.25 2285.22 1366.68 Q2287.68 1366.1 2289.71 1366.1 Q2295.08 1366.1 2298.28 1368.78 Q2301.47 1371.47 2301.47 1375.96 Q2301.47 1378.09 2300.66 1380.01 Q2299.87 1381.91 2297.77 1384.5 Q2297.19 1385.17 2294.09 1388.39 Q2290.99 1391.58 2285.34 1397.35 Z" fill="#000000" fill-rule="nonzero" fill-opacity="1" /><path clip-path="url(#clip460)" d="M2215.92 1047.37 Q2212.31 1047.37 2210.48 1050.93 Q2208.67 1054.47 2208.67 1061.6 Q2208.67 1068.71 2210.48 1072.28 Q2212.31 1075.82 2215.92 1075.82 Q2219.55 1075.82 2221.36 1072.28 Q2223.18 1068.71 2223.18 1061.6 Q2223.18 1054.47 2221.36 1050.93 Q2219.55 1047.37 2215.92 1047.37 M2215.92 1043.66 Q2221.73 1043.66 2224.78 1048.27 Q2227.86 1052.85 2227.86 1061.6 Q2227.86 1070.33 2224.78 1074.94 Q2221.73 1079.52 2215.92 1079.52 Q2210.11 1079.52 2207.03 1074.94 Q2203.97 1070.33 2203.97 1061.6 Q2203.97 1052.85 2207.03 1048.27 Q2210.11 1043.66 2215.92 1043.66 Z" fill="#000000" fill-rule="nonzero" fill-opacity="1" /><path clip-path="url(#clip460)" d="M2236.08 1072.97 L2240.96 1072.97 L2240.96 1078.85 L2236.08 1078.85 L2236.08 1072.97 Z" fill="#000000" fill-rule="nonzero" fill-opacity="1" /><path clip-path="url(#clip460)" d="M2251.96 1074.91 L2259.6 1074.91 L2259.6 1048.55 L2251.29 1050.22 L2251.29 1045.96 L2259.55 1044.29 L2264.23 1044.29 L2264.23 1074.91 L2271.87 1074.91 L2271.87 1078.85 L2251.96 1078.85 L2251.96 1074.91 Z" fill="#000000" fill-rule="nonzero" fill-opacity="1" /><path clip-path="url(#clip460)" d="M2294.16 1048.36 L2282.35 1066.81 L2294.16 1066.81 L2294.16 1048.36 M2292.93 1044.29 L2298.81 1044.29 L2298.81 1066.81 L2303.74 1066.81 L2303.74 1070.7 L2298.81 1070.7 L2298.81 1078.85 L2294.16 1078.85 L2294.16 1070.7 L2278.55 1070.7 L2278.55 1066.19 L2292.93 1044.29 Z" fill="#000000" fill-rule="nonzero" fill-opacity="1" /><path clip-path="url(#clip460)" d="M2215.92 724.936 Q2212.31 724.936 2210.48 728.501 Q2208.67 732.042 2208.67 739.172 Q2208.67 746.278 2210.48 749.843 Q2212.31 753.385 2215.92 753.385 Q2219.55 753.385 2221.36 749.843 Q2223.18 746.278 2223.18 739.172 Q2223.18 732.042 2221.36 728.501 Q2219.55 724.936 2215.92 724.936 M2215.92 721.232 Q2221.73 721.232 2224.78 725.839 Q2227.86 730.422 2227.86 739.172 Q2227.86 747.899 2224.78 752.505 Q2221.73 757.089 2215.92 757.089 Q2210.11 757.089 2207.03 752.505 Q2203.97 747.899 2203.97 739.172 Q2203.97 730.422 2207.03 725.839 Q2210.11 721.232 2215.92 721.232 Z" fill="#000000" fill-rule="nonzero" fill-opacity="1" /><path clip-path="url(#clip460)" d="M2236.08 750.538 L2240.96 750.538 L2240.96 756.417 L2236.08 756.417 L2236.08 750.538 Z" fill="#000000" fill-rule="nonzero" fill-opacity="1" /><path clip-path="url(#clip460)" d="M2251.96 752.482 L2259.6 752.482 L2259.6 726.117 L2251.29 727.783 L2251.29 723.524 L2259.55 721.857 L2264.23 721.857 L2264.23 752.482 L2271.87 752.482 L2271.87 756.417 L2251.96 756.417 L2251.96 752.482 Z" fill="#000000" fill-rule="nonzero" fill-opacity="1" /><path clip-path="url(#clip460)" d="M2291.89 737.274 Q2288.74 737.274 2286.89 739.427 Q2285.06 741.579 2285.06 745.329 Q2285.06 749.056 2286.89 751.232 Q2288.74 753.385 2291.89 753.385 Q2295.04 753.385 2296.86 751.232 Q2298.72 749.056 2298.72 745.329 Q2298.72 741.579 2296.86 739.427 Q2295.04 737.274 2291.89 737.274 M2301.17 722.621 L2301.17 726.88 Q2299.41 726.047 2297.61 725.607 Q2295.82 725.167 2294.06 725.167 Q2289.43 725.167 2286.98 728.292 Q2284.55 731.417 2284.2 737.737 Q2285.57 735.723 2287.63 734.658 Q2289.69 733.57 2292.17 733.57 Q2297.37 733.57 2300.38 736.741 Q2303.42 739.89 2303.42 745.329 Q2303.42 750.653 2300.27 753.871 Q2297.12 757.089 2291.89 757.089 Q2285.89 757.089 2282.72 752.505 Q2279.55 747.899 2279.55 739.172 Q2279.55 730.978 2283.44 726.117 Q2287.33 721.232 2293.88 721.232 Q2295.64 721.232 2297.42 721.58 Q2299.23 721.927 2301.17 722.621 Z" fill="#000000" fill-rule="nonzero" fill-opacity="1" /><path clip-path="url(#clip460)" d="M2215.92 402.503 Q2212.31 402.503 2210.48 406.068 Q2208.67 409.61 2208.67 416.74 Q2208.67 423.846 2210.48 427.411 Q2212.31 430.952 2215.92 430.952 Q2219.55 430.952 2221.36 427.411 Q2223.18 423.846 2223.18 416.74 Q2223.18 409.61 2221.36 406.068 Q2219.55 402.503 2215.92 402.503 M2215.92 398.8 Q2221.73 398.8 2224.78 403.406 Q2227.86 407.99 2227.86 416.74 Q2227.86 425.466 2224.78 430.073 Q2221.73 434.656 2215.92 434.656 Q2210.11 434.656 2207.03 430.073 Q2203.97 425.466 2203.97 416.74 Q2203.97 407.99 2207.03 403.406 Q2210.11 398.8 2215.92 398.8 Z" fill="#000000" fill-rule="nonzero" fill-opacity="1" /><path clip-path="url(#clip460)" d="M2236.08 428.105 L2240.96 428.105 L2240.96 433.985 L2236.08 433.985 L2236.08 428.105 Z" fill="#000000" fill-rule="nonzero" fill-opacity="1" /><path clip-path="url(#clip460)" d="M2251.96 430.05 L2259.6 430.05 L2259.6 403.684 L2251.29 405.351 L2251.29 401.091 L2259.55 399.425 L2264.23 399.425 L2264.23 430.05 L2271.87 430.05 L2271.87 433.985 L2251.96 433.985 L2251.96 430.05 Z" fill="#000000" fill-rule="nonzero" fill-opacity="1" /><path clip-path="url(#clip460)" d="M2291.31 417.573 Q2287.98 417.573 2286.05 419.355 Q2284.16 421.138 2284.16 424.263 Q2284.16 427.388 2286.05 429.17 Q2287.98 430.952 2291.31 430.952 Q2294.64 430.952 2296.56 429.17 Q2298.49 427.364 2298.49 424.263 Q2298.49 421.138 2296.56 419.355 Q2294.67 417.573 2291.31 417.573 M2286.63 415.582 Q2283.62 414.841 2281.93 412.781 Q2280.27 410.721 2280.27 407.758 Q2280.27 403.615 2283.21 401.207 Q2286.17 398.8 2291.31 398.8 Q2296.47 398.8 2299.41 401.207 Q2302.35 403.615 2302.35 407.758 Q2302.35 410.721 2300.66 412.781 Q2298.99 414.841 2296.01 415.582 Q2299.39 416.369 2301.26 418.661 Q2303.16 420.952 2303.16 424.263 Q2303.16 429.286 2300.08 431.971 Q2297.03 434.656 2291.31 434.656 Q2285.59 434.656 2282.51 431.971 Q2279.46 429.286 2279.46 424.263 Q2279.46 420.952 2281.36 418.661 Q2283.25 416.369 2286.63 415.582 M2284.92 408.198 Q2284.92 410.883 2286.59 412.388 Q2288.28 413.892 2291.31 413.892 Q2294.32 413.892 2296.01 412.388 Q2297.72 410.883 2297.72 408.198 Q2297.72 405.513 2296.01 404.008 Q2294.32 402.503 2291.31 402.503 Q2288.28 402.503 2286.59 404.008 Q2284.92 405.513 2284.92 408.198 Z" fill="#000000" fill-rule="nonzero" fill-opacity="1" /><path clip-path="url(#clip460)" d="M2215.92 80.071 Q2212.31 80.071 2210.48 83.6358 Q2208.67 87.1774 2208.67 94.307 Q2208.67 101.413 2210.48 104.978 Q2212.31 108.52 2215.92 108.52 Q2219.55 108.52 2221.36 104.978 Q2223.18 101.413 2223.18 94.307 Q2223.18 87.1774 2221.36 83.6358 Q2219.55 80.071 2215.92 80.071 M2215.92 76.3673 Q2221.73 76.3673 2224.78 80.9737 Q2227.86 85.5571 2227.86 94.307 Q2227.86 103.034 2224.78 107.64 Q2221.73 112.224 2215.92 112.224 Q2210.11 112.224 2207.03 107.64 Q2203.97 103.034 2203.97 94.307 Q2203.97 85.5571 2207.03 80.9737 Q2210.11 76.3673 2215.92 76.3673 Z" fill="#000000" fill-rule="nonzero" fill-opacity="1" /><path clip-path="url(#clip460)" d="M2236.08 105.673 L2240.96 105.673 L2240.96 111.552 L2236.08 111.552 L2236.08 105.673 Z" fill="#000000" fill-rule="nonzero" fill-opacity="1" /><path clip-path="url(#clip460)" d="M2255.18 107.617 L2271.49 107.617 L2271.49 111.552 L2249.55 111.552 L2249.55 107.617 Q2252.21 104.863 2256.8 100.233 Q2261.4 95.5801 2262.58 94.2376 Q2264.83 91.7144 2265.71 89.9783 Q2266.61 88.2191 2266.61 86.5293 Q2266.61 83.7747 2264.67 82.0386 Q2262.74 80.3025 2259.64 80.3025 Q2257.44 80.3025 2254.99 81.0663 Q2252.56 81.8302 2249.78 83.3811 L2249.78 78.6589 Q2252.61 77.5247 2255.06 76.946 Q2257.51 76.3673 2259.55 76.3673 Q2264.92 76.3673 2268.12 79.0525 Q2271.31 81.7376 2271.31 86.2283 Q2271.31 88.358 2270.5 90.2793 Q2269.71 92.1774 2267.61 94.77 Q2267.03 95.4413 2263.93 98.6588 Q2260.82 101.853 2255.18 107.617 Z" fill="#000000" fill-rule="nonzero" fill-opacity="1" /><path clip-path="url(#clip460)" d="M2291.31 80.071 Q2287.7 80.071 2285.87 83.6358 Q2284.06 87.1774 2284.06 94.307 Q2284.06 101.413 2285.87 104.978 Q2287.7 108.52 2291.31 108.52 Q2294.94 108.52 2296.75 104.978 Q2298.58 101.413 2298.58 94.307 Q2298.58 87.1774 2296.75 83.6358 Q2294.94 80.071 2291.31 80.071 M2291.31 76.3673 Q2297.12 76.3673 2300.18 80.9737 Q2303.25 85.5571 2303.25 94.307 Q2303.25 103.034 2300.18 107.64 Q2297.12 112.224 2291.31 112.224 Q2285.5 112.224 2282.42 107.64 Q2279.36 103.034 2279.36 94.307 Q2279.36 85.5571 2282.42 80.9737 Q2285.5 76.3673 2291.31 76.3673 Z" fill="#000000" fill-rule="nonzero" fill-opacity="1" /><path clip-path="url(#clip460)" d="M2337.51 719.016 Q2341.34 719.016 2345.14 720.787 Q2348.94 722.559 2351.84 725.457 Q2354.71 728.323 2356.51 732.253 Q2358.31 736.149 2358.31 740.143 Q2358.31 740.852 2358.15 742.301 Q2370.04 744.555 2370.23 744.62 Q2370.91 744.909 2371.32 745.489 Q2371.74 746.037 2371.84 746.423 Q2371.94 746.81 2371.94 747.067 Q2371.94 747.711 2371.49 748.356 Q2371.07 748.967 2370.1 748.967 Q2369.87 748.967 2368.78 748.645 L2357.7 745.135 Q2356.48 750.449 2353.1 753.508 Q2349.68 756.568 2345.04 756.568 Q2342.08 756.568 2338.22 755.215 Q2334.35 753.863 2331.74 752.22 Q2329.13 750.578 2329.13 749.644 Q2329.13 748.839 2329.81 748.839 Q2330.07 748.839 2330.65 749.354 Q2333.64 751.963 2337.96 753.412 Q2342.24 754.829 2344.3 754.829 Q2347.91 754.829 2350.52 752.059 Q2353.1 749.257 2354.06 744.008 Q2343.95 740.884 2339.7 739.016 Q2331.26 735.248 2329.2 730.352 Q2328.43 728.549 2328.43 726.552 Q2328.43 722.945 2330.97 720.981 Q2333.48 719.016 2337.51 719.016 M2338.96 720.884 Q2337.25 720.884 2335.8 721.496 Q2334.35 722.076 2333.32 723.557 Q2332.26 725.038 2332.26 727.196 Q2332.26 731.512 2336.41 735.119 Q2340.57 738.726 2347.01 740.272 L2354.16 741.592 Q2354.42 741.592 2354.42 740.723 Q2354.48 740.207 2354.48 739.531 Q2354.48 735.86 2353.1 732.381 Q2351.71 728.871 2349.52 726.391 Q2347.33 723.911 2344.53 722.398 Q2341.73 720.884 2338.96 720.884 Z" fill="#000000" fill-rule="nonzero" fill-opacity="1" /><polyline clip-path="url(#clip462)" style="stroke:#0000ff; stroke-linecap:round; stroke-linejoin:round; stroke-width:4; stroke-opacity:1; fill:none" points="257.825,659.298 270.154,659.316 282.483,651.073 294.812,649.615 307.141,642.6 319.47,638.333 331.799,634.723 344.128,630.3 356.457,625.977 368.787,622.556 381.116,617.855 393.445,621.452 405.774,609.141 418.103,606.148 430.432,601.742 442.761,598.449 455.09,594.572 467.419,596.594 479.748,586.159 492.078,586.053 504.407,579.321 516.736,573.762 529.065,571.151 541.394,567.349 553.723,563.178 566.052,560.033 578.381,551.48 590.71,547.457 603.04,547.126 615.369,540.874 627.698,540.818 640.027,534.114 652.356,527.892 664.685,529.383 677.014,522.01 689.343,514.943 701.672,510.453 714.001,506.067 726.331,506.595 738.66,497.497 750.989,500.959 763.318,495.502 775.647,491.202 787.976,487.686 800.305,483.831 812.634,478.293 824.963,468.89 837.292,464.912 849.622,467.463 861.951,456.972 874.28,461.091 886.609,454.768 898.938,448.459 911.267,441.315 923.596,443.199 935.925,438.499 948.254,429.766 960.583,427.701 972.913,423.567 985.242,417.698 997.571,415.174 1009.9,411.026 1022.23,407.878 1034.56,402.506 1046.89,399.043 1059.22,395.779 1071.55,392.63 1083.87,386.672 1096.2,385.014 1108.53,380.153 1120.86,374.939 1133.19,371.551 1145.52,369.644 1157.85,362.41 1170.18,359.688 1182.51,355 1194.84,352.024 1207.17,346.727 1219.49,343.221 1231.82,338.743 1244.15,336.253 1256.48,331.248 1268.81,334.056 1281.14,323.316 1293.47,320.033 1305.8,316.225 1318.13,319.912 1330.46,308.001 1342.79,313.062 1355.11,300.401 1367.44,303.533 1379.77,293.082 1392.1,289.092 1404.43,285.309 1416.76,281.531 1429.09,278.099 1441.42,280.48 1453.75,270.815 1466.08,266.757 1478.41,262.912 1490.73,264.002 1503.06,259.757 1515.39,256.397 1527.72,248.083 1540.05,244.558 1552.38,241.947 1564.71,236.867 1577.04,233.594 1589.37,229.519 1601.7,225.838 1614.03,222.452 1626.35,218.705 1638.68,215.531 1651.01,213.601 1663.34,210.125 1675.67,206.678 1688,200.339 1700.33,196.731 1712.66,194.713 1724.99,189.942 1737.32,188.88 1749.65,183.656 1761.98,180.143 1774.3,176.541 1786.63,172.695 1798.96,169.06 1811.29,166.175 1823.62,162.499 1835.95,159.189 1848.28,154.982 1860.61,150.894 1872.94,147.435 1885.27,148.154 1897.6,139.876 1909.92,136.77 1922.25,134.841 1934.58,131.388 1946.91,125.675 1959.24,122.29 1971.57,121.086 1983.9,115.286 1996.23,112.608 2008.56,115.329 2020.89,107.86 2033.22,104.487 2045.54,97.6751 2057.87,94.1773 2070.2,93.5197 2082.53,90.8281 2094.86,86.1857 "/>
<polyline clip-path="url(#clip462)" style="stroke:#008000; stroke-linecap:round; stroke-linejoin:round; stroke-width:4; stroke-opacity:1; fill:none" points="257.825,1384 270.154,1384 282.483,1384 294.812,1384 307.141,1384 319.47,1384 331.799,1384 344.128,1384 356.457,1384 368.787,1384 381.116,1384 393.445,1384 405.774,1384 418.103,1384 430.432,1384 442.761,1384 455.09,1384 467.419,1384 479.748,1384.01 492.078,1384.01 504.407,1384 516.736,1384.01 529.065,1384 541.394,1384.01 553.723,1384.01 566.052,1384.01 578.381,1384.01 590.71,1384.01 603.04,1384.01 615.369,1384.01 627.698,1384.01 640.027,1384.01 652.356,1384.01 664.685,1384.01 677.014,1384.01 689.343,1384.01 701.672,1384.01 714.001,1384.01 726.331,1384.01 738.66,1384.02 750.989,1384.02 763.318,1384.02 775.647,1384.02 787.976,1384.02 800.305,1384.02 812.634,1384.02 824.963,1384.03 837.292,1384.03 849.622,1384.03 861.951,1384.03 874.28,1384.03 886.609,1384.03 898.938,1384.04 911.267,1384.04 923.596,1384.04 935.925,1384.04 948.254,1384.05 960.583,1384.05 972.913,1384.05 985.242,1384.06 997.571,1384.06 1009.9,1384.06 1022.23,1384.07 1034.56,1384.07 1046.89,1384.07 1059.22,1384.08 1071.55,1384.08 1083.87,1384.09 1096.2,1384.09 1108.53,1384.1 1120.86,1384.1 1133.19,1384.11 1145.52,1384.11 1157.85,1384.12 1170.18,1384.12 1182.51,1384.13 1194.84,1384.13 1207.17,1384.14 1219.49,1384.14 1231.82,1384.15 1244.15,1384.15 1256.48,1384.16 1268.81,1384.17 1281.14,1384.17 1293.47,1384.18 1305.8,1384.18 1318.13,1384.19 1330.46,1384.19 1342.79,1384.2 1355.11,1384.2 1367.44,1384.21 1379.77,1384.21 1392.1,1384.22 1404.43,1384.22 1416.76,1384.22 1429.09,1384.23 1441.42,1384.23 1453.75,1384.23 1466.08,1384.24 1478.41,1384.24 1490.73,1384.24 1503.06,1384.24 1515.39,1384.24 1527.72,1384.24 1540.05,1384.23 1552.38,1384.23 1564.71,1384.23 1577.04,1384.22 1589.37,1384.22 1601.7,1384.21 1614.03,1384.2 1626.35,1384.2 1638.68,1384.19 1651.01,1384.18 1663.34,1384.16 1675.67,1384.15 1688,1384.13 1700.33,1384.12 1712.66,1384.1 1724.99,1384.08 1737.32,1384.06 1749.65,1384.03 1761.98,1384.01 1774.3,1383.98 1786.63,1383.95 1798.96,1383.92 1811.29,1383.89 1823.62,1383.85 1835.95,1383.82 1848.28,1383.78 1860.61,1383.74 1872.94,1383.69 1885.27,1383.65 1897.6,1383.6 1909.92,1383.55 1922.25,1383.49 1934.58,1383.44 1946.91,1383.38 1959.24,1383.32 1971.57,1383.26 1983.9,1383.19 1996.23,1383.12 2008.56,1383.05 2020.89,1382.98 2033.22,1382.9 2045.54,1382.83 2057.87,1382.75 2070.2,1382.66 2082.53,1382.57 2094.86,1382.49 "/>
<path clip-path="url(#clip460)" d="M1787.68 832.916 L2085.06 832.916 L2085.06 677.396 L1787.68 677.396  Z" fill="#ffffff" fill-rule="evenodd" fill-opacity="1"/>
<polyline clip-path="url(#clip460)" style="stroke:#000000; stroke-linecap:round; stroke-linejoin:round; stroke-width:4; stroke-opacity:1; fill:none" points="1787.68,832.916 2085.06,832.916 2085.06,677.396 1787.68,677.396 1787.68,832.916 "/>
<polyline clip-path="url(#clip460)" style="stroke:#0000ff; stroke-linecap:round; stroke-linejoin:round; stroke-width:4; stroke-opacity:1; fill:none" points="1809.32,729.236 1939.14,729.236 "/>
<path clip-path="url(#clip460)" d="M1988.08 715.372 Q1988.08 718.159 1986.8 720.923 Q1985.51 723.687 1983.4 725.795 Q1981.31 727.88 1978.46 729.191 Q1975.62 730.503 1972.72 730.503 Q1972.2 730.503 1971.15 730.386 Q1969.51 739.029 1969.46 739.169 Q1969.25 739.661 1968.83 739.966 Q1968.43 740.27 1968.15 740.34 Q1967.87 740.411 1967.68 740.411 Q1967.21 740.411 1966.75 740.083 Q1966.3 739.778 1966.3 739.075 Q1966.3 738.912 1966.54 738.115 L1969.09 730.058 Q1965.22 729.168 1963 726.708 Q1960.77 724.226 1960.77 720.853 Q1960.77 718.698 1961.76 715.887 Q1962.74 713.077 1963.94 711.179 Q1965.13 709.282 1965.81 709.282 Q1966.39 709.282 1966.39 709.774 Q1966.39 709.961 1966.02 710.383 Q1964.12 712.561 1963.07 715.7 Q1962.04 718.815 1962.04 720.314 Q1962.04 722.937 1964.05 724.835 Q1966.09 726.708 1969.91 727.411 Q1972.18 720.056 1973.54 716.965 Q1976.28 710.828 1979.84 709.329 Q1981.15 708.767 1982.6 708.767 Q1985.23 708.767 1986.66 710.617 Q1988.08 712.444 1988.08 715.372 M1986.73 716.426 Q1986.73 715.185 1986.28 714.131 Q1985.86 713.077 1984.78 712.327 Q1983.7 711.554 1982.13 711.554 Q1979 711.554 1976.37 714.576 Q1973.75 717.597 1972.63 722.282 L1971.66 727.481 Q1971.66 727.669 1972.3 727.669 Q1972.67 727.716 1973.16 727.716 Q1975.83 727.716 1978.36 726.708 Q1980.92 725.701 1982.72 724.109 Q1984.52 722.516 1985.62 720.478 Q1986.73 718.44 1986.73 716.426 Z" fill="#000000" fill-rule="nonzero" fill-opacity="1" /><path clip-path="url(#clip460)" d="M2020.44 744.317 Q2020.44 744.449 2020.29 744.957 Q2020.14 745.465 2019.78 746.252 Q2019.44 747.039 2018.94 747.76 Q2018.47 748.466 2017.68 748.99 Q2016.91 749.498 2016.03 749.498 Q2014.85 749.498 2014.06 748.711 Q2013.27 747.924 2013.27 746.744 Q2013.27 746.105 2013.71 744.891 Q2015.8 739.349 2015.8 737.366 Q2015.8 735.021 2013.98 735.021 Q2012.94 735.021 2012.01 735.447 Q2011.07 735.874 2010.47 736.464 Q2009.86 737.054 2009.39 737.726 Q2008.91 738.399 2008.7 738.841 Q2008.5 739.284 2008.45 739.481 L2006.43 747.58 Q2006.27 748.269 2006.16 748.597 Q2006.04 748.925 2005.73 749.203 Q2005.42 749.498 2004.93 749.498 Q2004.52 749.498 2004.22 749.253 Q2003.94 749.007 2003.94 748.58 Q2003.94 748.515 2004.02 748.17 Q2004.11 747.826 2004.22 747.351 Q2004.34 746.875 2004.39 746.596 Q2004.98 744.367 2005.06 744.055 L2005.99 740.153 Q2006.5 738.218 2006.5 737.366 Q2006.5 735.021 2004.68 735.021 Q2003.78 735.021 2002.93 735.365 Q2002.09 735.693 2001.52 736.152 Q2000.94 736.611 2000.42 737.251 Q1999.91 737.874 1999.65 738.3 Q1999.4 738.71 1999.2 739.12 L1998.78 740.792 Q1998.68 741.251 1998.2 743.039 L1997.47 746.072 Q1996.94 748.334 1996.83 748.547 Q1996.66 749.007 1996.3 749.253 Q1995.94 749.498 1995.58 749.498 Q1995.17 749.498 1994.89 749.253 Q1994.61 749.007 1994.61 748.58 Q1994.61 748.515 1994.66 748.269 Q1994.71 748.023 1994.79 747.679 Q1994.88 747.334 1994.91 747.137 L1996.86 739.382 Q1997.22 737.972 1997.3 737.53 Q1997.4 737.07 1997.4 736.562 Q1997.4 735.021 1996.35 735.021 Q1995.5 735.021 1994.94 736.038 Q1994.38 737.054 1993.91 739.022 Q1993.76 739.563 1993.66 739.677 Q1993.58 739.792 1993.33 739.792 Q1992.92 739.776 1992.92 739.448 Q1992.92 739.366 1993.06 738.841 Q1993.19 738.317 1993.43 737.53 Q1993.7 736.726 1993.97 736.202 Q1994.14 735.857 1994.29 735.628 Q1994.43 735.398 1994.73 735.037 Q1995.02 734.677 1995.47 734.48 Q1995.91 734.283 1996.45 734.283 Q1997.65 734.283 1998.53 735.054 Q1999.43 735.824 1999.55 737.202 Q2001.73 734.283 2004.78 734.283 Q2006.5 734.283 2007.53 735.152 Q2008.5 735.988 2008.62 737.53 Q2010.88 734.283 2014.09 734.283 Q2015.94 734.283 2016.94 735.251 Q2017.94 736.202 2017.94 737.874 Q2017.94 738.743 2017.5 740.399 Q2017.06 742.038 2016.76 742.858 Q2016.47 743.678 2015.89 745.252 Q2015.29 746.76 2015.29 747.646 Q2015.29 748.22 2015.49 748.482 Q2015.68 748.744 2016.11 748.744 Q2016.76 748.744 2017.34 748.367 Q2017.91 747.974 2018.32 747.334 Q2018.75 746.678 2019.03 746.023 Q2019.31 745.35 2019.52 744.596 Q2019.65 744.186 2019.72 744.088 Q2019.8 743.989 2020.03 743.989 Q2020.44 743.989 2020.44 744.317 Z" fill="#000000" fill-rule="nonzero" fill-opacity="1" /><path clip-path="url(#clip460)" d="M2037.9 744.317 Q2037.46 746.432 2036.88 747.646 Q2035.96 749.498 2034.41 749.498 Q2033.23 749.498 2032.39 748.777 Q2031.55 748.056 2031.36 746.973 Q2029.21 749.498 2026.98 749.498 Q2025.01 749.498 2023.77 748.006 Q2022.52 746.498 2022.52 744.121 Q2022.52 741.727 2023.7 739.431 Q2024.9 737.136 2026.78 735.71 Q2028.67 734.283 2030.6 734.283 Q2032.65 734.283 2033.7 736.431 Q2033.78 735.841 2034.16 735.398 Q2034.54 734.955 2035.11 734.955 Q2035.55 734.955 2035.82 735.201 Q2036.08 735.431 2036.08 735.857 Q2036.08 736.07 2035.85 737.005 L2034.64 741.694 L2033.9 744.727 Q2033.62 745.842 2033.54 746.252 Q2033.47 746.662 2033.47 747.203 Q2033.47 748.744 2034.47 748.744 Q2034.96 748.744 2035.36 748.433 Q2035.75 748.121 2036.06 747.465 Q2036.37 746.81 2036.57 746.203 Q2036.77 745.58 2037.03 744.596 Q2037.11 744.203 2037.18 744.104 Q2037.26 743.989 2037.49 743.989 Q2037.9 743.989 2037.9 744.317 M2033.29 737.972 Q2033.29 737.825 2033.18 737.415 Q2033.06 737.005 2032.8 736.431 Q2032.54 735.857 2031.96 735.447 Q2031.41 735.021 2030.65 735.021 Q2029.63 735.021 2028.57 735.89 Q2027.52 736.759 2026.75 738.235 Q2026.16 739.415 2025.52 741.891 Q2024.9 744.367 2024.9 745.596 Q2024.9 746.35 2025.06 747.023 Q2025.24 747.679 2025.75 748.22 Q2026.26 748.744 2027.04 748.744 Q2028.96 748.744 2030.85 746.367 Q2031.21 745.957 2031.29 745.793 Q2031.39 745.613 2031.52 745.121 L2033.19 738.546 Q2033.29 738.054 2033.29 737.972 Z" fill="#000000" fill-rule="nonzero" fill-opacity="1" /><path clip-path="url(#clip460)" d="M2056.02 736.497 Q2056.02 737.415 2055.45 737.939 Q2054.87 738.448 2054.22 738.448 Q2053.59 738.448 2053.26 738.087 Q2052.94 737.726 2052.94 737.267 Q2052.94 736.644 2053.4 736.103 Q2053.85 735.562 2054.54 735.447 Q2053.87 735.021 2052.87 735.021 Q2052.22 735.021 2051.64 735.365 Q2051.08 735.71 2050.74 736.152 Q2050.41 736.595 2050.12 737.234 Q2049.84 737.857 2049.72 738.235 Q2049.62 738.595 2049.54 738.989 L2048.4 743.58 Q2047.84 745.76 2047.84 746.531 Q2047.84 747.482 2048.3 748.121 Q2048.76 748.744 2049.67 748.744 Q2050.03 748.744 2050.44 748.646 Q2050.85 748.531 2051.38 748.236 Q2051.92 747.924 2052.4 747.465 Q2052.89 746.99 2053.36 746.187 Q2053.84 745.383 2054.15 744.35 Q2054.25 743.989 2054.58 743.989 Q2054.99 743.989 2054.99 744.317 Q2054.99 744.596 2054.76 745.186 Q2054.54 745.76 2054.07 746.514 Q2053.61 747.252 2053 747.924 Q2052.4 748.58 2051.49 749.039 Q2050.59 749.498 2049.61 749.498 Q2048.2 749.498 2047.26 748.744 Q2046.33 747.99 2045.98 746.941 Q2045.9 747.088 2045.79 747.285 Q2045.67 747.482 2045.33 747.924 Q2045 748.351 2044.62 748.679 Q2044.25 748.99 2043.66 749.236 Q2043.08 749.498 2042.46 749.498 Q2041.67 749.498 2040.97 749.269 Q2040.28 749.039 2039.79 748.515 Q2039.3 747.99 2039.3 747.269 Q2039.3 746.465 2039.84 745.908 Q2040.39 745.334 2041.15 745.334 Q2041.62 745.334 2042 745.613 Q2042.39 745.891 2042.39 746.498 Q2042.39 747.17 2041.94 747.679 Q2041.48 748.187 2040.82 748.318 Q2041.49 748.744 2042.49 748.744 Q2043.57 748.744 2044.43 747.793 Q2045.28 746.842 2045.69 745.252 Q2046.71 741.432 2047.1 739.727 Q2047.49 738.005 2047.49 737.267 Q2047.49 736.579 2047.31 736.103 Q2047.13 735.628 2046.82 735.415 Q2046.53 735.185 2046.25 735.103 Q2045.98 735.021 2045.69 735.021 Q2045.2 735.021 2044.64 735.218 Q2044.1 735.415 2043.44 735.874 Q2042.8 736.316 2042.2 737.234 Q2041.59 738.153 2041.18 739.415 Q2041.1 739.792 2040.74 739.792 Q2040.34 739.776 2040.34 739.448 Q2040.34 739.169 2040.56 738.595 Q2040.79 738.005 2041.25 737.267 Q2041.72 736.529 2042.33 735.874 Q2042.95 735.201 2043.85 734.742 Q2044.77 734.283 2045.76 734.283 Q2046.2 734.283 2046.62 734.382 Q2047.07 734.464 2047.59 734.71 Q2048.13 734.955 2048.61 735.497 Q2049.08 736.038 2049.38 736.825 Q2049.58 736.447 2049.84 736.087 Q2050.12 735.726 2050.54 735.283 Q2050.99 734.824 2051.59 734.562 Q2052.22 734.283 2052.9 734.283 Q2053.58 734.283 2054.23 734.464 Q2054.89 734.628 2055.45 735.169 Q2056.02 735.693 2056.02 736.497 Z" fill="#000000" fill-rule="nonzero" fill-opacity="1" /><polyline clip-path="url(#clip460)" style="stroke:#008000; stroke-linecap:round; stroke-linejoin:round; stroke-width:4; stroke-opacity:1; fill:none" points="1809.32,781.076 1939.14,781.076 "/>
<path clip-path="url(#clip460)" d="M1988.08 767.212 Q1988.08 769.999 1986.8 772.763 Q1985.51 775.527 1983.4 777.635 Q1981.31 779.72 1978.46 781.031 Q1975.62 782.343 1972.72 782.343 Q1972.2 782.343 1971.15 782.226 Q1969.51 790.869 1969.46 791.009 Q1969.25 791.501 1968.83 791.806 Q1968.43 792.11 1968.15 792.18 Q1967.87 792.251 1967.68 792.251 Q1967.21 792.251 1966.75 791.923 Q1966.3 791.618 1966.3 790.915 Q1966.3 790.752 1966.54 789.955 L1969.09 781.898 Q1965.22 781.008 1963 778.548 Q1960.77 776.066 1960.77 772.693 Q1960.77 770.538 1961.76 767.727 Q1962.74 764.917 1963.94 763.019 Q1965.13 761.122 1965.81 761.122 Q1966.39 761.122 1966.39 761.614 Q1966.39 761.801 1966.02 762.223 Q1964.12 764.401 1963.07 767.54 Q1962.04 770.655 1962.04 772.154 Q1962.04 774.777 1964.05 776.675 Q1966.09 778.548 1969.91 779.251 Q1972.18 771.896 1973.54 768.805 Q1976.28 762.668 1979.84 761.169 Q1981.15 760.607 1982.6 760.607 Q1985.23 760.607 1986.66 762.457 Q1988.08 764.284 1988.08 767.212 M1986.73 768.266 Q1986.73 767.025 1986.28 765.971 Q1985.86 764.917 1984.78 764.167 Q1983.7 763.394 1982.13 763.394 Q1979 763.394 1976.37 766.416 Q1973.75 769.437 1972.63 774.122 L1971.66 779.321 Q1971.66 779.509 1972.3 779.509 Q1972.67 779.556 1973.16 779.556 Q1975.83 779.556 1978.36 778.548 Q1980.92 777.541 1982.72 775.949 Q1984.52 774.356 1985.62 772.318 Q1986.73 770.28 1986.73 768.266 Z" fill="#000000" fill-rule="nonzero" fill-opacity="1" /><path clip-path="url(#clip460)" d="M2022.7 793.714 Q2022.7 795.715 2021.91 797.453 Q2021.14 799.174 2019.63 800.256 Q2018.14 801.338 2016.26 801.338 Q2013.34 801.338 2010.55 799.01 Q2009.99 798.535 2009.6 798.092 Q2009.21 797.649 2007.53 795.616 Q2007.25 796.092 2006.96 796.534 Q2006.66 796.961 2005.83 797.928 Q2004.99 798.895 2004.12 799.568 Q2003.27 800.24 2001.94 800.797 Q2000.63 801.338 1999.27 801.338 Q1997.83 801.338 1996.6 800.683 Q1995.38 800.01 1994.58 798.945 Q1993.79 797.863 1993.35 796.518 Q1992.92 795.157 1992.92 793.747 Q1992.92 791.747 1993.7 790.025 Q1994.48 788.287 1995.97 787.205 Q1997.48 786.123 1999.37 786.123 Q2002.3 786.123 2005.07 788.435 Q2005.63 788.91 2006.02 789.353 Q2006.42 789.796 2008.09 791.829 Q2008.3 791.468 2008.53 791.14 Q2008.76 790.796 2009.34 790.042 Q2009.91 789.288 2010.58 788.681 Q2011.27 788.074 2012.14 787.451 Q2013.01 786.828 2014.11 786.484 Q2015.21 786.123 2016.35 786.123 Q2017.8 786.123 2019.01 786.795 Q2020.24 787.451 2021.03 788.533 Q2021.83 789.599 2022.26 790.96 Q2022.7 792.304 2022.7 793.714 M2021.96 793.714 Q2021.96 792.55 2021.62 791.419 Q2021.27 790.288 2020.62 789.337 Q2019.98 788.369 2018.93 787.779 Q2017.88 787.189 2016.6 787.189 Q2015.26 787.189 2014.01 787.763 Q2012.78 788.32 2011.81 789.271 Q2010.86 790.222 2010.21 791.108 Q2009.55 791.993 2008.98 793.009 Q2009.27 793.37 2010.53 795.042 Q2011.81 796.715 2012.35 797.305 Q2014.57 799.715 2016.8 799.715 Q2018.93 799.715 2020.44 797.977 Q2021.96 796.223 2021.96 793.714 M2006.65 794.452 Q2006.37 794.108 2005.07 792.436 Q2003.79 790.747 2003.25 790.157 Q2001.02 787.73 1998.83 787.73 Q1996.7 787.73 1995.17 789.484 Q1993.66 791.239 1993.66 793.747 Q1993.66 794.911 1994.01 796.043 Q1994.35 797.174 1994.99 798.125 Q1995.65 799.076 1996.7 799.666 Q1997.74 800.256 1999.02 800.256 Q2000.11 800.256 2001.14 799.863 Q2002.19 799.469 2002.98 798.879 Q2003.76 798.289 2004.5 797.469 Q2005.24 796.649 2005.71 795.944 Q2006.21 795.239 2006.65 794.452 Z" fill="#000000" fill-rule="nonzero" fill-opacity="1" /></svg>
